{
.appVersion = "1231";
classes = (
{
automatic = 1;
code = "A B C D E F G H I J K L M N O P Q R S T U V W X Y Z a a_macr b c c_t d d_strok e e_macr f f_f g h i i_macr j k l m m_macr n n_macr o o_macr p p.ss01 p_bardes p_flour p_macr p_urrot q q_bardes q_ra q_bardes_ra q_strok q_etfin r r.ss01 s s.ss01 longs longs_i longs_f longs_longs longs_longs_i longs_t t t_acute u u_macr v w x y z gamma mu upsilon omega pamphyliandigamma rum";
name = AllLetters;
}
);
copyright = "Copyright © 2018 ANRT. All rights reserved.";
customParameters = (
{
name = glyphOrder;
value = (
.notdef,
emspace,
enspace,
threeperemspace,
fourperemspace,
space,
thinspace,
hairspace,
A,
B,
C,
C,
D,
E,
F,
G,
H,
I,
J,
K,
L,
M,
N,
O,
P,
Q,
Q_u,
R,
S,
T,
U,
V,
W,
X,
Y,
Z,
a,
a_macr,
a_m,
b,
b_hook,
c,
c_macr,
c_ra,
c_t,
d,
d_strok,
e,
e_macr,
e_hook,
f,
f_f,
g,
g_hook,
h,
h_hook,
i,
idotless,
i_macr,
i_n,
j,
k,
l,
l_hook,
m,
m_macr,
n,
n_macr,
o,
o_macr,
p,
p.ss01,
p_bardes,
p_flour,
p_macr,
p_urrot,
p_p_flour,
q,
q_bardes,
q_ra,
q_bardes_ra,
q_macr,
q_strok,
q_strok_ra,
q_etfin,
r,
r.ss01,
r_macr,
r_hook,
r_rot,
s,
s.ss01,
longs,
longs_i,
longs_f,
longs_longs,
longs_longs_i,
longs_t,
longs_colon,
t,
t_acute,
t_hook,
t_macr,
t_tilde,
t_ra,
u,
u_macr,
u_hook,
v,
v_hook,
w,
x,
y,
z,
gamma,
mu,
upsilon,
omega,
pamphyliandigamma,
leo,
con,
ampersand,
usmod,
rum,
section,
parenleft,
parenright,
period,
comma,
colon,
question,
hyphen,
bardes,
flour,
hook,
longhook,
macr,
longmacr,
ra,
ring,
tilde,
urrot
);
},
{
name = "Use Typo Metrics";
value = 1;
},
{
name = vendorID;
value = ANRT;
},
{
name = unicodeRanges;
value = (
0
);
},
{
name = codePageRanges;
value = (
1252
);
},
{
name = description;

glyphs = (
{
color = 3;
glyphname = A;
lastChange = "2019-04-24 15:06:56 +0000";
layers = (
{
layerId = "A23182C3-7ED8-49EC-89D2-A828F09177C3";
paths = (
{
closed = 1;
nodes = (
"482 105 LINE SMOOTH",
"505 50 OFFCURVE",
"505 44 OFFCURVE",
"451 25 CURVE",
"451 -5 LINE",
"524 -1 OFFCURVE",
"622 0 OFFCURVE",
"676 -5 CURVE",
"676 30 LINE",
"621 42 OFFCURVE",
"620 43 OFFCURVE",
"589 111 CURVE SMOOTH",
"507 293 OFFCURVE",
"423 482 OFFCURVE",
"347 664 CURVE",
"368 676 LINE",
"350 709 LINE",
"287 684 OFFCURVE",
"217 660 OFFCURVE",
"154 637 CURVE",
"164 602 LINE",
"257 629 LINE",
"135 115 LINE SMOOTH",
"115 30 OFFCURVE",
"115 32 OFFCURVE",
"61 24 CURVE",
"61 -7 LINE",
"80 -5 OFFCURVE",
"174 -1 OFFCURVE",
"227 -3 CURVE",
"227 27 LINE",
"181 33 OFFCURVE",
"179 31 OFFCURVE",
"188 77 CURVE SMOOTH",
"299 619 LINE",
"271 618 LINE"
);
},
{
closed = 1;
nodes = (
"188 240 LINE",
"474 240 LINE",
"474 288 LINE",
"188 288 LINE"
);
}
);
width = 707;
}
);
unicode = 0041;
},
{
color = 3;
glyphname = B;
lastChange = "2019-04-24 15:06:57 +0000";
layers = (
{
layerId = "A23182C3-7ED8-49EC-89D2-A828F09177C3";
paths = (
{
closed = 1;
nodes = (
"423 417 OFFCURVE",
"498 472 OFFCURVE",
"522 518 CURVE",
"542 647 OFFCURVE",
"439 707 OFFCURVE",
"336 707 CURVE SMOOTH",
"246 707 OFFCURVE",
"140 696 OFFCURVE",
"42 699 CURVE",
"42 664 LINE",
"112 656 LINE",
"112 501 OFFCURVE",
"115 196 OFFCURVE",
"110 41 CURVE",
"40 31 LINE",
"40 -4 LINE",
"134 5 OFFCURVE",
"213 -1 OFFCURVE",
"317 -1 CURVE SMOOTH",
"477 -1 OFFCURVE",
"578 69 OFFCURVE",
"578 184 CURVE SMOOTH",
"578 294 OFFCURVE",
"485 354 OFFCURVE",
"391 405 CURVE",
"388 387 LINE"
);
},
{
closed = 1;
nodes = (
"194 350 LINE",
"236 363 OFFCURVE",
"294 367 OFFCURVE",
"330 367 CURVE SMOOTH",
"398 367 OFFCURVE",
"476 291 OFFCURVE",
"476 186 CURVE SMOOTH",
"476 94 OFFCURVE",
"412 34 OFFCURVE",
"306 34 CURVE SMOOTH",
"262 34 OFFCURVE",
"230 45 OFFCURVE",
"214 53 CURVE",
"214 52 OFFCURVE",
"209 548 OFFCURVE",
"214 665 CURVE",
"338 677 OFFCURVE",
"431 645 OFFCURVE",
"431 535 CURVE SMOOTH",
"431 466 OFFCURVE",
"363 399 OFFCURVE",
"276 399 CURVE SMOOTH",
"249 399 OFFCURVE",
"221 399 OFFCURVE",
"194 405 CURVE"
);
}
);
width = 618;
}
);
leftMetricsKey = H;
rightMetricsKey = H;
unicode = 0042;
},
{
color = 3;
glyphname = C;
lastChange = "2019-04-24 15:07:00 +0000";
layers = (
{
layerId = "A23182C3-7ED8-49EC-89D2-A828F09177C3";
paths = (
{
closed = 1;
nodes = (
"224 710 OFFCURVE",
"20 569 OFFCURVE",
"20 339 CURVE SMOOTH",
"20 112 OFFCURVE",
"182 -10 OFFCURVE",
"382 -10 CURVE SMOOTH",
"492 -10 OFFCURVE",
"553 19 OFFCURVE",
"621 60 CURVE",
"631 17 LINE",
"660 17 LINE",
"669 204 LINE",
"639 206 LINE",
"619 80 OFFCURVE",
"504 33 OFFCURVE",
"414 33 CURVE SMOOTH",
"234 33 OFFCURVE",
"125 173 OFFCURVE",
"125 350 CURVE SMOOTH",
"125 504 OFFCURVE",
"229 670 OFFCURVE",
"427 670 CURVE SMOOTH",
"516 670 OFFCURVE",
"572 639 OFFCURVE",
"607 572 CURVE",
"633 577 LINE",
"628 700 LINE",
"591 700 OFFCURVE",
"541 710 OFFCURVE",
"455 710 CURVE SMOOTH"
);
}
);
width = 694;
}
);
leftMetricsKey = O;
unicode = 0043;
},
{
color = 3;
glyphname = D;
lastChange = "2019-04-24 15:07:06 +0000";
layers = (
{
layerId = "A23182C3-7ED8-49EC-89D2-A828F09177C3";
paths = (
{
closed = 1;
nodes = (
"72 667 OFFCURVE",
"105 664 OFFCURVE",
"137 657 CURVE",
"141 500 OFFCURVE",
"142 196 OFFCURVE",
"132 41 CURVE",
"72 25 LINE",
"82 -12 LINE",
"162 13 OFFCURVE",
"239 -10 OFFCURVE",
"390 -10 CURVE SMOOTH",
"670 -10 OFFCURVE",
"827 169 OFFCURVE",
"827 359 CURVE SMOOTH",
"827 599 OFFCURVE",
"654 705 OFFCURVE",
"406 705 CURVE SMOOTH",
"275 705 OFFCURVE",
"206 700 OFFCURVE",
"40 703 CURVE",
"40 668 LINE"
);
},
{
closed = 1;
nodes = (
"243 638 OFFCURVE",
"273 665 OFFCURVE",
"374 665 CURVE SMOOTH",
"575 665 OFFCURVE",
"716 555 OFFCURVE",
"716 345 CURVE SMOOTH",
"716 167 OFFCURVE",
"597 30 OFFCURVE",
"400 30 CURVE SMOOTH",
"326 30 OFFCURVE",
"295 36 OFFCURVE",
"248 49 CURVE",
"241 246 OFFCURVE",
"236 425 OFFCURVE",
"240 555 CURVE SMOOTH"
);
}
);
width = 847;
}
);
leftMetricsKey = H;
rightMetricsKey = O;
unicode = 0044;
},
{
color = 3;
glyphname = E;
lastChange = "2019-04-24 15:07:10 +0000";
layers = (
{
guideLines = (
{
angle = 259.6952;
position = "{637, 319}";
}
);
layerId = "A23182C3-7ED8-49EC-89D2-A828F09177C3";
paths = (
{
closed = 1;
nodes = (
"40 663 LINE",
"139 655 OFFCURVE",
"139 655 OFFCURVE",
"142 614 CURVE SMOOTH",
"151 495 OFFCURVE",
"151 244 OFFCURVE",
"145 101 CURVE SMOOTH",
"143 51 OFFCURVE",
"143 41 OFFCURVE",
"47 17 CURVE",
"56 -15 LINE",
"119 4 OFFCURVE",
"489 6 OFFCURVE",
"684 0 CURVE",
"695 -17 LINE",
"713 -17 LINE",
"717 22 OFFCURVE",
"736 94 OFFCURVE",
"766 182 CURVE",
"737 191 LINE",
"679 54 OFFCURVE",
"621 48 OFFCURVE",
"251 48 CURVE",
"245 163 OFFCURVE",
"250 539 OFFCURVE",
"250 652 CURVE",
"515 651 LINE SMOOTH",
"621 651 OFFCURVE",
"619 620 OFFCURVE",
"625 571 CURVE",
"654 571 LINE",
"692 713 LINE",
"537 704 OFFCURVE",
"261 686 OFFCURVE",
"44 700 CURVE"
);
},
{
closed = 1;
nodes = (
"521 330 LINE SMOOTH",
"578 330 OFFCURVE",
"560 309 OFFCURVE",
"560 183 CURVE",
"596 179 LINE",
"606 290 OFFCURVE",
"630 392 OFFCURVE",
"646 493 CURVE",
"611 496 LINE",
"583 390 OFFCURVE",
"581 386 OFFCURVE",
"516 385 CURVE SMOOTH",
"224 382 LINE",
"224 333 LINE"
);
}
);
width = 801;
}
);
leftMetricsKey = H;
unicode = 0045;
},
{
color = 3;
glyphname = F;
lastChange = "2019-04-24 15:07:14 +0000";
layers = (
{
guideLines = (
{
angle = 252.6884;
position = "{799, 700}";
}
);
layerId = "A23182C3-7ED8-49EC-89D2-A828F09177C3";
paths = (
{
closed = 1;
nodes = (
"43 673 LINE",
"137 663 OFFCURVE",
"142 667 OFFCURVE",
"145 624 CURVE SMOOTH",
"154 488 OFFCURVE",
"154 239 OFFCURVE",
"148 96 CURVE SMOOTH",
"146 48 OFFCURVE",
"140 42 OFFCURVE",
"40 28 CURVE",
"40 -7 LINE",
"155 -1 OFFCURVE",
"293 -1 OFFCURVE",
"378 -7 CURVE",
"378 30 LINE",
"263 44 OFFCURVE",
"255 47 OFFCURVE",
"254 91 CURVE SMOOTH",
"251 204 OFFCURVE",
"249 557 OFFCURVE",
"258 652 CURVE",
"561 650 LINE SMOOTH",
"681 649 OFFCURVE",
"700 639 OFFCURVE",
"704 569 CURVE",
"731 566 LINE",
"783 710 LINE",
"671 697 OFFCURVE",
"235 699 OFFCURVE",
"43 707 CURVE"
);
},
{
closed = 1;
nodes = (
"532 328 LINE SMOOTH",
"625 327 OFFCURVE",
"625 331 OFFCURVE",
"625 257 CURVE",
"651 252 LINE",
"711 452 LINE",
"681 458 LINE",
"638 382 OFFCURVE",
"634 380 OFFCURVE",
"575 380 CURVE SMOOTH",
"237 378 LINE",
"237 330 LINE"
);
}
);
width = 808;
}
);
leftMetricsKey = H;
unicode = 0046;
},
{
color = 3;
glyphname = G;
lastChange = "2019-04-24 15:11:29 +0000";
layers = (
{
layerId = "A23182C3-7ED8-49EC-89D2-A828F09177C3";
paths = (
{
closed = 1;
nodes = (
"221 710 OFFCURVE",
"20 570 OFFCURVE",
"20 340 CURVE SMOOTH",
"20 110 OFFCURVE",
"193 -10 OFFCURVE",
"483 -10 CURVE SMOOTH",
"613 -10 OFFCURVE",
"696 3 OFFCURVE",
"750 12 CURVE",
"742 62 OFFCURVE",
"739 213 OFFCURVE",
"743 272 CURVE",
"764 286 LINE",
"753 314 LINE",
"687 293 OFFCURVE",
"618 275 OFFCURVE",
"549 265 CURVE",
"553 234 LINE",
"649 247 LINE",
"649 55 LINE",
"591 36 OFFCURVE",
"553 29 OFFCURVE",
"485 29 CURVE SMOOTH",
"265 29 OFFCURVE",
"130 120 OFFCURVE",
"130 340 CURVE SMOOTH",
"130 540 OFFCURVE",
"281 668 OFFCURVE",
"491 668 CURVE SMOOTH",
"652 668 OFFCURVE",
"717 608 OFFCURVE",
"717 438 CURVE",
"745 436 LINE",
"758 680 LINE",
"685 696 OFFCURVE",
"599 710 OFFCURVE",
"481 710 CURVE SMOOTH"
);
}
);
width = 804;
},
{
associatedMasterId = "A23182C3-7ED8-49EC-89D2-A828F09177C3";
layerId = "6042F248-C90B-4236-873A-24FCF293CB92";
name = i;
width = 820;
},
{
associatedMasterId = "A23182C3-7ED8-49EC-89D2-A828F09177C3";
layerId = "0891C5D6-C693-4D55-ABDF-2D9F3318244A";
name = "Jun 27 18, 11:04";
paths = (
{
closed = 1;
nodes = (
"262 710 OFFCURVE",
"50 607 OFFCURVE",
"50 317 CURVE SMOOTH",
"50 47 OFFCURVE",
"234 -10 OFFCURVE",
"474 -10 CURVE SMOOTH",
"584 -10 OFFCURVE",
"715 7 OFFCURVE",
"769 20 CURVE",
"755 77 OFFCURVE",
"762 230 OFFCURVE",
"783 298 CURVE",
"774 317 LINE",
"701 294 OFFCURVE",
"643 277 OFFCURVE",
"574 272 CURVE",
"574 237 LINE",
"606 239 OFFCURVE",
"642 241 OFFCURVE",
"671 241 CURVE",
"679 216 OFFCURVE",
"679 181 OFFCURVE",
"679 144 CURVE SMOOTH",
"679 57 OFFCURVE",
"673 40 OFFCURVE",
"526 40 CURVE SMOOTH",
"306 40 OFFCURVE",
"172 110 OFFCURVE",
"172 340 CURVE SMOOTH",
"172 560 OFFCURVE",
"332 665 OFFCURVE",
"512 665 CURVE SMOOTH",
"690 665 OFFCURVE",
"743 622 OFFCURVE",
"728 459 CURVE SMOOTH",
"725 426 LINE",
"765 426 LINE",
"782 530 OFFCURVE",
"787 612 OFFCURVE",
"782 681 CURVE",
"709 698 OFFCURVE",
"580 710 OFFCURVE",
"492 710 CURVE SMOOTH"
);
}
);
width = 848;
}
);
leftMetricsKey = O;
rightMetricsKey = H;
unicode = 0047;
},
{
color = 3;
glyphname = H;
lastChange = "2019-04-24 15:11:29 +0000";
layers = (
{
guideLines = (
{
position = "{88, 650}";
}
);
layerId = "A23182C3-7ED8-49EC-89D2-A828F09177C3";
paths = (
{
closed = 1;
nodes = (
"196 330 LINE",
"778 330 LINE",
"778 380 LINE",
"196 380 LINE"
);
},
{
closed = 1;
nodes = (
"847 697 OFFCURVE",
"720 697 OFFCURVE",
"614 703 CURVE",
"614 659 LINE",
"746 665 OFFCURVE",
"747 666 OFFCURVE",
"747 653 CURVE SMOOTH",
"747 442 OFFCURVE",
"755 255 OFFCURVE",
"748 55 CURVE SMOOTH",
"747 40 OFFCURVE",
"744 44 OFFCURVE",
"641 35 CURVE",
"641 -3 LINE",
"694 2 OFFCURVE",
"875 2 OFFCURVE",
"926 -3 CURVE",
"926 32 LINE",
"875 39 OFFCURVE",
"861 44 OFFCURVE",
"857 127 CURVE SMOOTH",
"851 257 OFFCURVE",
"855 440 OFFCURVE",
"859 610 CURVE SMOOTH",
"860 649 OFFCURVE",
"876 659 OFFCURVE",
"904 668 CURVE",
"904 703 LINE"
);
},
{
closed = 1;
nodes = (
"40 668 LINE",
"117 659 OFFCURVE",
"133 659 OFFCURVE",
"136 540 CURVE SMOOTH",
"138 450 OFFCURVE",
"142 257 OFFCURVE",
"136 127 CURVE SMOOTH",
"132 44 OFFCURVE",
"128 40 OFFCURVE",
"44 33 CURVE",
"44 -3 LINE",
"128 2 OFFCURVE",
"229 2 OFFCURVE",
"344 -3 CURVE",
"344 33 LINE",
"249 42 OFFCURVE",
"246 40 OFFCURVE",
"245 55 CURVE SMOOTH",
"238 255 OFFCURVE",
"236 450 OFFCURVE",
"246 660 CURVE SMOOTH",
"246 658 OFFCURVE",
"259 661 OFFCURVE",
"341 666 CURVE",
"341 703 LINE",
"265 697 OFFCURVE",
"146 697 OFFCURVE",
"40 703 CURVE"
);
}
);
width = 966;
},
{
associatedMasterId = "A23182C3-7ED8-49EC-89D2-A828F09177C3";
layerId = "CEEA4781-C556-4AD4-B0CF-8C4C7C82E9EE";
name = "May 9 18, 16:58";
width = 1154;
},
{
annotations = (
{
position = "{443.528, 505.185}";
text = "Serif - épais";
type = Text;
}
);
associatedMasterId = "A23182C3-7ED8-49EC-89D2-A828F09177C3";
guideLines = (
{
position = "{91, 650}";
}
);
layerId = "F1D1C5A9-31B8-4648-A36B-438C3AB2394B";
name = "Jun 26 18, 15:21";
paths = (
{
closed = 1;
nodes = (
"48 650 LINE",
"93 650 LINE SMOOTH",
"130 650 OFFCURVE",
"139 632 OFFCURVE",
"141 602 CURVE SMOOTH",
"153 455 OFFCURVE",
"152 257 OFFCURVE",
"142 113 CURVE SMOOTH",
"139 73 OFFCURVE",
"124 54 OFFCURVE",
"82 54 CURVE SMOOTH",
"39 54 LINE",
"33 -2 LINE",
"130 2 OFFCURVE",
"273 4 OFFCURVE",
"400 -2 CURVE",
"408 49 LINE",
"374 49 LINE SMOOTH",
"277 49 OFFCURVE",
"257 64 OFFCURVE",
"255 85 CURVE SMOOTH",
"240 251 OFFCURVE",
"242 421 OFFCURVE",
"254 587 CURVE SMOOTH",
"257 623 OFFCURVE",
"277 650 OFFCURVE",
"344 650 CURVE SMOOTH",
"367 650 LINE",
"375 702 LINE",
"272 698 OFFCURVE",
"155 698 OFFCURVE",
"54 702 CURVE"
);
},
{
closed = 1;
nodes = (
"848 698 OFFCURVE",
"731 698 OFFCURVE",
"628 702 CURVE",
"622 650 LINE",
"645 650 LINE SMOOTH",
"712 650 OFFCURVE",
"731 623 OFFCURVE",
"734 587 CURVE SMOOTH",
"749 425 OFFCURVE",
"748 254 OFFCURVE",
"734 89 CURVE SMOOTH",
"732 64 OFFCURVE",
"712 49 OFFCURVE",
"655 49 CURVE SMOOTH",
"625 49 LINE",
"619 -2 LINE",
"726 4 OFFCURVE",
"869 2 OFFCURVE",
"926 -2 CURVE",
"934 57 LINE",
"907 57 LINE SMOOTH",
"865 57 OFFCURVE",
"850 73 OFFCURVE",
"848 94 CURVE SMOOTH",
"836 265 OFFCURVE",
"838 462 OFFCURVE",
"847 593 CURVE SMOOTH",
"850 632 OFFCURVE",
"859 650 OFFCURVE",
"896 650 CURVE SMOOTH",
"941 650 LINE",
"949 702 LINE"
);
},
{
closed = 1;
nodes = (
"199 304 LINE",
"781 304 LINE",
"781 370 LINE",
"199 370 LINE"
);
}
);
width = 974;
}
);
unicode = 0048;
},
{
color = 3;
glyphname = I;
lastChange = "2019-04-24 15:11:29 +0000";
layers = (
{
layerId = "A23182C3-7ED8-49EC-89D2-A828F09177C3";
paths = (
{
closed = 1;
nodes = (
"40 668 LINE",
"125 659 OFFCURVE",
"131 659 OFFCURVE",
"134 550 CURVE SMOOTH",
"136 450 OFFCURVE",
"138 257 OFFCURVE",
"130 47 CURVE SMOOTH",
"130 34 OFFCURVE",
"126 33 OFFCURVE",
"47 26 CURVE",
"47 -9 LINE",
"116 1 OFFCURVE",
"317 2 OFFCURVE",
"382 -3 CURVE",
"382 35 LINE",
"247 44 OFFCURVE",
"244 40 OFFCURVE",
"239 165 CURVE SMOOTH",
"236 255 OFFCURVE",
"234 450 OFFCURVE",
"244 650 CURVE SMOOTH",
"244 658 OFFCURVE",
"245 661 OFFCURVE",
"377 666 CURVE",
"377 703 LINE",
"271 697 OFFCURVE",
"144 697 OFFCURVE",
"40 703 CURVE"
);
}
);
width = 417;
},
{
associatedMasterId = "A23182C3-7ED8-49EC-89D2-A828F09177C3";
layerId = "3E074A94-EF8F-4141-A8D7-3D8DDDD16809";
name = "May 9 18, 10:53";
width = 600;
},
{
associatedMasterId = "A23182C3-7ED8-49EC-89D2-A828F09177C3";
layerId = "0ED760D4-0D09-4226-A1CC-C2B28FB5D01B";
name = "Jun 27 18, 16:29";
paths = (
{
closed = 1;
nodes = (
"40 659 LINE",
"81 655 LINE SMOOTH",
"128 650 OFFCURVE",
"141 631 OFFCURVE",
"142 610 CURVE SMOOTH",
"145 539 OFFCURVE",
"151 452 OFFCURVE",
"151 370 CURVE SMOOTH",
"151 280 OFFCURVE",
"148 180 OFFCURVE",
"142 101 CURVE SMOOTH",
"139 62 OFFCURVE",
"125 50 OFFCURVE",
"76 42 CURVE SMOOTH",
"47 37 LINE",
"47 -5 LINE",
"108 -1 OFFCURVE",
"151 1 OFFCURVE",
"217 1 CURVE SMOOTH",
"269 1 OFFCURVE",
"345 -1 OFFCURVE",
"402 -5 CURVE",
"402 40 LINE",
"354 45 LINE SMOOTH",
"256 55 OFFCURVE",
"254 61 OFFCURVE",
"252 101 CURVE SMOOTH",
"249 156 OFFCURVE",
"246 268 OFFCURVE",
"246 369 CURVE SMOOTH",
"246 453 OFFCURVE",
"248 542 OFFCURVE",
"252 601 CURVE SMOOTH",
"255 646 OFFCURVE",
"279 651 OFFCURVE",
"352 654 CURVE SMOOTH",
"397 656 LINE",
"397 703 LINE",
"338 700 OFFCURVE",
"263 698 OFFCURVE",
"211 698 CURVE SMOOTH",
"150 698 OFFCURVE",
"95 700 OFFCURVE",
"40 703 CURVE"
);
}
);
width = 442;
}
);
leftMetricsKey = H;
unicode = 0049;
},
{
color = 6;
glyphname = J;
lastChange = "2019-01-31 08:07:01 +0000";
layers = (
{
layerId = "A23182C3-7ED8-49EC-89D2-A828F09177C3";
paths = (
{
closed = 1;
nodes = (
"30 668 LINE",
"105 659 OFFCURVE",
"121 659 OFFCURVE",
"122 620 CURVE SMOOTH",
"126 450 OFFCURVE",
"128 273 OFFCURVE",
"124 153 CURVE SMOOTH",
"116 -83 OFFCURVE",
"107 -128 OFFCURVE",
"-17 -239 CURVE",
"8 -270 LINE",
"168 -156 OFFCURVE",
"229 -32 OFFCURVE",
"227 111 CURVE SMOOTH",
"225 241 OFFCURVE",
"226 450 OFFCURVE",
"232 620 CURVE SMOOTH",
"233 658 OFFCURVE",
"255 659 OFFCURVE",
"327 668 CURVE",
"327 703 LINE",
"261 697 OFFCURVE",
"134 697 OFFCURVE",
"30 703 CURVE"
);
}
);
width = 347;
}
);
unicode = 004A;
},
{
color = 3;
glyphname = K;
lastChange = "2019-04-24 15:11:29 +0000";
layers = (
{
layerId = "A23182C3-7ED8-49EC-89D2-A828F09177C3";
paths = (
{
closed = 1;
nodes = (
"257 280 LINE",
"460 85 OFFCURVE",
"563 -10 OFFCURVE",
"690 -10 CURVE SMOOTH",
"812 -10 OFFCURVE",
"870 -6 OFFCURVE",
"917 4 CURVE",
"913 38 LINE",
"698 50 OFFCURVE",
"646 72 OFFCURVE",
"576 127 CURVE SMOOTH",
"446 228 OFFCURVE",
"416 261 OFFCURVE",
"346 337 CURVE"
);
},
{
closed = 1;
nodes = (
"209 226 LINE",
"630 564 LINE SMOOTH",
"747 658 OFFCURVE",
"758 655 OFFCURVE",
"865 667 CURVE",
"865 702 LINE",
"753 697 OFFCURVE",
"663 697 OFFCURVE",
"544 702 CURVE",
"544 667 LINE",
"631 654 OFFCURVE",
"639 646 OFFCURVE",
"601 614 CURVE SMOOTH",
"209 285 LINE"
);
},
{
closed = 1;
nodes = (
"235 697 OFFCURVE",
"111 697 OFFCURVE",
"45 703 CURVE",
"45 666 LINE",
"117 661 OFFCURVE",
"139 658 OFFCURVE",
"140 620 CURVE SMOOTH",
"144 450 OFFCURVE",
"144 255 OFFCURVE",
"140 85 CURVE SMOOTH",
"139 43 OFFCURVE",
"125 44 OFFCURVE",
"40 35 CURVE",
"40 -3 LINE",
"97 0 OFFCURVE",
"263 2 OFFCURVE",
"352 -3 CURVE",
"352 32 LINE",
"253 39 OFFCURVE",
"249 44 OFFCURVE",
"247 87 CURVE SMOOTH",
"239 257 OFFCURVE",
"243 450 OFFCURVE",
"247 620 CURVE SMOOTH",
"248 659 OFFCURVE",
"264 659 OFFCURVE",
"339 668 CURVE",
"339 703 LINE"
);
}
);
width = 917;
},
{
associatedMasterId = "A23182C3-7ED8-49EC-89D2-A828F09177C3";
layerId = "1E5D7A43-83FA-4A9E-AFEB-F87FD1AF3482";
name = I;
width = 1005;
},
{
associatedMasterId = "A23182C3-7ED8-49EC-89D2-A828F09177C3";
layerId = "1AB23BD4-A45B-415F-8678-0759F9605C76";
name = "Jun 27 18, 11:23";
paths = (
{
closed = 1;
nodes = (
"287 258 OFFCURVE",
"289 444 OFFCURVE",
"296 629 CURVE SMOOTH",
"297 648 OFFCURVE",
"329 650 OFFCURVE",
"401 650 CURVE",
"401 703 LINE",
"342 699 OFFCURVE",
"285 694 OFFCURVE",
"227 694 CURVE SMOOTH",
"174 694 OFFCURVE",
"112 699 OFFCURVE",
"48 703 CURVE",
"48 649 LINE",
"141 649 OFFCURVE",
"178 641 OFFCURVE",
"187 517 CURVE SMOOTH",
"194 424 OFFCURVE",
"187 253 OFFCURVE",
"187 130 CURVE SMOOTH",
"187 68 OFFCURVE",
"130 50 OFFCURVE",
"53 50 CURVE",
"53 -3 LINE",
"113 3 OFFCURVE",
"174 6 OFFCURVE",
"232 6 CURVE SMOOTH",
"289 6 OFFCURVE",
"347 3 OFFCURVE",
"405 -3 CURVE",
"405 41 LINE",
"343 51 OFFCURVE",
"287 57 OFFCURVE",
"287 107 CURVE SMOOTH"
);
},
{
closed = 1;
nodes = (
"304 270 LINE",
"396 163 OFFCURVE",
"523 62 OFFCURVE",
"607 27 CURVE SMOOTH",
"695 -10 OFFCURVE",
"797 -18 OFFCURVE",
"942 29 CURVE",
"925 91 LINE",
"880 76 OFFCURVE",
"810 74 OFFCURVE",
"763 79 CURVE SMOOTH",
"619 94 OFFCURVE",
"497 201 OFFCURVE",
"361 340 CURVE"
);
},
{
closed = 1;
nodes = (
"249 193 LINE",
"674 554 LINE SMOOTH",
"724 597 OFFCURVE",
"820 650 OFFCURVE",
"917 650 CURVE",
"917 703 LINE",
"805 697 OFFCURVE",
"715 697 OFFCURVE",
"596 703 CURVE",
"596 668 LINE",
"620 663 OFFCURVE",
"650 661 OFFCURVE",
"675 647 CURVE",
"675 626 OFFCURVE",
"575 558 OFFCURVE",
"270 292 CURVE"
);
}
);
width = 962;
}
);
leftMetricsKey = I;
unicode = 004B;
},
{
color = 3;
glyphname = L;
lastChange = "2019-04-24 15:11:29 +0000";
layers = (
{
layerId = "A23182C3-7ED8-49EC-89D2-A828F09177C3";
paths = (
{
closed = 1;
nodes = (
"40 669 LINE",
"121 664 OFFCURVE",
"130 668 OFFCURVE",
"132 620 CURVE SMOOTH",
"137 509 OFFCURVE",
"135 178 OFFCURVE",
"132 99 CURVE SMOOTH",
"130 42 OFFCURVE",
"131 42 OFFCURVE",
"48 30 CURVE",
"48 -5 LINE",
"216 0 OFFCURVE",
"423 8 OFFCURVE",
"615 -7 CURVE",
"670 48 OFFCURVE",
"715 108 OFFCURVE",
"752 175 CURVE",
"721 193 LINE",
"602 39 OFFCURVE",
"585 43 OFFCURVE",
"237 43 CURVE",
"232 148 OFFCURVE",
"233 552 OFFCURVE",
"237 611 CURVE SMOOTH",
"240 662 OFFCURVE",
"240 662 OFFCURVE",
"372 668 CURVE",
"372 703 LINE",
"256 699 OFFCURVE",
"144 699 OFFCURVE",
"40 703 CURVE"
);
}
);
width = 772;
},
{
associatedMasterId = "A23182C3-7ED8-49EC-89D2-A828F09177C3";
layerId = "F2CDF51A-4738-4313-AA80-738B5FC88F3F";
name = i;
width = 883;
},
{
associatedMasterId = "A23182C3-7ED8-49EC-89D2-A828F09177C3";
layerId = "6D25C2E0-424C-45FA-86BD-0D0A62C9CCAA";
name = "Jun 27 18, 11:33";
paths = (
{
closed = 1;
nodes = (
"12 662 LINE",
"107 662 LINE SMOOTH",
"127 662 OFFCURVE",
"149 650 OFFCURVE",
"152 605 CURVE",
"155 538 LINE",
"162 403 OFFCURVE",
"161 272 OFFCURVE",
"152 136 CURVE SMOOTH",
"149 92 OFFCURVE",
"127 55 OFFCURVE",
"86 53 CURVE SMOOTH",
"34 51 LINE",
"34 -18 LINE",
"144 17 OFFCURVE",
"533 -3 OFFCURVE",
"688 -13 CURVE",
"750 47 OFFCURVE",
"785 121 OFFCURVE",
"817 192 CURVE",
"771 217 LINE",
"708 121 OFFCURVE",
"656 54 OFFCURVE",
"530 54 CURVE SMOOTH",
"384 54 LINE SMOOTH",
"287 54 OFFCURVE",
"263 81 OFFCURVE",
"262 146 CURVE SMOOTH",
"257 593 LINE SMOOTH",
"257 635 OFFCURVE",
"266 654 OFFCURVE",
"305 654 CURVE SMOOTH",
"407 654 LINE",
"415 700 LINE",
"21 700 LINE"
);
}
);
width = 883;
}
);
leftMetricsKey = I;
unicode = 004C;
},
{
color = 3;
glyphname = M;
lastChange = "2019-04-24 15:11:29 +0000";
layers = (
{
layerId = "A23182C3-7ED8-49EC-89D2-A828F09177C3";
paths = (
{
closed = 1;
nodes = (
"111 659 OFFCURVE",
"135 654 OFFCURVE",
"135 620 CURVE SMOOTH",
"135 469 OFFCURVE",
"132 170 OFFCURVE",
"122 91 CURVE SMOOTH",
"116 42 OFFCURVE",
"104 39 OFFCURVE",
"47 30 CURVE",
"41 -5 LINE",
"137 3 OFFCURVE",
"280 3 OFFCURVE",
"384 -5 CURVE",
"384 30 LINE",
"250 37 OFFCURVE",
"200 44 OFFCURVE",
"196 91 CURVE SMOOTH",
"190 163 OFFCURVE",
"189 386 OFFCURVE",
"189 537 CURVE",
"277 417 OFFCURVE",
"405 238 OFFCURVE",
"486 103 CURVE SMOOTH",
"512 60 OFFCURVE",
"523 21 OFFCURVE",
"536 -10 CURVE",
"558 -10 LINE",
"583 80 OFFCURVE",
"589 111 OFFCURVE",
"674 254 CURVE SMOOTH",
"874 590 LINE",
"879 489 OFFCURVE",
"878 142 OFFCURVE",
"872 91 CURVE SMOOTH",
"867 44 OFFCURVE",
"862 44 OFFCURVE",
"704 33 CURVE",
"704 -4 LINE",
"806 4 OFFCURVE",
"960 3 OFFCURVE",
"1073 -5 CURVE",
"1073 30 LINE",
"1008 43 OFFCURVE",
"993 45 OFFCURVE",
"988 91 CURVE SMOOTH",
"979 170 OFFCURVE",
"980 519 OFFCURVE",
"985 620 CURVE SMOOTH",
"987 657 OFFCURVE",
"1005 661 OFFCURVE",
"1070 670 CURVE",
"1070 703 LINE",
"978 697 OFFCURVE",
"828 697 OFFCURVE",
"707 703 CURVE",
"707 669 LINE",
"789 664 OFFCURVE",
"829 661 OFFCURVE",
"850 651 CURVE",
"538 127 LINE",
"577 149 LINE",
"232 651 LINE",
"260 656 OFFCURVE",
"306 661 OFFCURVE",
"381 667 CURVE",
"381 703 LINE",
"264 698 OFFCURVE",
"125 698 OFFCURVE",
"40 703 CURVE",
"40 669 LINE"
);
}
);
width = 1113;
},
{
associatedMasterId = "A23182C3-7ED8-49EC-89D2-A828F09177C3";
layerId = "FB021CC7-8928-465C-93CA-C3B0B7D211F2";
name = "Jun 27 18, 11:40";
width = 1163;
},
{
associatedMasterId = "A23182C3-7ED8-49EC-89D2-A828F09177C3";
layerId = "D6BB4AD6-3080-453A-8633-C059924C9264";
name = "Jun 27 18, 11:42";
paths = (
{
closed = 1;
nodes = (
"1023 620 LINE SMOOTH",
"1023 639 OFFCURVE",
"1035 653 OFFCURVE",
"1113 653 CURVE",
"1113 703 LINE",
"1085 700 OFFCURVE",
"994 695 OFFCURVE",
"938 695 CURVE SMOOTH",
"882 695 OFFCURVE",
"765 699 OFFCURVE",
"724 703 CURVE",
"724 653 LINE",
"842 653 LINE SMOOTH",
"899 653 OFFCURVE",
"877 621 OFFCURVE",
"855 585 CURVE SMOOTH",
"595 152 LINE",
"635 152 LINE",
"322 602 LINE SMOOTH",
"297 638 OFFCURVE",
"306 652 OFFCURVE",
"334 652 CURVE SMOOTH",
"412 652 LINE",
"412 700 LINE",
"42 700 LINE",
"42 645 LINE",
"71 645 LINE SMOOTH",
"114 645 OFFCURVE",
"144 635 OFFCURVE",
"166 615 CURVE",
"151 105 LINE SMOOTH",
"149 66 OFFCURVE",
"121 47 OFFCURVE",
"40 47 CURVE",
"40 -3 LINE",
"422 -3 LINE",
"422 47 LINE",
"299 47 OFFCURVE",
"245 57 OFFCURVE",
"244 87 CURVE SMOOTH",
"233 606 LINE",
"202 580 LINE",
"245 530 OFFCURVE",
"310 438 OFFCURVE",
"353 379 CURVE SMOOTH",
"402 312 OFFCURVE",
"522 110 OFFCURVE",
"566 -5 CURVE",
"612 -5 LINE",
"622 64 OFFCURVE",
"685 192 OFFCURVE",
"730 269 CURVE SMOOTH",
"913 583 LINE",
"918 429 OFFCURVE",
"918 276 OFFCURVE",
"913 117 CURVE SMOOTH",
"911 59 OFFCURVE",
"865 47 OFFCURVE",
"727 47 CURVE",
"727 -3 LINE",
"1123 -3 LINE",
"1123 47 LINE",
"1035 47 OFFCURVE",
"1023 87 OFFCURVE",
"1023 177 CURVE SMOOTH"
);
}
);
width = 1163;
}
);
leftMetricsKey = H;
rightMetricsKey = H;
unicode = 004D;
},
{
color = 3;
glyphname = N;
lastChange = "2019-04-24 15:11:29 +0000";
layers = (
{
layerId = "A23182C3-7ED8-49EC-89D2-A828F09177C3";
paths = (
{
closed = 1;
nodes = (
"159 653 LINE",
"159 120 LINE SMOOTH",
"159 35 OFFCURVE",
"150 36 OFFCURVE",
"66 30 CURVE",
"60 -5 LINE",
"178 0 OFFCURVE",
"300 1 OFFCURVE",
"410 -5 CURVE",
"420 39 LINE",
"214 39 OFFCURVE",
"214 39 OFFCURVE",
"214 115 CURVE SMOOTH",
"214 605 LINE"
);
},
{
closed = 1;
nodes = (
"206 593 CURVE SMOOTH",
"277 524 OFFCURVE",
"546 283 OFFCURVE",
"689 148 CURVE SMOOTH",
"749 92 OFFCURVE",
"793 49 OFFCURVE",
"817 -5 CURVE",
"863 -5 LINE",
"846 148 OFFCURVE",
"846 302 OFFCURVE",
"853 575 CURVE SMOOTH",
"855 659 OFFCURVE",
"850 658 OFFCURVE",
"965 670 CURVE",
"965 703 LINE",
"871 699 OFFCURVE",
"736 698 OFFCURVE",
"606 703 CURVE",
"606 668 LINE",
"786 663 OFFCURVE",
"793 664 OFFCURVE",
"793 597 CURVE SMOOTH",
"793 192 LINE",
"617 337 OFFCURVE",
"440 529 OFFCURVE",
"252 702 CURVE",
"206 702 OFFCURVE",
"120 700 OFFCURVE",
"40 697 CURVE",
"44 660 LINE",
"113 660 OFFCURVE",
"140 657 OFFCURVE"
);
}
);
width = 1005;
},
{
associatedMasterId = "A23182C3-7ED8-49EC-89D2-A828F09177C3";
layerId = "A19E624D-4D7F-441A-ABBF-54C43B003BE6";
name = i;
width = 1034;
},
{
associatedMasterId = "A23182C3-7ED8-49EC-89D2-A828F09177C3";
layerId = "D096B49F-8568-4EF4-BD70-E47DE2B954BB";
name = "Jun 27 18, 14:11";
paths = (
{
closed = 1;
nodes = (
"595 652 LINE",
"617 653 OFFCURVE",
"637 654 OFFCURVE",
"706 654 CURVE SMOOTH",
"755 654 OFFCURVE",
"775 629 OFFCURVE",
"775 515 CURVE SMOOTH",
"775 404 OFFCURVE",
"774 299 OFFCURVE",
"770 188 CURVE",
"285 639 LINE SMOOTH",
"197 720 OFFCURVE",
"76 715 OFFCURVE",
"28 708 CURVE",
"21 664 LINE",
"58 661 OFFCURVE",
"114 637 OFFCURVE",
"137 617 CURVE",
"148 150 LINE SMOOTH",
"150 76 OFFCURVE",
"133 46 OFFCURVE",
"29 45 CURVE",
"19 -10 LINE",
"118 6 OFFCURVE",
"263 6 OFFCURVE",
"429 -5 CURVE",
"449 60 LINE",
"242 56 OFFCURVE",
"224 57 OFFCURVE",
"223 110 CURVE SMOOTH",
"212 559 LINE",
"329 468 OFFCURVE",
"740 86 OFFCURVE",
"796 7 CURVE SMOOTH",
"809 -11 OFFCURVE",
"846 0 OFFCURVE",
"849 23 CURVE",
"843 189 OFFCURVE",
"842 352 OFFCURVE",
"842 515 CURVE SMOOTH",
"842 624 OFFCURVE",
"856 653 OFFCURVE",
"895 653 CURVE SMOOTH",
"935 653 OFFCURVE",
"944 653 OFFCURVE",
"954 652 CURVE",
"954 705 LINE",
"848 697 OFFCURVE",
"725 700 OFFCURVE",
"595 705 CURVE"
);
}
);
width = 1034;
}
);
leftMetricsKey = H;
rightMetricsKey = H;
unicode = 004E;
},
{
color = 3;
glyphname = O;
lastChange = "2019-04-24 15:11:29 +0000";
layers = (
{
layerId = "A23182C3-7ED8-49EC-89D2-A828F09177C3";
paths = (
{
closed = 1;
nodes = (
"194 710 OFFCURVE",
"20 550 OFFCURVE",
"20 350 CURVE SMOOTH",
"20 150 OFFCURVE",
"194 -10 OFFCURVE",
"414 -10 CURVE SMOOTH",
"634 -10 OFFCURVE",
"808 150 OFFCURVE",
"808 350 CURVE SMOOTH",
"808 550 OFFCURVE",
"634 710 OFFCURVE",
"414 710 CURVE SMOOTH"
);
},
{
closed = 1;
nodes = (
"254 30 OFFCURVE",
"130 170 OFFCURVE",
"130 350 CURVE SMOOTH",
"130 530 OFFCURVE",
"254 670 OFFCURVE",
"414 670 CURVE SMOOTH",
"574 670 OFFCURVE",
"698 530 OFFCURVE",
"698 350 CURVE SMOOTH",
"698 170 OFFCURVE",
"574 30 OFFCURVE",
"414 30 CURVE SMOOTH"
);
}
);
width = 828;
},
{
associatedMasterId = "A23182C3-7ED8-49EC-89D2-A828F09177C3";
layerId = "87255CC4-54ED-4022-91A5-D967241F27C0";
name = i;
width = 840;
},
{
associatedMasterId = "A23182C3-7ED8-49EC-89D2-A828F09177C3";
layerId = "42834182-237A-4B55-9BF7-7C137B8DECC9";
name = "Jun 26 18, 15:25";
paths = (
{
closed = 1;
nodes = (
"592 -10 OFFCURVE",
"781 148 OFFCURVE",
"781 373 CURVE SMOOTH",
"781 598 OFFCURVE",
"612 710 OFFCURVE",
"424 710 CURVE SMOOTH",
"236 710 OFFCURVE",
"30 568 OFFCURVE",
"30 343 CURVE SMOOTH",
"30 118 OFFCURVE",
"176 -10 OFFCURVE",
"384 -10 CURVE SMOOTH"
);
},
{
closed = 1;
nodes = (
"534 655 OFFCURVE",
"660 533 OFFCURVE",
"660 353 CURVE SMOOTH",
"660 173 OFFCURVE",
"579 50 OFFCURVE",
"419 50 CURVE SMOOTH",
"259 50 OFFCURVE",
"150 183 OFFCURVE",
"150 363 CURVE SMOOTH",
"150 543 OFFCURVE",
"274 655 OFFCURVE",
"394 655 CURVE SMOOTH"
);
}
);
width = 811;
},
{
associatedMasterId = "A23182C3-7ED8-49EC-89D2-A828F09177C3";
layerId = "4B4CD09D-1A51-41DB-BB20-E8717E34F018";
name = "Jun 26 18, 15:40";
paths = (
{
closed = 1;
nodes = (
"224 710 OFFCURVE",
"35 538 OFFCURVE",
"35 328 CURVE SMOOTH",
"35 118 OFFCURVE",
"179 -10 OFFCURVE",
"389 -10 CURVE SMOOTH",
"599 -10 OFFCURVE",
"788 162 OFFCURVE",
"788 372 CURVE SMOOTH",
"788 582 OFFCURVE",
"644 710 OFFCURVE",
"434 710 CURVE SMOOTH"
);
},
{
closed = 1;
nodes = (
"254 55 OFFCURVE",
"155 198 OFFCURVE",
"155 358 CURVE SMOOTH",
"155 518 OFFCURVE",
"249 650 OFFCURVE",
"409 650 CURVE SMOOTH",
"569 650 OFFCURVE",
"668 502 OFFCURVE",
"668 342 CURVE SMOOTH",
"668 182 OFFCURVE",
"574 55 OFFCURVE",
"414 55 CURVE SMOOTH"
);
}
);
width = 811;
},
{
associatedMasterId = "A23182C3-7ED8-49EC-89D2-A828F09177C3";
layerId = "F26B042F-CD37-4865-91E1-5A0EA6BFD834";
name = "Jul 5 18, 15:20";
paths = (
{
closed = 1;
nodes = (
"554 46 OFFCURVE",
"673 170 OFFCURVE",
"673 340 CURVE SMOOTH",
"673 510 OFFCURVE",
"554 660 OFFCURVE",
"414 660 CURVE",
"414 710 LINE",
"634 710 OFFCURVE",
"783 530 OFFCURVE",
"783 340 CURVE SMOOTH",
"783 150 OFFCURVE",
"634 -10 OFFCURVE",
"414 -10 CURVE",
"414 46 LINE"
);
},
{
closed = 1;
nodes = (
"414 -10 LINE",
"194 -10 OFFCURVE",
"45 150 OFFCURVE",
"45 340 CURVE SMOOTH",
"45 530 OFFCURVE",
"194 710 OFFCURVE",
"414 710 CURVE",
"414 660 LINE",
"274 660 OFFCURVE",
"155 510 OFFCURVE",
"155 340 CURVE SMOOTH",
"155 170 OFFCURVE",
"274 46 OFFCURVE",
"414 46 CURVE"
);
}
);
width = 828;
}
);
unicode = 004F;
},
{
color = 3;
glyphname = P;
lastChange = "2019-04-24 15:11:29 +0000";
layers = (
{
layerId = "A23182C3-7ED8-49EC-89D2-A828F09177C3";
paths = (
{
closed = 1;
nodes = (
"362 246 LINE",
"497 263 OFFCURVE",
"664 333 OFFCURVE",
"664 493 CURVE SMOOTH",
"664 616 OFFCURVE",
"560 703 OFFCURVE",
"415 703 CURVE SMOOTH",
"313 703 OFFCURVE",
"175 696 OFFCURVE",
"40 703 CURVE",
"40 668 LINE",
"172 662 OFFCURVE",
"176 663 OFFCURVE",
"176 595 CURVE SMOOTH",
"174 98 LINE SMOOTH",
"174 40 OFFCURVE",
"161 38 OFFCURVE",
"54 35 CURVE",
"54 -3 LINE",
"170 1 OFFCURVE",
"377 1 OFFCURVE",
"501 -3 CURVE",
"501 27 LINE",
"291 41 OFFCURVE",
"284 42 OFFCURVE",
"281 91 CURVE SMOOTH",
"275 196 OFFCURVE",
"274 534 OFFCURVE",
"281 653 CURVE",
"434 690 OFFCURVE",
"554 627 OFFCURVE",
"554 483 CURVE SMOOTH",
"554 351 OFFCURVE",
"468 296 OFFCURVE",
"360 272 CURVE"
);
}
);
width = 684;
},
{
associatedMasterId = "A23182C3-7ED8-49EC-89D2-A828F09177C3";
layerId = "BB9B1D85-498D-488F-AA1F-675E5F1B0006";
name = i;
width = 690;
},
{
associatedMasterId = "A23182C3-7ED8-49EC-89D2-A828F09177C3";
layerId = "7C56B05E-9BDF-45A1-BE62-A5860B806955";
name = "Jun 27 18, 14:26";
paths = (
{
closed = 1;
nodes = (
"182 430 LINE SMOOTH",
"182 290 OFFCURVE",
"181 150 OFFCURVE",
"172 10 CURVE",
"317 10 LINE",
"292 141 OFFCURVE",
"292 310 OFFCURVE",
"292 430 CURVE SMOOTH",
"292 700 LINE",
"182 700 LINE"
);
},
{
closed = 1;
nodes = (
"36 645 LINE",
"180 645 OFFCURVE",
"182 643 OFFCURVE",
"182 585 CURVE",
"292 525 LINE",
"292 640 OFFCURVE",
"320 649 OFFCURVE",
"392 649 CURVE SMOOTH",
"477 649 OFFCURVE",
"549 596 OFFCURVE",
"549 473 CURVE SMOOTH",
"549 405 OFFCURVE",
"518 352 OFFCURVE",
"486 325 CURVE SMOOTH",
"469 310 OFFCURVE",
"404 284 OFFCURVE",
"360 284 CURVE",
"360 242 LINE",
"448 253 OFFCURVE",
"531 289 OFFCURVE",
"551 302 CURVE SMOOTH",
"618 346 OFFCURVE",
"669 414 OFFCURVE",
"669 503 CURVE SMOOTH",
"669 650 OFFCURVE",
"534 704 OFFCURVE",
"422 704 CURVE SMOOTH",
"345 704 OFFCURVE",
"309 700 OFFCURVE",
"233 700 CURVE SMOOTH",
"168 700 OFFCURVE",
"103 700 OFFCURVE",
"36 703 CURVE"
);
},
{
closed = 1;
nodes = (
"237 7 OFFCURVE",
"383 1 OFFCURVE",
"507 -3 CURVE",
"507 36 LINE",
"68 58 LINE",
"68 -3 LINE"
);
}
);
width = 690;
}
);
unicode = 0050;
},
{
color = 3;
glyphname = Q;
lastChange = "2019-04-24 15:11:29 +0000";
layers = (
{
components = (
{
name = O;
}
);
layerId = "A23182C3-7ED8-49EC-89D2-A828F09177C3";
paths = (
{
closed = 1;
nodes = (
"449 -35 OFFCURVE",
"745 -273 OFFCURVE",
"944 -273 CURVE SMOOTH",
"1063 -273 OFFCURVE",
"1174 -244 OFFCURVE",
"1276 -208 CURVE",
"1261 -170 LINE",
"1206 -188 OFFCURVE",
"1136 -205 OFFCURVE",
"1050 -205 CURVE SMOOTH",
"837 -205 OFFCURVE",
"599 -35 OFFCURVE",
"525 32 CURVE",
"344 5 LINE"
);
}
);
width = 826;
},
{
associatedMasterId = "A23182C3-7ED8-49EC-89D2-A828F09177C3";
layerId = "C3609D54-2A27-4152-94AB-3292F1818F46";
name = i;
width = 1320;
},
{
associatedMasterId = "A23182C3-7ED8-49EC-89D2-A828F09177C3";
components = (
{
alignment = -1;
name = O;
}
);
layerId = "3CA7BFFA-53A4-493E-98DD-7B6FAF62DA5A";
name = "May 14 18, 16:30";
paths = (
{
closed = 1;
nodes = (
"426 -35 OFFCURVE",
"710 -273 OFFCURVE",
"867 -273 CURVE SMOOTH",
"973 -273 OFFCURVE",
"1108 -249 OFFCURVE",
"1210 -216 CURVE",
"1197 -174 LINE",
"1142 -192 OFFCURVE",
"1050 -198 OFFCURVE",
"964 -198 CURVE SMOOTH",
"828 -198 OFFCURVE",
"588 -35 OFFCURVE",
"522 32 CURVE",
"321 5 LINE"
);
}
);
width = 830;
}
);
unicode = 0051;
},
{
color = 3;
glyphname = R;
lastChange = "2019-04-24 15:11:29 +0000";
layers = (
{
layerId = "A23182C3-7ED8-49EC-89D2-A828F09177C3";
paths = (
{
closed = 1;
nodes = (
"39 651 LINE",
"132 651 OFFCURVE",
"141 653 OFFCURVE",
"142 612 CURVE SMOOTH",
"146 453 OFFCURVE",
"153 246 OFFCURVE",
"142 91 CURVE SMOOTH",
"139 50 OFFCURVE",
"122 43 OFFCURVE",
"27 30 CURVE",
"27 -3 LINE",
"121 2 OFFCURVE",
"301 3 OFFCURVE",
"400 -3 CURVE",
"400 32 LINE",
"263 41 OFFCURVE",
"254 41 OFFCURVE",
"252 91 CURVE SMOOTH",
"247 213 OFFCURVE",
"256 551 OFFCURVE",
"263 662 CURVE",
"385 679 OFFCURVE",
"531 648 OFFCURVE",
"531 508 CURVE SMOOTH",
"531 378 OFFCURVE",
"415 335 OFFCURVE",
"239 335 CURVE",
"239 293 LINE",
"495 281 OFFCURVE",
"638 371 OFFCURVE",
"638 511 CURVE SMOOTH",
"638 621 OFFCURVE",
"555 703 OFFCURVE",
"385 703 CURVE SMOOTH",
"259 703 OFFCURVE",
"143 693 OFFCURVE",
"40 685 CURVE"
);
},
{
closed = 1;
nodes = (
"395 315 LINE",
"497 121 OFFCURVE",
"609 -10 OFFCURVE",
"736 -10 CURVE SMOOTH",
"799 -10 OFFCURVE",
"899 15 OFFCURVE",
"956 39 CURVE",
"943 71 LINE",
"898 59 OFFCURVE",
"857 55 OFFCURVE",
"810 55 CURVE SMOOTH",
"662 55 OFFCURVE",
"544 234 OFFCURVE",
"494 353 CURVE"
);
}
);
width = 976;
},
{
associatedMasterId = "A23182C3-7ED8-49EC-89D2-A828F09177C3";
layerId = "9E3F1A23-8F03-4507-908C-FFC5800BAE7D";
name = i;
width = 980;
},
{
associatedMasterId = "A23182C3-7ED8-49EC-89D2-A828F09177C3";
layerId = "D8405854-8468-47E9-A6DB-89BBB97100A3";
name = "Jun 27 18, 15:03";
paths = (
{
closed = 1;
nodes = (
"649 650 OFFCURVE",
"554 704 OFFCURVE",
"402 704 CURVE SMOOTH",
"310 704 OFFCURVE",
"191 703 OFFCURVE",
"66 700 CURVE",
"66 645 LINE",
"150 645 OFFCURVE",
"162 643 OFFCURVE",
"162 585 CURVE SMOOTH",
"162 430 LINE SMOOTH",
"162 304 OFFCURVE",
"161 189 OFFCURVE",
"155 63 CURVE",
"68 57 LINE",
"68 -3 LINE",
"237 7 OFFCURVE",
"313 1 OFFCURVE",
"437 -3 CURVE",
"437 47 LINE",
"286 65 LINE",
"273 149 OFFCURVE",
"269 202 OFFCURVE",
"268 289 CURVE",
"360 289 LINE SMOOTH",
"527 289 OFFCURVE",
"649 389 OFFCURVE",
"649 533 CURVE SMOOTH"
);
},
{
closed = 1;
nodes = (
"467 649 OFFCURVE",
"529 606 OFFCURVE",
"529 513 CURVE SMOOTH",
"529 380 OFFCURVE",
"449 349 OFFCURVE",
"319 349 CURVE",
"267 349 LINE",
"267 400 LINE",
"267 555 LINE SMOOTH",
"267 640 OFFCURVE",
"300 649 OFFCURVE",
"382 649 CURVE SMOOTH"
);
},
{
closed = 1;
nodes = (
"483 145 OFFCURVE",
"580 -8 OFFCURVE",
"775 -8 CURVE SMOOTH",
"830 -8 OFFCURVE",
"892 1 OFFCURVE",
"948 40 CURVE",
"937 66 LINE",
"909 60 OFFCURVE",
"880 56 OFFCURVE",
"846 56 CURVE SMOOTH",
"673 56 OFFCURVE",
"590 157 OFFCURVE",
"516 339 CURVE",
"421 298 LINE"
);
}
);
width = 1040;
}
);
unicode = 0052;
},
{
color = 3;
glyphname = S;
lastChange = "2019-04-24 15:06:26 +0000";
layers = (
{
annotations = (
{
position = "{543.217, 365.625}";
text = "virer plat";
type = Text;
}
);
layerId = "A23182C3-7ED8-49EC-89D2-A828F09177C3";
paths = (
{
closed = 1;
nodes = (
"30 660 OFFCURVE",
"184 700 OFFCURVE",
"324 700 CURVE SMOOTH",
"325 700 OFFCURVE",
"535 700 OFFCURVE",
"534 700 CURVE",
"502 515 LINE",
"472 518 LINE",
"466 596 LINE SMOOTH",
"463 633 OFFCURVE",
"403 663 OFFCURVE",
"296 663 CURVE SMOOTH",
"194 663 OFFCURVE",
"140 612 OFFCURVE",
"140 553 CURVE SMOOTH",
"140 503 OFFCURVE",
"180 465 OFFCURVE",
"311 403 CURVE SMOOTH",
"453 336 OFFCURVE",
"548 289 OFFCURVE",
"548 176 CURVE SMOOTH",
"548 4 OFFCURVE",
"311 0 OFFCURVE",
"40 -5 CURVE",
"61 179 LINE",
"85 179 LINE",
"92 68 OFFCURVE",
"94 36 OFFCURVE",
"178 36 CURVE SMOOTH",
"300 36 OFFCURVE",
"438 57 OFFCURVE",
"438 149 CURVE SMOOTH",
"438 226 OFFCURVE",
"375 263 OFFCURVE",
"276 314 CURVE SMOOTH",
"176 365 OFFCURVE",
"30 420 OFFCURVE",
"30 530 CURVE SMOOTH"
);
}
);
width = 578;
}
);
unicode = 0053;
},
{
color = 3;
glyphname = T;
lastChange = "2019-04-24 15:11:29 +0000";
layers = (
{
layerId = "A23182C3-7ED8-49EC-89D2-A828F09177C3";
paths = (
{
closed = 1;
nodes = (
"49 554 LINE",
"91 605 LINE SMOOTH",
"129 651 OFFCURVE",
"134 646 OFFCURVE",
"193 647 CURVE SMOOTH",
"376 650 OFFCURVE",
"612 651 OFFCURVE",
"815 646 CURVE",
"824 594 LINE",
"851 594 LINE",
"851 740 LINE",
"811 740 LINE",
"811 700 OFFCURVE",
"806 700 OFFCURVE",
"768 700 CURVE SMOOTH",
"191 701 LINE SMOOTH",
"159 701 OFFCURVE",
"146 700 OFFCURVE",
"159 732 CURVE",
"129 737 LINE",
"20 571 LINE"
);
},
{
closed = 1;
nodes = (
"396 654 LINE",
"403 484 OFFCURVE",
"403 261 OFFCURVE",
"396 91 CURVE SMOOTH",
"394 45 OFFCURVE",
"394 45 OFFCURVE",
"271 28 CURVE",
"271 -5 LINE",
"361 2 OFFCURVE",
"564 3 OFFCURVE",
"641 -5 CURVE",
"641 30 LINE",
"513 44 OFFCURVE",
"513 44 OFFCURVE",
"511 89 CURVE SMOOTH",
"503 259 OFFCURVE",
"504 485 OFFCURVE",
"511 654 CURVE"
);
}
);
width = 871;
},
{
associatedMasterId = "A23182C3-7ED8-49EC-89D2-A828F09177C3";
layerId = "DE5B8485-B650-4055-A7C6-DA6638E86835";
name = "Jun 27 18, 15:17";
paths = (
{
closed = 1;
nodes = (
"108 559 LINE",
"152 616 OFFCURVE",
"176 636 OFFCURVE",
"238 636 CURVE SMOOTH",
"449 637 LINE",
"756 637 LINE",
"801 565 LINE",
"832 565 LINE",
"809 727 LINE",
"779 733 LINE",
"758 702 LINE",
"580 687 OFFCURVE",
"412 685 OFFCURVE",
"214 699 CURVE",
"214 745 LINE",
"185 745 LINE",
"138 680 OFFCURVE",
"106 647 OFFCURVE",
"72 583 CURVE"
);
},
{
closed = 1;
nodes = (
"404 283 LINE",
"403 231 OFFCURVE",
"402 170 OFFCURVE",
"398 119 CURVE SMOOTH",
"394 70 OFFCURVE",
"383 52 OFFCURVE",
"350 52 CURVE SMOOTH",
"289 52 LINE",
"282 -2 LINE",
"370 5 OFFCURVE",
"498 8 OFFCURVE",
"630 -4 CURVE",
"638 52 LINE",
"567 52 LINE SMOOTH",
"519 52 OFFCURVE",
"510 70 OFFCURVE",
"507 100 CURVE SMOOTH",
"503 134 OFFCURVE",
"503 204 OFFCURVE",
"502 283 CURVE"
);
},
{
closed = 1;
nodes = (
"502 283 LINE",
"502 288 OFFCURVE",
"502 292 OFFCURVE",
"502 296 CURVE SMOOTH",
"501 421 OFFCURVE",
"503 550 OFFCURVE",
"512 660 CURVE",
"392 660 LINE",
"401 545 OFFCURVE",
"406 413 OFFCURVE",
"404 296 CURVE SMOOTH",
"404 292 OFFCURVE",
"404 288 OFFCURVE",
"404 283 CURVE"
);
}
);
width = 925;
},
{
associatedMasterId = "A23182C3-7ED8-49EC-89D2-A828F09177C3";
layerId = "3087C994-8A88-4DB3-951F-D0404F181AFD";
name = i;
width = 925;
}
);
unicode = 0054;
},
{
color = 6;
glyphname = U;
lastChange = "2019-01-31 08:06:56 +0000";
layers = (
{
layerId = "A23182C3-7ED8-49EC-89D2-A828F09177C3";
paths = (
{
closed = 1;
nodes = (
"682 600 LINE",
"682 251 LINE SMOOTH",
"682 90 OFFCURVE",
"572 41 OFFCURVE",
"469 41 CURVE SMOOTH",
"343 41 OFFCURVE",
"252 85 OFFCURVE",
"252 280 CURVE SMOOTH",
"252 600 LINE",
"142 600 LINE",
"142 260 LINE SMOOTH",
"142 75 OFFCURVE",
"254 -10 OFFCURVE",
"445 -10 CURVE SMOOTH",
"619 -10 OFFCURVE",
"742 75 OFFCURVE",
"742 260 CURVE SMOOTH",
"742 600 LINE"
);
},
{
closed = 1;
nodes = (
"252 600 LINE",
"254 658 OFFCURVE",
"275 658 OFFCURVE",
"377 666 CURVE",
"377 703 LINE",
"281 697 OFFCURVE",
"154 697 OFFCURVE",
"50 703 CURVE",
"50 668 LINE",
"125 659 OFFCURVE",
"141 659 OFFCURVE",
"142 600 CURVE"
);
},
{
closed = 1;
nodes = (
"742 600 LINE",
"743 659 OFFCURVE",
"764 658 OFFCURVE",
"837 668 CURVE",
"837 703 LINE",
"753 697 OFFCURVE",
"626 697 OFFCURVE",
"550 703 CURVE",
"550 666 LINE",
"639 662 OFFCURVE",
"680 658 OFFCURVE",
"682 600 CURVE"
);
}
);
width = 894;
}
);
unicode = 0055;
},
{
color = 3;
glyphname = V;
lastChange = "2019-04-24 15:11:29 +0000";
layers = (
{
layerId = "A23182C3-7ED8-49EC-89D2-A828F09177C3";
paths = (
{
closed = 1;
nodes = (
"622 668 LINE",
"748 661 OFFCURVE",
"741 654 OFFCURVE",
"725 623 CURVE SMOOTH",
"455 81 LINE",
"499 100 LINE",
"206 629 LINE SMOOTH",
"190 658 OFFCURVE",
"188 666 OFFCURVE",
"310 668 CURVE",
"310 703 LINE",
"204 699 OFFCURVE",
"109 697 OFFCURVE",
"10 701 CURVE",
"10 666 LINE",
"57 660 OFFCURVE",
"76 653 OFFCURVE",
"111 591 CURVE SMOOTH",
"255 336 OFFCURVE",
"411 88 OFFCURVE",
"434 -10 CURVE",
"470 -10 LINE",
"488 41 OFFCURVE",
"510 92 OFFCURVE",
"529 127 CURVE SMOOTH",
"801 628 LINE SMOOTH",
"815 653 OFFCURVE",
"821 662 OFFCURVE",
"857 668 CURVE",
"857 703 LINE",
"825 699 OFFCURVE",
"740 697 OFFCURVE",
"622 703 CURVE"
);
}
);
width = 887;
},
{
associatedMasterId = "A23182C3-7ED8-49EC-89D2-A828F09177C3";
layerId = "D1D6EBD6-A8D5-43EC-874C-7C70790A9E89";
name = i;
width = 958;
},
{
associatedMasterId = "A23182C3-7ED8-49EC-89D2-A828F09177C3";
layerId = "2B572BFA-A02A-4573-8C50-073A383AC207";
name = "Jun 27 18, 15:28";
paths = (
{
closed = 1;
nodes = (
"647 652 LINE",
"740 652 OFFCURVE",
"771 646 OFFCURVE",
"761 628 CURVE SMOOTH",
"507 159 LINE",
"236 616 LINE SMOOTH",
"219 645 OFFCURVE",
"276 650 OFFCURVE",
"340 650 CURVE",
"340 700 LINE",
"234 695 OFFCURVE",
"139 695 OFFCURVE",
"40 703 CURVE",
"47 635 LINE",
"99 635 OFFCURVE",
"107 630 OFFCURVE",
"124 599 CURVE SMOOTH",
"467 -10 LINE",
"494 -10 LINE",
"827 622 LINE SMOOTH",
"836 639 OFFCURVE",
"850 644 OFFCURVE",
"893 644 CURVE",
"899 703 LINE",
"837 696 OFFCURVE",
"752 694 OFFCURVE",
"644 700 CURVE"
);
}
);
width = 939;
}
);
unicode = 0056;
},
{
color = 6;
glyphname = W;
lastChange = "2019-03-12 15:52:58 +0000";
layers = (
{
layerId = "A23182C3-7ED8-49EC-89D2-A828F09177C3";
paths = (
{
closed = 1;
nodes = (
"602 535 LINE",
"431 81 LINE",
"479 132 LINE",
"274 619 LINE SMOOTH",
"258 656 OFFCURVE",
"258 666 OFFCURVE",
"350 668 CURVE",
"350 703 LINE",
"244 699 OFFCURVE",
"149 697 OFFCURVE",
"50 701 CURVE",
"50 666 LINE",
"97 660 OFFCURVE",
"126 655 OFFCURVE",
"157 591 CURVE SMOOTH",
"291 316 OFFCURVE",
"391 88 OFFCURVE",
"414 -10 CURVE",
"450 -10 LINE",
"466 41 OFFCURVE",
"482 90 OFFCURVE",
"498 127 CURVE SMOOTH",
"642 452 LINE"
);
},
{
closed = 1;
nodes = (
"926 668 LINE",
"1043 661 OFFCURVE",
"1027 654 OFFCURVE",
"1007 600 CURVE SMOOTH",
"819 102 LINE",
"863 126 LINE",
"661 619 LINE SMOOTH",
"646 656 OFFCURVE",
"644 666 OFFCURVE",
"744 668 CURVE",
"744 703 LINE",
"638 699 OFFCURVE",
"553 697 OFFCURVE",
"454 701 CURVE",
"454 666 LINE",
"501 660 OFFCURVE",
"526 656 OFFCURVE",
"555 591 CURVE SMOOTH",
"669 336 OFFCURVE",
"775 88 OFFCURVE",
"798 -10 CURVE",
"834 -10 LINE",
"850 41 OFFCURVE",
"866 90 OFFCURVE",
"882 127 CURVE SMOOTH",
"1094 628 LINE SMOOTH",
"1105 653 OFFCURVE",
"1125 662 OFFCURVE",
"1161 668 CURVE",
"1161 703 LINE",
"1129 699 OFFCURVE",
"1035 697 OFFCURVE",
"926 703 CURVE"
);
}
);
width = 1177;
}
);
unicode = 0057;
},
{
color = 3;
glyphname = X;
lastChange = "2019-04-24 15:11:29 +0000";
layers = (
{
layerId = "A23182C3-7ED8-49EC-89D2-A828F09177C3";
paths = (
{
closed = 1;
nodes = (
"396 354 LINE",
"252 156 LINE SMOOTH",
"166 37 OFFCURVE",
"140 40 OFFCURVE",
"6 32 CURVE",
"6 -3 LINE",
"119 1 OFFCURVE",
"224 4 OFFCURVE",
"350 -3 CURVE",
"350 32 LINE",
"262 34 OFFCURVE",
"244 49 OFFCURVE",
"279 100 CURVE SMOOTH",
"429 317 LINE"
);
},
{
closed = 1;
nodes = (
"467 380 LINE",
"640 606 LINE SMOOTH",
"689 670 OFFCURVE",
"723 670 OFFCURVE",
"832 663 CURVE",
"832 703 LINE",
"728 699 OFFCURVE",
"635 698 OFFCURVE",
"520 703 CURVE",
"520 668 LINE",
"600 662 OFFCURVE",
"603 648 OFFCURVE",
"557 583 CURVE SMOOTH",
"438 414 LINE"
);
},
{
closed = 1;
nodes = (
"320 617 LINE SMOOTH",
"294 653 OFFCURVE",
"337 661 OFFCURVE",
"408 668 CURVE",
"408 703 LINE",
"266 696 OFFCURVE",
"104 698 OFFCURVE",
"5 703 CURVE",
"5 668 LINE",
"143 655 OFFCURVE",
"182 641 OFFCURVE",
"250 544 CURVE SMOOTH",
"570 88 LINE SMOOTH",
"607 35 OFFCURVE",
"564 36 OFFCURVE",
"492 32 CURVE",
"492 -3 LINE",
"601 0 OFFCURVE",
"758 4 OFFCURVE",
"862 -3 CURVE",
"862 32 LINE",
"740 42 OFFCURVE",
"703 82 OFFCURVE",
"622 195 CURVE SMOOTH"
);
}
);
width = 867;
},
{
associatedMasterId = "A23182C3-7ED8-49EC-89D2-A828F09177C3";
layerId = "7F2DE718-4B58-4A47-9902-CA19B30A59B3";
name = i;
width = 1080;
},
{
associatedMasterId = "A23182C3-7ED8-49EC-89D2-A828F09177C3";
layerId = "4EF6CF98-3452-4FCD-915C-B8B1CD5325AC";
name = "Jun 27 18, 15:42";
paths = (
{
closed = 1;
nodes = (
"916 58 OFFCURVE",
"891 55 OFFCURVE",
"863 55 CURVE SMOOTH",
"796 55 OFFCURVE",
"753 117 OFFCURVE",
"720 154 CURVE SMOOTH",
"659 224 OFFCURVE",
"598 325 OFFCURVE",
"574 379 CURVE",
"611 438 OFFCURVE",
"666 507 OFFCURVE",
"715 573 CURVE SMOOTH",
"768 641 OFFCURVE",
"796 650 OFFCURVE",
"926 650 CURVE",
"926 700 LINE",
"606 700 LINE",
"608 650 LINE",
"650 650 OFFCURVE",
"687 638 OFFCURVE",
"640 573 CURVE SMOOTH",
"600 521 OFFCURVE",
"567 480 OFFCURVE",
"528 437 CURVE",
"408 619 LINE",
"393 648 OFFCURVE",
"408 649 OFFCURVE",
"479 650 CURVE",
"479 700 LINE",
"30 700 LINE",
"36 636 LINE",
"39 634 LINE",
"65 643 OFFCURVE",
"111 647 OFFCURVE",
"137 647 CURVE SMOOTH",
"254 647 OFFCURVE",
"307 572 OFFCURVE",
"400 431 CURVE SMOOTH",
"455 348 LINE",
"342 203 LINE SMOOTH",
"292 138 OFFCURVE",
"195 55 OFFCURVE",
"141 55 CURVE SMOOTH",
"106 55 OFFCURVE",
"60 62 OFFCURVE",
"26 72 CURVE",
"20 69 LINE",
"20 -7 LINE",
"146 0 OFFCURVE",
"272 0 OFFCURVE",
"398 0 CURVE",
"398 58 LINE",
"306 58 OFFCURVE",
"302 61 OFFCURVE",
"320 83 CURVE SMOOTH",
"489 293 LINE",
"631 90 LINE SMOOTH",
"650 62 OFFCURVE",
"645 56 OFFCURVE",
"543 56 CURVE",
"543 0 LINE",
"943 0 LINE",
"943 64 LINE",
"939 66 LINE"
);
}
);
width = 1023;
}
);
unicode = 0058;
},
{
color = 3;
glyphname = Y;
lastChange = "2019-04-24 15:11:29 +0000";
layers = (
{
associatedMasterId = "A23182C3-7ED8-49EC-89D2-A828F09177C3";
layerId = "EBFD5314-AEB8-43B6-8C85-244D54BB13B2";
name = "May 10 18, 14:55";
width = 1016;
},
{
associatedMasterId = "A23182C3-7ED8-49EC-89D2-A828F09177C3";
background = {
paths = (
{
closed = 1;
nodes = (
"713 697 OFFCURVE",
"917 709 CURVE",
"917 679 OFFCURVE",
"913 650 OFFCURVE",
"905 622 CURVE",
"669 599 OFFCURVE",
"568 423 OFFCURVE",
"582 187 CURVE SMOOTH",
"590 65 OFFCURVE",
"610 30 OFFCURVE",
"689 44 CURVE",
"702 2 LINE",
"686 -4 OFFCURVE",
"663 -9 OFFCURVE",
"638 -9 CURVE SMOOTH",
"592 -9 OFFCURVE",
"566 2 OFFCURVE",
"535 2 CURVE SMOOTH",
"508 2 OFFCURVE",
"474 -9 OFFCURVE",
"424 -9 CURVE SMOOTH",
"397 -9 OFFCURVE",
"375 -4 OFFCURVE",
"354 5 CURVE",
"374 53 LINE",
"436 38 OFFCURVE",
"481 62 OFFCURVE",
"488 155 CURVE SMOOTH",
"510 445 OFFCURVE",
"319 588 OFFCURVE",
"187 588 CURVE SMOOTH",
"141 588 OFFCURVE",
"109 583 OFFCURVE",
"73 566 CURVE",
"48 580 OFFCURVE",
"31 601 OFFCURVE",
"20 627 CURVE",
"58 688 OFFCURVE",
"139 710 OFFCURVE",
"216 710 CURVE SMOOTH",
"367 710 OFFCURVE",
"506 594 OFFCURVE",
"561 430 CURVE",
"612 573 OFFCURVE"
);
}
);
};
layerId = "08F4D5F8-4C50-46BB-9387-CCA5BBE11114";
name = "Jun 27 18, 15:51";
paths = (
{
closed = 1;
nodes = (
"913 650 OFFCURVE",
"917 679 OFFCURVE",
"917 709 CURVE",
"713 697 OFFCURVE",
"612 573 OFFCURVE",
"561 430 CURVE",
"495 616 OFFCURVE",
"350 704 OFFCURVE",
"224 704 CURVE SMOOTH",
"122 704 OFFCURVE",
"62 659 OFFCURVE",
"40 597 CURVE",
"47 584 OFFCURVE",
"57 573 OFFCURVE",
"73 566 CURVE",
"108 586 OFFCURVE",
"158 601 OFFCURVE",
"204 601 CURVE SMOOTH",
"316 601 OFFCURVE",
"484 499 OFFCURVE",
"484 279 CURVE SMOOTH",
"484 228 OFFCURVE",
"482 169 OFFCURVE",
"478 119 CURVE SMOOTH",
"474 70 OFFCURVE",
"463 52 OFFCURVE",
"430 52 CURVE SMOOTH",
"369 52 LINE",
"362 -2 LINE",
"450 5 OFFCURVE",
"578 8 OFFCURVE",
"710 -4 CURVE",
"718 52 LINE",
"647 52 LINE SMOOTH",
"599 52 OFFCURVE",
"590 70 OFFCURVE",
"587 100 CURVE SMOOTH",
"584 133 OFFCURVE",
"582 198 OFFCURVE",
"582 273 CURVE SMOOTH",
"582 442 OFFCURVE",
"699 602 OFFCURVE",
"905 622 CURVE"
);
}
);
width = 937;
},
{
associatedMasterId = "A23182C3-7ED8-49EC-89D2-A828F09177C3";
layerId = "B1AD6A2D-4209-474B-87F0-07A71F1D2310";
name = "Jun 28 18, 09:39";
paths = (
{
closed = 1;
nodes = (
"914 701 LINE",
"909 710 LINE",
"770 709 OFFCURVE",
"609 569 OFFCURVE",
"561 385 CURVE",
"531 561 OFFCURVE",
"380 710 OFFCURVE",
"194 710 CURVE SMOOTH",
"112 710 OFFCURVE",
"46 674 OFFCURVE",
"35 596 CURVE",
"52 564 LINE",
"87 579 OFFCURVE",
"128 590 OFFCURVE",
"164 590 CURVE SMOOTH",
"306 590 OFFCURVE",
"484 499 OFFCURVE",
"484 153 CURVE SMOOTH",
"484 100 LINE",
"579 100 LINE",
"579 153 LINE SMOOTH",
"579 437 OFFCURVE",
"702 589 OFFCURVE",
"887 630 CURVE"
);
},
{
closed = 1;
nodes = (
"484 100 LINE",
"482 61 OFFCURVE",
"449 59 OFFCURVE",
"386 46 CURVE SMOOTH",
"357 40 LINE",
"357 -5 LINE",
"398 -1 OFFCURVE",
"491 1 OFFCURVE",
"557 1 CURVE SMOOTH",
"609 1 OFFCURVE",
"655 -1 OFFCURVE",
"712 -5 CURVE",
"712 42 LINE",
"664 48 LINE SMOOTH",
"596 57 OFFCURVE",
"581 60 OFFCURVE",
"579 100 CURVE"
);
}
);
width = 937;
},
{
background = {
paths = (
{
closed = 1;
nodes = (
"683 697 OFFCURVE",
"887 709 CURVE",
"887 679 OFFCURVE",
"883 650 OFFCURVE",
"875 622 CURVE",
"639 599 OFFCURVE",
"538 423 OFFCURVE",
"552 187 CURVE SMOOTH",
"560 65 OFFCURVE",
"580 30 OFFCURVE",
"659 44 CURVE",
"672 2 LINE",
"656 -4 OFFCURVE",
"633 -9 OFFCURVE",
"608 -9 CURVE SMOOTH",
"562 -9 OFFCURVE",
"536 2 OFFCURVE",
"505 2 CURVE SMOOTH",
"478 2 OFFCURVE",
"444 -9 OFFCURVE",
"394 -9 CURVE SMOOTH",
"367 -9 OFFCURVE",
"345 -4 OFFCURVE",
"324 5 CURVE",
"344 53 LINE",
"406 38 OFFCURVE",
"451 62 OFFCURVE",
"458 155 CURVE SMOOTH",
"480 445 OFFCURVE",
"289 588 OFFCURVE",
"157 588 CURVE SMOOTH",
"111 588 OFFCURVE",
"79 583 OFFCURVE",
"43 566 CURVE",
"18 580 OFFCURVE",
"1 601 OFFCURVE",
"-10 627 CURVE",
"28 688 OFFCURVE",
"109 710 OFFCURVE",
"186 710 CURVE SMOOTH",
"337 710 OFFCURVE",
"476 594 OFFCURVE",
"531 430 CURVE",
"582 573 OFFCURVE"
);
}
);
};
layerId = "A23182C3-7ED8-49EC-89D2-A828F09177C3";
paths = (
{
closed = 1;
nodes = (
"884 701 LINE",
"879 710 LINE",
"732 709 OFFCURVE",
"563 510 OFFCURVE",
"523 329 CURVE",
"538 320 LINE",
"519 565 OFFCURVE",
"294 754 OFFCURVE",
"76 695 CURVE",
"5 611 LINE",
"30 587 LINE",
"50 600 OFFCURVE",
"69 613 OFFCURVE",
"105 613 CURVE SMOOTH",
"323 613 OFFCURVE",
"461 458 OFFCURVE",
"461 203 CURVE SMOOTH",
"461 73 OFFCURVE",
"447 55 OFFCURVE",
"327 30 CURVE",
"327 -5 LINE",
"414 3 OFFCURVE",
"576 2 OFFCURVE",
"682 -5 CURVE",
"682 30 LINE",
"558 45 OFFCURVE",
"548 52 OFFCURVE",
"547 203 CURVE SMOOTH",
"546 407 OFFCURVE",
"682 589 OFFCURVE",
"867 630 CURVE"
);
}
);
width = 889;
}
);
unicode = 0059;
},
{
color = 3;
glyphname = Z;
lastChange = "2019-04-24 15:11:29 +0000";
layers = (
{
layerId = "A23182C3-7ED8-49EC-89D2-A828F09177C3";
paths = (
{
closed = 1;
nodes = (
"164 134 OFFCURVE",
"477 473 OFFCURVE",
"619 627 CURVE",
"632 617 LINE",
"303 610 LINE SMOOTH",
"137 606 OFFCURVE",
"129 575 OFFCURVE",
"37 485 CURVE",
"8 501 LINE",
"153 718 LINE",
"180 705 LINE",
"173 666 OFFCURVE",
"180 663 OFFCURVE",
"200 663 CURVE SMOOTH",
"344 663 OFFCURVE",
"539 662 OFFCURVE",
"821 666 CURVE",
"821 630 LINE",
"755 625 OFFCURVE",
"727 600 OFFCURVE",
"696 570 CURVE SMOOTH",
"565 443 OFFCURVE",
"360 226 OFFCURVE",
"187 31 CURVE",
"153 45 LINE",
"481 45 LINE SMOOTH",
"693 45 OFFCURVE",
"754 77 OFFCURVE",
"859 258 CURVE",
"893 245 LINE",
"754 -10 LINE",
"593 -4 OFFCURVE",
"202 0 OFFCURVE",
"133 0 CURVE SMOOTH",
"78 0 OFFCURVE",
"59 -4 OFFCURVE",
"25 -10 CURVE",
"5 16 LINE"
);
}
);
width = 898;
},
{
associatedMasterId = "A23182C3-7ED8-49EC-89D2-A828F09177C3";
layerId = "E2E86719-A227-4EE3-981B-36C316A1873D";
name = "May 10 18, 15:30";
width = 1016;
}
);
unicode = 005A;
},
{
color = 4;
glyphname = a;
lastChange = "2019-04-24 15:11:29 +0000";
layers = (
{
background = {
components = (
{
name = i;
transform = "{1, 0, 0, 1, 221, 0}";
}
);
};
guideLines = (
{
angle = 16;
position = "{401, 440}";
},
{
angle = 20;
position = "{330, -10}";
}
);
layerId = "A23182C3-7ED8-49EC-89D2-A828F09177C3";
paths = (
{
closed = 1;
nodes = (
"227 241 LINE SMOOTH",
"118 231 OFFCURVE",
"20 200 OFFCURVE",
"20 100 CURVE SMOOTH",
"20 30 OFFCURVE",
"76 -10 OFFCURVE",
"141 -10 CURVE SMOOTH",
"205 -10 OFFCURVE",
"289 52 OFFCURVE",
"325 122 CURVE",
"305 137 LINE",
"303 96 OFFCURVE",
"226 62 OFFCURVE",
"181 62 CURVE SMOOTH",
"137 62 OFFCURVE",
"110 83 OFFCURVE",
"110 120 CURVE SMOOTH",
"110 161 OFFCURVE",
"137 201 OFFCURVE",
"255 217 CURVE SMOOTH",
"308 224 LINE",
"307 248 LINE"
);
},
{
closed = 1;
nodes = (
"273 364 OFFCURVE",
"300 347 OFFCURVE",
"300 314 CURVE SMOOTH",
"300 232 OFFCURVE",
"304 174 OFFCURVE",
"304 94 CURVE",
"304 74 OFFCURVE",
"315 33 OFFCURVE",
"330 -10 CURVE",
"450 42 LINE",
"446 64 LINE",
"390 64 OFFCURVE",
"394 90 OFFCURVE",
"389 175 CURVE SMOOTH",
"386 224 OFFCURVE",
"387 357 OFFCURVE",
"409 421 CURVE",
"401 440 LINE",
"332 416 OFFCURVE",
"253 393 OFFCURVE",
"162 371 CURVE",
"170 344 LINE"
);
}
);
width = 455;
},
{
associatedMasterId = "A23182C3-7ED8-49EC-89D2-A828F09177C3";
layerId = "FB9719AB-8150-4847-BAF8-AF647828CF11";
name = image;
paths = (
{
closed = 1;
nodes = (
"143 342 OFFCURVE",
"150 336 OFFCURVE",
"161 336 CURVE SMOOTH",
"184 336 OFFCURVE",
"224 349 OFFCURVE",
"265 349 CURVE SMOOTH",
"307 349 OFFCURVE",
"313 328 OFFCURVE",
"313 256 CURVE SMOOTH",
"313 246 OFFCURVE",
"313 130 OFFCURVE",
"313 86 CURVE SMOOTH",
"313 37 OFFCURVE",
"323 10 OFFCURVE",
"334 -10 CURVE",
"391 0 OFFCURVE",
"425 9 OFFCURVE",
"471 25 CURVE",
"473 40 OFFCURVE",
"472 60 OFFCURVE",
"464 73 CURVE",
"444 76 LINE SMOOTH",
"414 81 OFFCURVE",
"405 124 OFFCURVE",
"405 235 CURVE SMOOTH",
"405 331 OFFCURVE",
"403 365 OFFCURVE",
"430 401 CURVE",
"430 417 OFFCURVE",
"421 431 OFFCURVE",
"398 439 CURVE",
"314 413 OFFCURVE",
"248 396 OFFCURVE",
"146 370 CURVE"
);
},
{
closed = 1;
nodes = (
"337 241 OFFCURVE",
"297 247 OFFCURVE",
"222 247 CURVE SMOOTH",
"81 247 OFFCURVE",
"15 199 OFFCURVE",
"15 114 CURVE SMOOTH",
"15 18 OFFCURVE",
"83 -11 OFFCURVE",
"136 -11 CURVE SMOOTH",
"222 -11 OFFCURVE",
"318 72 OFFCURVE",
"345 118 CURVE",
"326 155 LINE",
"299 113 OFFCURVE",
"255 69 OFFCURVE",
"190 69 CURVE SMOOTH",
"142 69 OFFCURVE",
"118 91 OFFCURVE",
"118 137 CURVE SMOOTH",
"118 195 OFFCURVE",
"198 215 OFFCURVE",
"266 215 CURVE SMOOTH",
"316 214 OFFCURVE",
"345 199 OFFCURVE",
"365 188 CURVE",
"337 241 LINE"
);
}
);
width = 510;
},
{
associatedMasterId = "A23182C3-7ED8-49EC-89D2-A828F09177C3";
guideLines = (
{
angle = 16;
position = "{333, -10}";
},
{
angle = 16;
position = "{276, 404}";
}
);
layerId = "A2C7F12A-C4AC-4573-812E-C486603C09F5";
name = "Jun 27 18, 11:14";
paths = (
{
closed = 1;
nodes = (
"157 332 LINE",
"180 334 OFFCURVE",
"257 349 OFFCURVE",
"288 356 CURVE SMOOTH",
"310 361 OFFCURVE",
"312 349 OFFCURVE",
"312 316 CURVE SMOOTH",
"312 266 OFFCURVE",
"312 130 OFFCURVE",
"312 86 CURVE SMOOTH",
"312 57 OFFCURVE",
"322 10 OFFCURVE",
"333 -10 CURVE",
"464 28 LINE",
"459 66 LINE",
"451 66 LINE SMOOTH",
"414 66 OFFCURVE",
"402 104 OFFCURVE",
"402 215 CURVE SMOOTH",
"402 312 OFFCURVE",
"403 382 OFFCURVE",
"425 412 CURVE",
"403 440 LINE",
"326 414 OFFCURVE",
"242 389 OFFCURVE",
"147 367 CURVE"
);
},
{
closed = 1;
nodes = (
"261 248 LINE SMOOTH",
"141 242 OFFCURVE",
"20 204 OFFCURVE",
"20 104 CURVE SMOOTH",
"20 18 OFFCURVE",
"82 -10 OFFCURVE",
"135 -10 CURVE SMOOTH",
"211 -10 OFFCURVE",
"302 59 OFFCURVE",
"344 118 CURVE",
"325 145 LINE",
"298 103 OFFCURVE",
"234 56 OFFCURVE",
"179 56 CURVE SMOOTH",
"139 56 OFFCURVE",
"115 77 OFFCURVE",
"115 117 CURVE SMOOTH",
"115 175 OFFCURVE",
"177 208 OFFCURVE",
"295 217 CURVE SMOOTH",
"322 219 LINE",
"322 251 LINE"
);
}
);
width = 484;
},
{
associatedMasterId = "A23182C3-7ED8-49EC-89D2-A828F09177C3";
guideLines = (
{
angle = 16;
position = "{266, 404}";
},
{
angle = 24.3765;
position = "{343, -10}";
}
);
layerId = "E6975F3D-1570-4614-9106-E416EB1BF830";
name = "Jul 4 18, 14:11";
paths = (
{
closed = 1;
nodes = (
"147 327 LINE",
"170 329 OFFCURVE",
"248 347 OFFCURVE",
"282 357 CURVE SMOOTH",
"300 363 OFFCURVE",
"302 349 OFFCURVE",
"302 316 CURVE SMOOTH",
"302 266 OFFCURVE",
"302 130 OFFCURVE",
"302 86 CURVE SMOOTH",
"302 57 OFFCURVE",
"306 -10 OFFCURVE",
"343 -10 CURVE",
"357 -10 OFFCURVE",
"422 23 OFFCURVE",
"454 40 CURVE",
"449 78 LINE",
"441 78 LINE SMOOTH",
"404 78 OFFCURVE",
"392 104 OFFCURVE",
"392 215 CURVE SMOOTH",
"392 312 OFFCURVE",
"393 382 OFFCURVE",
"415 412 CURVE",
"393 440 LINE",
"316 414 OFFCURVE",
"232 389 OFFCURVE",
"137 367 CURVE"
);
},
{
closed = 1;
nodes = (
"251 248 LINE SMOOTH",
"131 242 OFFCURVE",
"10 204 OFFCURVE",
"10 104 CURVE SMOOTH",
"10 18 OFFCURVE",
"72 -10 OFFCURVE",
"125 -10 CURVE SMOOTH",
"201 -10 OFFCURVE",
"292 59 OFFCURVE",
"334 118 CURVE",
"315 145 LINE",
"288 103 OFFCURVE",
"224 56 OFFCURVE",
"169 56 CURVE SMOOTH",
"129 56 OFFCURVE",
"105 77 OFFCURVE",
"105 117 CURVE SMOOTH",
"105 175 OFFCURVE",
"167 208 OFFCURVE",
"285 217 CURVE SMOOTH",
"312 219 LINE",
"312 251 LINE"
);
}
);
width = 474;
}
);
unicode = 0061;
},
{
color = 4;
glyphname = a_macr;
lastChange = "2019-03-27 15:28:05 +0000";
layers = (
{
components = (
{
alignment = -1;
name = a;
}
);
layerId = "A23182C3-7ED8-49EC-89D2-A828F09177C3";
paths = (
{
closed = 1;
nodes = (
"172 464 LINE",
"197 491 OFFCURVE",
"219 498 OFFCURVE",
"253 498 CURVE SMOOTH",
"288 498 OFFCURVE",
"302 494 OFFCURVE",
"338 494 CURVE",
"378 522 OFFCURVE",
"407 554 OFFCURVE",
"451 604 CURVE",
"427 623 LINE",
"395 592 OFFCURVE",
"374 565 OFFCURVE",
"343 565 CURVE SMOOTH",
"300 565 OFFCURVE",
"287 572 OFFCURVE",
"243 572 CURVE",
"204 540 OFFCURVE",
"182 517 OFFCURVE",
"151 488 CURVE"
);
}
);
width = 456;
}
);
leftMetricsKey = a;
rightMetricsKey = a;
unicode = 0101;
},
{
color = 4;
glyphname = b;
lastChange = "2019-04-24 15:11:29 +0000";
layers = (
{
associatedMasterId = "A23182C3-7ED8-49EC-89D2-A828F09177C3";
layerId = "E2012BED-6CBF-4A39-B99B-D55F27D234B0";
name = Image;
width = 600;
},
{
guideLines = (
{
angle = 16;
position = "{344, 463}";
}
);
layerId = "A23182C3-7ED8-49EC-89D2-A828F09177C3";
paths = (
{
closed = 1;
nodes = (
"67 16 OFFCURVE",
"117 -10 OFFCURVE",
"177 -10 CURVE SMOOTH",
"301 -10 OFFCURVE",
"456 87 OFFCURVE",
"456 245 CURVE SMOOTH",
"456 387 OFFCURVE",
"338 442 OFFCURVE",
"290 442 CURVE SMOOTH",
"262 442 OFFCURVE",
"175 419 OFFCURVE",
"100 396 CURVE",
"111 370 LINE",
"245 395 OFFCURVE",
"372 362 OFFCURVE",
"372 207 CURVE SMOOTH",
"372 125 OFFCURVE",
"326 53 OFFCURVE",
"250 53 CURVE SMOOTH",
"164 53 OFFCURVE",
"134 81 OFFCURVE",
"134 319 CURVE SMOOTH",
"134 559 OFFCURVE",
"136 651 OFFCURVE",
"139 708 CURVE",
"5 700 LINE",
"5 670 LINE",
"38 658 OFFCURVE",
"50 651 OFFCURVE",
"50 608 CURVE SMOOTH",
"50 459 OFFCURVE",
"48 130 OFFCURVE",
"49 31 CURVE"
);
}
);
width = 486;
},
{
associatedMasterId = "A23182C3-7ED8-49EC-89D2-A828F09177C3";
guideLines = (
{
angle = 16;
position = "{326, 440}";
},
{
angle = 16;
position = "{188, 710}";
},
{
angle = 21.376;
position = "{189, -10}";
}
);
layerId = "95042700-7168-4CC9-B669-02881996CE92";
name = "Jul 4 18, 17:04";
paths = (
{
closed = 1;
nodes = (
"61 30 OFFCURVE",
"139 -10 OFFCURVE",
"189 -10 CURVE SMOOTH",
"284 -10 OFFCURVE",
"394 60 OFFCURVE",
"432 96 CURVE SMOOTH",
"458 120 OFFCURVE",
"474 168 OFFCURVE",
"474 245 CURVE SMOOTH",
"474 355 OFFCURVE",
"406 440 OFFCURVE",
"326 440 CURVE SMOOTH",
"301 440 OFFCURVE",
"148 390 OFFCURVE",
"102 371 CURVE",
"111 323 LINE",
"132 345 OFFCURVE",
"200 375 OFFCURVE",
"238 375 CURVE SMOOTH",
"316 375 OFFCURVE",
"379 302 OFFCURVE",
"379 205 CURVE SMOOTH",
"379 130 OFFCURVE",
"335 56 OFFCURVE",
"282 56 CURVE SMOOTH",
"225 56 OFFCURVE",
"147 99 OFFCURVE",
"147 159 CURVE SMOOTH",
"147 269 OFFCURVE",
"158 653 OFFCURVE",
"187 680 CURVE",
"177 710 LINE",
"125 703 OFFCURVE",
"76 701 OFFCURVE",
"17 700 CURVE",
"17 660 LINE",
"50 660 OFFCURVE",
"61 628 OFFCURVE",
"61 598 CURVE SMOOTH",
"61 449 OFFCURVE",
"65 279 OFFCURVE",
"61 110 CURVE"
);
}
);
width = 508;
},
{
associatedMasterId = "A23182C3-7ED8-49EC-89D2-A828F09177C3";
guideLines = (
{
angle = 16;
position = "{176, 710}";
},
{
angle = 16;
position = "{314, 440}";
},
{
angle = 20;
position = "{167, -10}";
}
);
layerId = "C5D47E55-F2E4-4B06-9415-FA92BB069FD8";
name = "Aug 24 18, 17:43";
paths = (
{
closed = 1;
nodes = (
"58 40 OFFCURVE",
"117 -10 OFFCURVE",
"167 -10 CURVE SMOOTH",
"192 -10 OFFCURVE",
"295 26 OFFCURVE",
"356 55 CURVE SMOOTH",
"418 84 OFFCURVE",
"462 148 OFFCURVE",
"462 235 CURVE SMOOTH",
"462 315 OFFCURVE",
"417 416 OFFCURVE",
"314 440 CURVE",
"90 376 LINE",
"99 337 LINE",
"130 352 OFFCURVE",
"178 365 OFFCURVE",
"216 365 CURVE SMOOTH",
"296 365 OFFCURVE",
"367 295 OFFCURVE",
"367 205 CURVE SMOOTH",
"367 135 OFFCURVE",
"310 65 OFFCURVE",
"260 65 CURVE SMOOTH",
"210 65 OFFCURVE",
"145 110 OFFCURVE",
"145 170 CURVE SMOOTH",
"145 208 OFFCURVE",
"145 406 OFFCURVE",
"145 440 CURVE SMOOTH",
"145 618 OFFCURVE",
"162 680 OFFCURVE",
"171 690 CURVE",
"161 710 LINE",
"15 700 LINE",
"15 660 LINE",
"48 660 OFFCURVE",
"60 628 OFFCURVE",
"60 598 CURVE SMOOTH",
"60 449 OFFCURVE",
"64 239 OFFCURVE",
"60 90 CURVE"
);
}
);
width = 492;
}
);
rightMetricsKey = o;
unicode = 0062;
},
{
color = 4;
glyphname = c;
lastChange = "2019-04-24 15:11:29 +0000";
layers = (
{
guideLines = (
{
angle = 219.4007;
position = "{325, 382}";
}
);
layerId = "A23182C3-7ED8-49EC-89D2-A828F09177C3";
paths = (
{
closed = 1;
nodes = (
"313 433 OFFCURVE",
"280 440 OFFCURVE",
"243 440 CURVE SMOOTH",
"209 440 OFFCURVE",
"143 396 OFFCURVE",
"126 381 CURVE SMOOTH",
"86 346 OFFCURVE",
"40 270 OFFCURVE",
"40 172 CURVE SMOOTH",
"40 62 OFFCURVE",
"86 -10 OFFCURVE",
"186 -10 CURVE SMOOTH",
"258 -10 OFFCURVE",
"327 41 OFFCURVE",
"360 72 CURVE",
"347 93 LINE",
"321 77 OFFCURVE",
"282 65 OFFCURVE",
"236 65 CURVE SMOOTH",
"156 65 OFFCURVE",
"117 137 OFFCURVE",
"117 217 CURVE SMOOTH",
"117 340 OFFCURVE",
"180 373 OFFCURVE",
"191 387 CURVE",
"139 359 LINE",
"190 365 OFFCURVE",
"242 362 OFFCURVE",
"293 348 CURVE",
"367 406 LINE",
"367 423 LINE"
);
}
);
width = 370;
},
{
associatedMasterId = "A23182C3-7ED8-49EC-89D2-A828F09177C3";
layerId = "728AEC76-BAAB-4939-9CBA-C9F2BA84D589";
name = image;
width = 380;
},
{
associatedMasterId = "A23182C3-7ED8-49EC-89D2-A828F09177C3";
layerId = "E962B5AD-F3E0-4944-8C5E-49BE64949491";
name = "Jun 22 18, 10:03";
paths = (
{
closed = 1;
nodes = (
"344 435 OFFCURVE",
"301 440 OFFCURVE",
"272 440 CURVE SMOOTH",
"226 440 OFFCURVE",
"131 394 OFFCURVE",
"113 381 CURVE SMOOTH",
"71 348 OFFCURVE",
"18 280 OFFCURVE",
"20 182 CURVE SMOOTH",
"22 64 OFFCURVE",
"97 -10 OFFCURVE",
"183 -10 CURVE SMOOTH",
"230 -10 OFFCURVE",
"321 34 OFFCURVE",
"352 73 CURVE",
"332 102 LINE",
"313 88 OFFCURVE",
"279 70 OFFCURVE",
"238 70 CURVE SMOOTH",
"202 70 OFFCURVE",
"173 89 OFFCURVE",
"151 113 CURVE SMOOTH",
"128 139 OFFCURVE",
"115 182 OFFCURVE",
"115 227 CURVE SMOOTH",
"115 330 OFFCURVE",
"167 373 OFFCURVE",
"178 387 CURVE",
"126 359 LINE",
"179 359 OFFCURVE",
"217 357 OFFCURVE",
"267 347 CURVE",
"354 416 LINE",
"354 433 LINE"
);
}
);
width = 419;
}
);
unicode = 0063;
},
{
color = 4;
glyphname = c_t;
lastChange = "2019-04-24 15:11:29 +0000";
layers = (
{
layerId = "A23182C3-7ED8-49EC-89D2-A828F09177C3";
paths = (
{
closed = 1;
nodes = (
"741 80 OFFCURVE",
"713 67 OFFCURVE",
"672 67 CURVE SMOOTH",
"627 67 OFFCURVE",
"616 103 OFFCURVE",
"617 166 CURVE SMOOTH",
"618 237 OFFCURVE",
"614 302 OFFCURVE",
"621 373 CURVE",
"664 378 OFFCURVE",
"701 376 OFFCURVE",
"752 369 CURVE",
"751 437 LINE",
"705 430 OFFCURVE",
"670 428 OFFCURVE",
"624 428 CURVE",
"627 515 LINE SMOOTH",
"630 590 OFFCURVE",
"577 659 OFFCURVE",
"476 659 CURVE SMOOTH",
"366 659 OFFCURVE",
"304 601 OFFCURVE",
"304 513 CURVE SMOOTH",
"304 487 OFFCURVE",
"314 456 OFFCURVE",
"324 425 CURVE",
"300 440 OFFCURVE",
"276 443 OFFCURVE",
"260 442 CURVE SMOOTH",
"168 436 OFFCURVE",
"40 315 OFFCURVE",
"40 196 CURVE SMOOTH",
"40 75 OFFCURVE",
"105 -4 OFFCURVE",
"211 -9 CURVE",
"273 -6 OFFCURVE",
"380 75 OFFCURVE",
"412 107 CURVE",
"393 128 LINE",
"347 93 OFFCURVE",
"302 67 OFFCURVE",
"254 67 CURVE SMOOTH",
"174 67 OFFCURVE",
"119 133 OFFCURVE",
"119 227 CURVE SMOOTH",
"119 281 OFFCURVE",
"131 329 OFFCURVE",
"172 366 CURVE",
"224 383 OFFCURVE",
"291 351 OFFCURVE",
"318 317 CURVE",
"386 382 LINE",
"359 414 OFFCURVE",
"345 455 OFFCURVE",
"345 505 CURVE SMOOTH",
"345 564 OFFCURVE",
"397 598 OFFCURVE",
"444 598 CURVE SMOOTH",
"511 598 OFFCURVE",
"549 552 OFFCURVE",
"545 462 CURVE SMOOTH",
"539 337 OFFCURVE",
"540 211 OFFCURVE",
"530 86 CURVE SMOOTH",
"526 37 OFFCURVE",
"571 -9 OFFCURVE",
"629 -9 CURVE SMOOTH",
"673 -9 OFFCURVE",
"727 33 OFFCURVE",
"775 70 CURVE",
"765 90 LINE"
);
}
);
width = 781;
},
{
associatedMasterId = "A23182C3-7ED8-49EC-89D2-A828F09177C3";
background = {
paths = (
{
closed = 1;
nodes = (
"383 393 OFFCURVE",
"329 437 OFFCURVE",
"257 437 CURVE SMOOTH",
"206 437 OFFCURVE",
"157 415 OFFCURVE",
"114 373 CURVE SMOOTH",
"70 330 OFFCURVE",
"36 271 OFFCURVE",
"36 183 CURVE SMOOTH",
"36 62 OFFCURVE",
"100 -11 OFFCURVE",
"185 -11 CURVE SMOOTH",
"271 -11 OFFCURVE",
"343 63 OFFCURVE",
"370 128 CURVE",
"357 153 LINE",
"328 104 OFFCURVE",
"294 86 OFFCURVE",
"254 86 CURVE SMOOTH",
"180 86 OFFCURVE",
"122 147 OFFCURVE",
"122 240 CURVE SMOOTH",
"122 323 OFFCURVE",
"169 361 OFFCURVE",
"231 361 CURVE SMOOTH",
"290 361 OFFCURVE",
"322 327 OFFCURVE",
"355 294 CURVE",
"383 393 LINE"
);
}
);
};
layerId = "728AEC76-BAAB-4939-9CBA-C9F2BA84D589";
name = image;
width = 834;
},
{
associatedMasterId = "A23182C3-7ED8-49EC-89D2-A828F09177C3";
layerId = "ECB460A9-9104-4065-B89A-ED5D983B9123";
name = "Aug 24 18, 18:41";
paths = (
{
closed = 1;
nodes = (
"348 417 OFFCURVE",
"300 440 OFFCURVE",
"261 440 CURVE SMOOTH",
"215 440 OFFCURVE",
"132 385 OFFCURVE",
"114 365 CURVE SMOOTH",
"65 310 OFFCURVE",
"32 237 OFFCURVE",
"35 162 CURVE SMOOTH",
"39 51 OFFCURVE",
"95 -9 OFFCURVE",
"189 -9 CURVE SMOOTH",
"241 -9 OFFCURVE",
"362 43 OFFCURVE",
"428 102 CURVE",
"405 133 LINE",
"348 94 OFFCURVE",
"300 70 OFFCURVE",
"242 70 CURVE SMOOTH",
"185 70 OFFCURVE",
"134 137 OFFCURVE",
"131 223 CURVE SMOOTH",
"129 276 OFFCURVE",
"140 360 OFFCURVE",
"197 360 CURVE SMOOTH",
"244 360 OFFCURVE",
"280 341 OFFCURVE",
"322 307 CURVE",
"394 371 LINE"
);
},
{
closed = 1;
nodes = (
"648 571 OFFCURVE",
"581 640 OFFCURVE",
"516 640 CURVE SMOOTH",
"386 640 OFFCURVE",
"295 568 OFFCURVE",
"299 471 CURVE SMOOTH",
"301 421 OFFCURVE",
"313 403 OFFCURVE",
"345 375 CURVE",
"385 376 LINE",
"360 408 OFFCURVE",
"351 448 OFFCURVE",
"350 477 CURVE SMOOTH",
"347 557 OFFCURVE",
"401 579 OFFCURVE",
"438 579 CURVE SMOOTH",
"498 579 OFFCURVE",
"552 520 OFFCURVE",
"554 458 CURVE SMOOTH",
"556 403 OFFCURVE",
"532 162 OFFCURVE",
"534 84 CURVE SMOOTH",
"536 20 OFFCURVE",
"599 -9 OFFCURVE",
"648 -9 CURVE SMOOTH",
"683 -9 OFFCURVE",
"751 29 OFFCURVE",
"790 66 CURVE",
"777 87 LINE",
"758 78 OFFCURVE",
"730 70 OFFCURVE",
"692 70 CURVE SMOOTH",
"638 70 OFFCURVE",
"632 107 OFFCURVE",
"629 181 CURVE SMOOTH",
"626 263 OFFCURVE",
"652 407 OFFCURVE",
"649 530 CURVE SMOOTH"
);
},
{
closed = 1;
nodes = (
"570 371 LINE",
"775 371 LINE",
"773 440 LINE",
"569 422 LINE"
);
}
);
width = 790;
}
);
leftMetricsKey = c;
rightMetricsKey = t;
unicode = EEC5;
},
{
color = 4;
glyphname = d;
lastChange = "2019-04-24 15:11:29 +0000";
layers = (
{
guideLines = (
{
angle = 20;
position = "{321, -10}";
}
);
layerId = "A23182C3-7ED8-49EC-89D2-A828F09177C3";
paths = (
{
closed = 1;
nodes = (
"204 669 LINE",
"276 669 OFFCURVE",
"299 649 OFFCURVE",
"301 594 CURVE SMOOTH",
"308 443 OFFCURVE",
"312 235 OFFCURVE",
"312 81 CURVE",
"319 -8 LINE",
"323 -12 LINE",
"450 35 LINE",
"448 61 LINE",
"412 77 OFFCURVE",
"400 92 OFFCURVE",
"397 186 CURVE SMOOTH",
"388 474 OFFCURVE",
"405 710 OFFCURVE",
"405 710 CURVE",
"352 704 OFFCURVE",
"281 700 OFFCURVE",
"204 700 CURVE"
);
},
{
closed = 1;
nodes = (
"308 430 OFFCURVE",
"267 435 OFFCURVE",
"225 435 CURVE SMOOTH",
"137 435 OFFCURVE",
"30 316 OFFCURVE",
"30 176 CURVE SMOOTH",
"30 76 OFFCURVE",
"104 -10 OFFCURVE",
"204 -10 CURVE",
"231 10 OFFCURVE",
"270 37 OFFCURVE",
"321 85 CURVE",
"319 106 LINE",
"210 44 OFFCURVE",
"91 96 OFFCURVE",
"91 228 CURVE SMOOTH",
"91 317 OFFCURVE",
"145 369 OFFCURVE",
"210 369 CURVE SMOOTH",
"254 369 OFFCURVE",
"287 360 OFFCURVE",
"319 333 CURVE",
"336 426 LINE"
);
}
);
width = 459;
},
{
associatedMasterId = "A23182C3-7ED8-49EC-89D2-A828F09177C3";
layerId = "9D0E4CD5-5E86-4612-AD6C-251C517030C9";
name = Image;
width = 560;
},
{
associatedMasterId = "A23182C3-7ED8-49EC-89D2-A828F09177C3";
layerId = "54B3B5B0-43A4-4729-86E7-4248D4C7E38C";
name = "May 14 18, 10:12";
paths = (
{
closed = 1;
nodes = (
"363 393 OFFCURVE",
"309 437 OFFCURVE",
"237 437 CURVE SMOOTH",
"186 437 OFFCURVE",
"137 415 OFFCURVE",
"94 373 CURVE SMOOTH",
"50 330 OFFCURVE",
"7 261 OFFCURVE",
"7 173 CURVE SMOOTH",
"7 52 OFFCURVE",
"80 -10 OFFCURVE",
"165 -10 CURVE SMOOTH",
"251 -10 OFFCURVE",
"323 63 OFFCURVE",
"350 128 CURVE",
"337 153 LINE",
"308 97 OFFCURVE",
"274 70 OFFCURVE",
"227 70 CURVE SMOOTH",
"155 70 OFFCURVE",
"102 125 OFFCURVE",
"102 222 CURVE SMOOTH",
"102 313 OFFCURVE",
"149 361 OFFCURVE",
"211 361 CURVE SMOOTH",
"270 361 OFFCURVE",
"302 327 OFFCURVE",
"335 294 CURVE",
"363 393 LINE"
);
},
{
closed = 1;
nodes = (
"201 665 OFFCURVE",
"203 648 OFFCURVE",
"211 632 CURVE",
"227 634 OFFCURVE",
"240 636 OFFCURVE",
"255 636 CURVE SMOOTH",
"282 636 OFFCURVE",
"302 630 OFFCURVE",
"304 592 CURVE SMOOTH",
"320 196 OFFCURVE",
"323 143 OFFCURVE",
"314 91 CURVE",
"319 78 LINE",
"319 -16 LINE",
"332 -28 LINE",
"429 35 LINE",
"429 66 LINE",
"425 75 OFFCURVE",
"407 105 OFFCURVE",
"401 165 CURVE SMOOTH",
"398 195 OFFCURVE",
"394 274 OFFCURVE",
"394 345 CURVE SMOOTH",
"394 416 OFFCURVE",
"398 672 OFFCURVE",
"404 696 CURVE",
"396 704 OFFCURVE",
"387 711 OFFCURVE",
"377 717 CURVE",
"318 700 OFFCURVE",
"271 693 OFFCURVE",
"202 681 CURVE"
);
}
);
width = 447;
},
{
associatedMasterId = "A23182C3-7ED8-49EC-89D2-A828F09177C3";
guideLines = (
{
angle = 16;
position = "{423, 710}";
},
{
angle = 24.3765;
position = "{348, -29}";
}
);
layerId = "2CF0BBC5-9A80-4DBF-8310-440333854B2E";
name = "Jun 27 18, 17:15";
paths = (
{
closed = 1;
nodes = (
"241 645 LINE",
"254 645 LINE SMOOTH",
"319 645 OFFCURVE",
"332 621 OFFCURVE",
"332 594 CURVE SMOOTH",
"332 423 OFFCURVE",
"349 245 OFFCURVE",
"344 81 CURVE",
"345 46 OFFCURVE",
"350 14 OFFCURVE",
"357 -15 CURVE",
"367 -20 LINE",
"469 26 LINE",
"469 56 LINE",
"444 68 OFFCURVE",
"435 152 OFFCURVE",
"433 216 CURVE SMOOTH",
"428 373 OFFCURVE",
"409 648 OFFCURVE",
"437 680 CURVE",
"423 710 LINE",
"365 701 OFFCURVE",
"305 694 OFFCURVE",
"241 690 CURVE"
);
},
{
closed = 1;
nodes = (
"382 396 OFFCURVE",
"350 440 OFFCURVE",
"288 440 CURVE SMOOTH",
"138 440 OFFCURVE",
"30 313 OFFCURVE",
"30 163 CURVE SMOOTH",
"30 73 OFFCURVE",
"76 -10 OFFCURVE",
"196 -10 CURVE SMOOTH",
"232 -10 OFFCURVE",
"345 36 OFFCURVE",
"389 89 CURVE",
"363 124 LINE",
"347 97 OFFCURVE",
"308 56 OFFCURVE",
"258 56 CURVE SMOOTH",
"168 56 OFFCURVE",
"125 140 OFFCURVE",
"125 230 CURVE SMOOTH",
"125 323 OFFCURVE",
"160 375 OFFCURVE",
"242 375 CURVE SMOOTH",
"301 375 OFFCURVE",
"367 332 OFFCURVE",
"382 233 CURVE",
"397 381 LINE"
);
}
);
width = 499;
},
{
associatedMasterId = "A23182C3-7ED8-49EC-89D2-A828F09177C3";
guideLines = (
{
angle = 16;
position = "{363, -10}";
}
);
layerId = "4CF69FF3-B22D-4E49-9BB8-9A8E153C29D3";
name = "Jul 4 18, 16:20";
paths = (
{
closed = 1;
nodes = (
"246 659 LINE",
"259 659 LINE SMOOTH",
"324 659 OFFCURVE",
"335 641 OFFCURVE",
"337 594 CURVE SMOOTH",
"344 443 OFFCURVE",
"348 245 OFFCURVE",
"348 81 CURVE SMOOTH",
"348 46 OFFCURVE",
"355 9 OFFCURVE",
"363 -10 CURVE",
"470 21 LINE",
"470 51 LINE",
"444 73 OFFCURVE",
"435 152 OFFCURVE",
"433 216 CURVE SMOOTH",
"428 373 OFFCURVE",
"418 648 OFFCURVE",
"446 680 CURVE",
"436 710 LINE",
"246 700 LINE"
);
},
{
closed = 1;
nodes = (
"382 396 OFFCURVE",
"350 440 OFFCURVE",
"288 440 CURVE SMOOTH",
"138 440 OFFCURVE",
"30 313 OFFCURVE",
"30 163 CURVE SMOOTH",
"30 73 OFFCURVE",
"76 -10 OFFCURVE",
"196 -10 CURVE SMOOTH",
"232 -10 OFFCURVE",
"345 36 OFFCURVE",
"389 89 CURVE",
"363 124 LINE",
"347 97 OFFCURVE",
"306 75 OFFCURVE",
"256 75 CURVE SMOOTH",
"186 75 OFFCURVE",
"125 140 OFFCURVE",
"125 230 CURVE SMOOTH",
"125 323 OFFCURVE",
"160 375 OFFCURVE",
"222 375 CURVE SMOOTH",
"291 375 OFFCURVE",
"367 332 OFFCURVE",
"382 233 CURVE",
"397 381 LINE"
);
}
);
width = 500;
},
{
associatedMasterId = "A23182C3-7ED8-49EC-89D2-A828F09177C3";
guideLines = (
{
angle = 16;
position = "{363, -10}";
}
);
layerId = "B2522B2E-BA77-4034-A08E-C78FD635A1AE";
name = "Jul 4 18, 17:11";
paths = (
{
closed = 1;
nodes = (
"246 659 LINE",
"259 659 LINE SMOOTH",
"324 659 OFFCURVE",
"335 641 OFFCURVE",
"337 594 CURVE SMOOTH",
"344 443 OFFCURVE",
"348 245 OFFCURVE",
"348 81 CURVE",
"363 -10 LINE",
"470 21 LINE",
"470 51 LINE",
"444 73 OFFCURVE",
"435 152 OFFCURVE",
"433 216 CURVE SMOOTH",
"428 373 OFFCURVE",
"418 648 OFFCURVE",
"446 680 CURVE",
"436 710 LINE",
"246 700 LINE"
);
},
{
closed = 1;
nodes = (
"382 396 OFFCURVE",
"350 440 OFFCURVE",
"288 440 CURVE SMOOTH",
"138 440 OFFCURVE",
"30 323 OFFCURVE",
"30 183 CURVE SMOOTH",
"30 63 OFFCURVE",
"96 -10 OFFCURVE",
"226 -10 CURVE",
"389 83 LINE",
"363 118 LINE",
"347 91 OFFCURVE",
"306 75 OFFCURVE",
"266 75 CURVE SMOOTH",
"196 75 OFFCURVE",
"125 140 OFFCURVE",
"125 240 CURVE SMOOTH",
"125 323 OFFCURVE",
"160 375 OFFCURVE",
"222 375 CURVE SMOOTH",
"281 375 OFFCURVE",
"367 332 OFFCURVE",
"382 233 CURVE",
"397 381 LINE"
);
}
);
width = 500;
},
{
associatedMasterId = "A23182C3-7ED8-49EC-89D2-A828F09177C3";
guideLines = (
{
angle = 16;
position = "{363, -10}";
}
);
layerId = "A5090A82-F1B2-497C-9470-872EA7AE54EA";
name = "Jul 4 18, 17:49";
paths = (
{
closed = 1;
nodes = (
"246 659 LINE",
"259 659 LINE SMOOTH",
"324 659 OFFCURVE",
"335 641 OFFCURVE",
"337 594 CURVE SMOOTH",
"344 443 OFFCURVE",
"348 245 OFFCURVE",
"348 81 CURVE",
"359 -6 LINE",
"363 -10 LINE",
"486 35 LINE",
"480 65 LINE",
"451 85 OFFCURVE",
"436 122 OFFCURVE",
"433 216 CURVE SMOOTH",
"428 373 OFFCURVE",
"418 648 OFFCURVE",
"446 680 CURVE",
"441 710 LINE",
"246 700 LINE"
);
},
{
closed = 1;
nodes = (
"382 396 OFFCURVE",
"350 440 OFFCURVE",
"288 440 CURVE SMOOTH",
"158 440 OFFCURVE",
"30 320 OFFCURVE",
"30 190 CURVE SMOOTH",
"30 70 OFFCURVE",
"96 -10 OFFCURVE",
"226 -10 CURVE",
"389 80 LINE",
"365 128 LINE",
"349 102 OFFCURVE",
"305 65 OFFCURVE",
"273 65 CURVE SMOOTH",
"196 65 OFFCURVE",
"125 130 OFFCURVE",
"125 230 CURVE SMOOTH",
"125 313 OFFCURVE",
"160 365 OFFCURVE",
"222 365 CURVE SMOOTH",
"281 365 OFFCURVE",
"367 332 OFFCURVE",
"382 233 CURVE",
"397 381 LINE"
);
}
);
width = 492;
}
);
leftMetricsKey = o;
unicode = 0064;
},
{
color = 4;
glyphname = d_strok;
lastChange = "2019-01-08 14:53:43 +0000";
layers = (
{
components = (
{
name = d;
}
);
layerId = "A23182C3-7ED8-49EC-89D2-A828F09177C3";
paths = (
{
closed = 1;
nodes = (
"71 514 LINE",
"172 498 OFFCURVE",
"281 485 OFFCURVE",
"372 485 CURVE SMOOTH",
"485 485 OFFCURVE",
"527 505 OFFCURVE",
"527 550 CURVE SMOOTH",
"527 595 OFFCURVE",
"478 634 OFFCURVE",
"442 650 CURVE",
"423 631 LINE",
"470 564 OFFCURVE",
"444 529 OFFCURVE",
"355 529 CURVE SMOOTH",
"266 529 OFFCURVE",
"117 540 OFFCURVE",
"77 545 CURVE"
);
}
);
width = 457;
},
{
associatedMasterId = "A23182C3-7ED8-49EC-89D2-A828F09177C3";
background = {
paths = (
{
closed = 1;
nodes = (
"171 500 LINE",
"232 515 OFFCURVE",
"340 508 OFFCURVE",
"456 517 CURVE SMOOTH",
"483 519 OFFCURVE",
"517 570 OFFCURVE",
"531 596 CURVE",
"489 618 LINE",
"469 591 OFFCURVE",
"429 568 OFFCURVE",
"378 564 CURVE",
"362 564 OFFCURVE",
"231 561 OFFCURVE",
"170 561 CURVE"
);
},
{
closed = 1;
nodes = (
"363 393 OFFCURVE",
"309 437 OFFCURVE",
"237 437 CURVE SMOOTH",
"186 437 OFFCURVE",
"137 415 OFFCURVE",
"94 373 CURVE SMOOTH",
"50 330 OFFCURVE",
"16 271 OFFCURVE",
"16 183 CURVE SMOOTH",
"16 62 OFFCURVE",
"80 -11 OFFCURVE",
"165 -11 CURVE SMOOTH",
"251 -11 OFFCURVE",
"323 63 OFFCURVE",
"350 128 CURVE",
"337 153 LINE",
"308 97 OFFCURVE",
"274 76 OFFCURVE",
"227 76 CURVE SMOOTH",
"155 76 OFFCURVE",
"102 135 OFFCURVE",
"102 232 CURVE SMOOTH",
"102 323 OFFCURVE",
"149 361 OFFCURVE",
"211 361 CURVE SMOOTH",
"270 361 OFFCURVE",
"302 327 OFFCURVE",
"335 294 CURVE",
"363 393 LINE"
);
},
{
closed = 1;
nodes = (
"201 665 OFFCURVE",
"203 648 OFFCURVE",
"211 632 CURVE",
"227 634 OFFCURVE",
"240 636 OFFCURVE",
"255 636 CURVE SMOOTH",
"282 636 OFFCURVE",
"302 630 OFFCURVE",
"304 592 CURVE SMOOTH",
"320 196 OFFCURVE",
"323 143 OFFCURVE",
"314 91 CURVE",
"319 78 LINE",
"319 -16 LINE",
"323 -21 OFFCURVE",
"327 -25 OFFCURVE",
"332 -28 CURVE",
"369 -8 OFFCURVE",
"402 13 OFFCURVE",
"427 35 CURVE",
"429 66 LINE",
"425 75 OFFCURVE",
"407 105 OFFCURVE",
"401 165 CURVE SMOOTH",
"398 195 OFFCURVE",
"394 274 OFFCURVE",
"394 345 CURVE SMOOTH",
"394 386 OFFCURVE",
"395 488 OFFCURVE",
"398 572 CURVE SMOOTH",
"399 634 OFFCURVE",
"401 686 OFFCURVE",
"404 696 CURVE",
"396 704 OFFCURVE",
"387 711 OFFCURVE",
"377 717 CURVE",
"318 700 OFFCURVE",
"271 693 OFFCURVE",
"202 681 CURVE"
);
}
);
};
layerId = "09CD6A4C-46C7-4DF2-AE74-05321C40D37D";
name = "Aug 24 18, 18:02";
paths = (
{
closed = 1;
nodes = (
"171 500 LINE",
"232 515 OFFCURVE",
"340 508 OFFCURVE",
"456 517 CURVE SMOOTH",
"483 519 OFFCURVE",
"517 570 OFFCURVE",
"531 596 CURVE",
"489 618 LINE",
"469 591 OFFCURVE",
"429 568 OFFCURVE",
"378 564 CURVE",
"362 564 OFFCURVE",
"231 561 OFFCURVE",
"170 561 CURVE"
);
},
{
closed = 1;
nodes = (
"270 678 LINE",
"291 650 OFFCURVE",
"304 607 OFFCURVE",
"304 554 CURVE SMOOTH",
"304 158 OFFCURVE",
"323 143 OFFCURVE",
"314 91 CURVE",
"319 78 LINE",
"319 -16 LINE",
"323 -21 OFFCURVE",
"327 -25 OFFCURVE",
"332 -28 CURVE",
"369 -8 OFFCURVE",
"402 13 OFFCURVE",
"427 35 CURVE",
"429 66 LINE",
"425 75 OFFCURVE",
"407 105 OFFCURVE",
"401 165 CURVE SMOOTH",
"398 195 OFFCURVE",
"394 274 OFFCURVE",
"394 345 CURVE SMOOTH",
"394 386 OFFCURVE",
"395 488 OFFCURVE",
"398 572 CURVE SMOOTH",
"399 634 OFFCURVE",
"401 686 OFFCURVE",
"404 696 CURVE",
"396 704 OFFCURVE",
"387 711 OFFCURVE",
"377 717 CURVE",
"274 698 LINE"
);
},
{
closed = 1;
nodes = (
"376 421 OFFCURVE",
"358 440 OFFCURVE",
"286 440 CURVE SMOOTH",
"146 440 OFFCURVE",
"20 293 OFFCURVE",
"20 173 CURVE SMOOTH",
"20 62 OFFCURVE",
"89 -10 OFFCURVE",
"204 -10 CURVE SMOOTH",
"230 -10 OFFCURVE",
"336 45 OFFCURVE",
"371 94 CURVE",
"347 131 LINE",
"336 93 OFFCURVE",
"293 70 OFFCURVE",
"256 70 CURVE SMOOTH",
"184 70 OFFCURVE",
"115 115 OFFCURVE",
"115 232 CURVE SMOOTH",
"115 313 OFFCURVE",
"168 364 OFFCURVE",
"240 364 CURVE SMOOTH",
"289 364 OFFCURVE",
"344 340 OFFCURVE",
"364 307 CURVE",
"391 406 LINE"
);
}
);
width = 531;
}
);
},
{
color = 4;
glyphname = e;
lastChange = "2019-04-24 15:11:29 +0000";
layers = (
{
background = {
components = (
{
name = c;
transform = "{1, 0, 0, 1, -6, 0}";
}
);
};
guideLines = (
{
angle = 16;
position = "{204, 472}";
}
);
layerId = "A23182C3-7ED8-49EC-89D2-A828F09177C3";
paths = (
{
closed = 1;
nodes = (
"382 314 OFFCURVE",
"377 312 OFFCURVE",
"362 337 CURVE SMOOTH",
"332 387 OFFCURVE",
"291 440 OFFCURVE",
"227 440 CURVE SMOOTH",
"193 440 OFFCURVE",
"101 401 OFFCURVE",
"78 373 CURVE",
"46 334 OFFCURVE",
"30 268 OFFCURVE",
"30 202 CURVE SMOOTH",
"30 102 OFFCURVE",
"65 -10 OFFCURVE",
"185 -10 CURVE SMOOTH",
"255 -10 OFFCURVE",
"356 54 OFFCURVE",
"395 92 CURVE",
"380 115 LINE",
"339 89 OFFCURVE",
"281 65 OFFCURVE",
"235 65 CURVE SMOOTH",
"165 65 OFFCURVE",
"113 118 OFFCURVE",
"113 228 CURVE SMOOTH",
"113 321 OFFCURVE",
"144 379 OFFCURVE",
"184 379 CURVE SMOOTH",
"215 379 OFFCURVE",
"259 345 OFFCURVE",
"277 277 CURVE",
"277 299 LINE",
"105 275 LINE",
"110 247 LINE",
"407 289 LINE",
"404 315 LINE"
);
}
);
width = 422;
},
{
associatedMasterId = "A23182C3-7ED8-49EC-89D2-A828F09177C3";
layerId = "073323DE-D4D3-4703-9EF2-AB290CF56278";
name = image;
width = 420;
},
{
associatedMasterId = "A23182C3-7ED8-49EC-89D2-A828F09177C3";
background = {
components = (
{
name = c;
}
);
};
guideLines = (
{
angle = 16;
position = "{210, 472}";
}
);
layerId = "F3A11C5D-CC1F-427E-BF7E-02104A8CFD55";
name = "Jul 4 18, 17:32";
paths = (
{
closed = 1;
nodes = (
"366 337 LINE",
"343 376 OFFCURVE",
"282 440 OFFCURVE",
"233 440 CURVE SMOOTH",
"181 440 OFFCURVE",
"95 379 OFFCURVE",
"72 355 CURVE SMOOTH",
"56 338 OFFCURVE",
"30 268 OFFCURVE",
"30 182 CURVE SMOOTH",
"30 82 OFFCURVE",
"71 -10 OFFCURVE",
"181 -10 CURVE SMOOTH",
"271 -10 OFFCURVE",
"353 42 OFFCURVE",
"392 80 CURVE",
"374 107 LINE",
"333 81 OFFCURVE",
"286 65 OFFCURVE",
"240 65 CURVE SMOOTH",
"180 65 OFFCURVE",
"125 118 OFFCURVE",
"125 228 CURVE SMOOTH",
"125 301 OFFCURVE",
"141 375 OFFCURVE",
"181 375 CURVE SMOOTH",
"212 375 OFFCURVE",
"279 313 OFFCURVE",
"286 284 CURVE",
"313 310 LINE",
"111 268 LINE",
"116 234 LINE",
"416 290 LINE",
"406 342 LINE"
);
}
);
width = 436;
}
);
leftMetricsKey = o;
unicode = 0065;
},
{
color = 4;
glyphname = e_macr;
lastChange = "2019-04-24 15:11:29 +0000";
layers = (
{
components = (
{
alignment = -1;
name = e;
}
);
layerId = "A23182C3-7ED8-49EC-89D2-A828F09177C3";
paths = (
{
closed = 1;
nodes = (
"82 464 LINE",
"107 491 OFFCURVE",
"159 498 OFFCURVE",
"193 498 CURVE SMOOTH",
"228 498 OFFCURVE",
"242 494 OFFCURVE",
"278 494 CURVE",
"318 522 OFFCURVE",
"347 554 OFFCURVE",
"391 604 CURVE",
"367 623 LINE",
"335 592 OFFCURVE",
"314 565 OFFCURVE",
"283 565 CURVE SMOOTH",
"250 565 OFFCURVE",
"223 571 OFFCURVE",
"191 571 CURVE",
"152 546 OFFCURVE",
"92 517 OFFCURVE",
"61 488 CURVE"
);
}
);
width = 422;
},
{
associatedMasterId = "A23182C3-7ED8-49EC-89D2-A828F09177C3";
background = {
paths = (
{
closed = 1;
nodes = (
"338 439 OFFCURVE",
"234 439 CURVE SMOOTH",
"202 439 OFFCURVE",
"151 424 OFFCURVE",
"105 389 CURVE SMOOTH",
"55 351 OFFCURVE",
"30 288 OFFCURVE",
"32 182 CURVE SMOOTH",
"36 63 OFFCURVE",
"95 -5 OFFCURVE",
"190 -5 CURVE SMOOTH",
"260 -5 OFFCURVE",
"347 34 OFFCURVE",
"398 90 CURVE",
"382 116 LINE SMOOTH",
"378 123 OFFCURVE",
"374 123 OFFCURVE",
"367 118 CURVE SMOOTH",
"329 88 OFFCURVE",
"297 77 OFFCURVE",
"251 77 CURVE SMOOTH",
"176 77 OFFCURVE",
"124 125 OFFCURVE",
"122 238 CURVE SMOOTH",
"120 331 OFFCURVE",
"132 373 OFFCURVE",
"182 375 CURVE SMOOTH",
"213 376 OFFCURVE",
"250 351 OFFCURVE",
"269 303 CURVE",
"299 331 LINE",
"230 308 OFFCURVE",
"161 289 OFFCURVE",
"92 276 CURVE",
"98 243 LINE",
"199 260 OFFCURVE",
"309 276 OFFCURVE",
"397 299 CURVE",
"400 318 OFFCURVE",
"400 336 OFFCURVE",
"398 359 CURVE",
"327 355 OFFCURVE"
);
}
);
};
layerId = "46933FA3-EAEB-47F7-98DE-2B93170A6E2F";
name = "May 10 18, 15:33";
width = 420;
},
{
associatedMasterId = "A23182C3-7ED8-49EC-89D2-A828F09177C3";
background = {
paths = (
{
closed = 1;
nodes = (
"248 -5 OFFCURVE",
"335 34 OFFCURVE",
"386 90 CURVE",
"370 116 LINE SMOOTH",
"366 123 OFFCURVE",
"362 123 OFFCURVE",
"355 118 CURVE SMOOTH",
"317 88 OFFCURVE",
"285 77 OFFCURVE",
"239 77 CURVE SMOOTH",
"164 77 OFFCURVE",
"110 125 OFFCURVE",
"110 238 CURVE SMOOTH",
"110 309 OFFCURVE",
"128 381 OFFCURVE",
"178 383 CURVE SMOOTH",
"209 384 OFFCURVE",
"238 351 OFFCURVE",
"257 303 CURVE",
"283 353 LINE",
"77 249 LINE",
"86 214 LINE",
"389 338 LINE",
"393 355 OFFCURVE",
"392 384 OFFCURVE",
"386 401 CURVE",
"354 390 LINE",
"323 399 OFFCURVE",
"288 439 OFFCURVE",
"222 439 CURVE SMOOTH",
"190 439 OFFCURVE",
"144 424 OFFCURVE",
"101 391 CURVE SMOOTH",
"51 352 OFFCURVE",
"18 288 OFFCURVE",
"20 182 CURVE SMOOTH",
"24 63 OFFCURVE",
"83 -5 OFFCURVE",
"178 -5 CURVE SMOOTH"
);
}
);
};
components = (
{
name = macr;
transform = "{1, 0, 0, 1, -12, 0}";
}
);
layerId = "38817026-3CE9-424F-924F-20FB3EFB2808";
name = "Jul 9 18, 10:14";
paths = (
{
closed = 1;
nodes = (
"240 -5 OFFCURVE",
"346 36 OFFCURVE",
"404 80 CURVE",
"385 113 LINE",
"340 84 OFFCURVE",
"279 67 OFFCURVE",
"233 67 CURVE SMOOTH",
"158 67 OFFCURVE",
"110 125 OFFCURVE",
"110 238 CURVE SMOOTH",
"110 310 OFFCURVE",
"128 383 OFFCURVE",
"179 383 CURVE SMOOTH",
"210 383 OFFCURVE",
"238 350 OFFCURVE",
"257 303 CURVE",
"283 353 LINE",
"77 249 LINE",
"86 214 LINE",
"402 345 LINE",
"386 401 LINE",
"345 387 LINE",
"322 416 OFFCURVE",
"288 439 OFFCURVE",
"222 439 CURVE",
"190 439 OFFCURVE",
"144 420 OFFCURVE",
"101 387 CURVE SMOOTH",
"52 349 OFFCURVE",
"20 292 OFFCURVE",
"20 194 CURVE SMOOTH",
"20 47 OFFCURVE",
"80 -5 OFFCURVE",
"178 -5 CURVE SMOOTH"
);
}
);
width = 414;
}
);
leftMetricsKey = e;
rightMetricsKey = e;
unicode = 0113;
},
{
color = 4;
glyphname = f;
lastChange = "2019-04-24 15:11:29 +0000";
layers = (
{
layerId = "A23182C3-7ED8-49EC-89D2-A828F09177C3";
paths = (
{
closed = 1;
nodes = (
"76 43 OFFCURVE",
"66 38 OFFCURVE",
"24 28 CURVE",
"24 -2 LINE",
"104 2 OFFCURVE",
"174 2 OFFCURVE",
"239 -2 CURVE",
"239 33 LINE",
"164 38 OFFCURVE",
"163 41 OFFCURVE",
"163 73 CURVE SMOOTH",
"158 568 LINE SMOOTH",
"157 629 OFFCURVE",
"187 658 OFFCURVE",
"226 658 CURVE SMOOTH",
"266 658 OFFCURVE",
"304 620 OFFCURVE",
"328 550 CURVE",
"349 550 LINE",
"365 658 LINE",
"344 688 OFFCURVE",
"304 712 OFFCURVE",
"244 712 CURVE SMOOTH",
"180 712 OFFCURVE",
"129 653 OFFCURVE",
"86 606 CURVE",
"75 568 OFFCURVE",
"80 517 OFFCURVE",
"80 484 CURVE SMOOTH",
"80 412 OFFCURVE",
"64 380 OFFCURVE",
"37 343 CURVE",
"37 330 LINE",
"71 315 OFFCURVE",
"77 292 OFFCURVE",
"77 263 CURVE SMOOTH",
"77 100 LINE SMOOTH"
);
},
{
closed = 1;
nodes = (
"94 335 LINE",
"173 337 OFFCURVE",
"252 336 OFFCURVE",
"331 330 CURVE",
"344 414 LINE",
"329 417 LINE",
"315 402 OFFCURVE",
"201 392 OFFCURVE",
"94 392 CURVE"
);
}
);
width = 350;
},
{
associatedMasterId = "A23182C3-7ED8-49EC-89D2-A828F09177C3";
layerId = "B8F11994-541F-4486-8484-BDDACFE5C64E";
name = image;
width = 340;
},
{
associatedMasterId = "A23182C3-7ED8-49EC-89D2-A828F09177C3";
layerId = "84AA2565-2227-4919-994D-9D9C1A71505B";
name = "Jun 25 18, 19:30";
paths = (
{
closed = 1;
nodes = (
"56 61 OFFCURVE",
"49 33 OFFCURVE",
"24 33 CURVE",
"24 -2 LINE",
"85 1 OFFCURVE",
"170 1 OFFCURVE",
"233 -2 CURVE",
"233 33 LINE",
"170 33 OFFCURVE",
"147 40 OFFCURVE",
"147 82 CURVE SMOOTH",
"147 435 LINE SMOOTH",
"147 565 OFFCURVE",
"152 639 OFFCURVE",
"189 639 CURVE SMOOTH",
"245 639 OFFCURVE",
"293 597 OFFCURVE",
"293 556 CURVE",
"318 548 LINE",
"355 662 LINE",
"340 688 OFFCURVE",
"303 710 OFFCURVE",
"263 710 CURVE SMOOTH",
"228 710 OFFCURVE",
"175 686 OFFCURVE",
"118 649 CURVE SMOOTH",
"72 619 OFFCURVE",
"57 568 OFFCURVE",
"57 484 CURVE SMOOTH",
"57 418 OFFCURVE",
"40 406 OFFCURVE",
"8 397 CURVE",
"8 344 LINE",
"57 344 LINE",
"57 288 OFFCURVE",
"57 200 OFFCURVE",
"57 140 CURVE"
);
},
{
closed = 1;
nodes = (
"78 343 LINE",
"310 343 LINE",
"320 425 LINE",
"78 412 LINE"
);
}
);
width = 400;
},
{
associatedMasterId = "A23182C3-7ED8-49EC-89D2-A828F09177C3";
layerId = "89121BAF-C573-489C-8A23-6B1808A398E3";
name = "Jul 4 18, 15:57";
paths = (
{
closed = 1;
nodes = (
"73 43 OFFCURVE",
"63 35 OFFCURVE",
"41 25 CURVE",
"41 -5 LINE",
"101 -1 OFFCURVE",
"175 2 OFFCURVE",
"240 0 CURVE",
"240 38 LINE",
"165 40 OFFCURVE",
"164 41 OFFCURVE",
"164 73 CURVE SMOOTH",
"164 395 LINE SMOOTH",
"164 525 OFFCURVE",
"169 640 OFFCURVE",
"206 640 CURVE SMOOTH",
"252 640 OFFCURVE",
"297 614 OFFCURVE",
"316 556 CURVE",
"337 551 LINE",
"381 642 LINE",
"364 678 OFFCURVE",
"310 710 OFFCURVE",
"270 710 CURVE SMOOTH",
"235 710 OFFCURVE",
"192 686 OFFCURVE",
"135 649 CURVE SMOOTH",
"96 624 OFFCURVE",
"74 568 OFFCURVE",
"74 484 CURVE SMOOTH",
"74 378 OFFCURVE",
"57 366 OFFCURVE",
"25 357 CURVE",
"25 311 LINE",
"74 311 LINE",
"74 255 OFFCURVE",
"74 170 OFFCURVE",
"74 100 CURVE"
);
},
{
closed = 1;
nodes = (
"95 311 LINE",
"334 308 LINE",
"344 378 LINE",
"95 369 LINE"
);
}
);
width = 321;
},
{
associatedMasterId = "A23182C3-7ED8-49EC-89D2-A828F09177C3";
layerId = "6D970805-C307-4B0A-A1BC-1BE050DF0A9D";
name = "Jul 5 18, 10:25";
paths = (
{
closed = 1;
nodes = (
"82 43 OFFCURVE",
"72 38 OFFCURVE",
"30 28 CURVE",
"30 -2 LINE",
"110 2 OFFCURVE",
"184 2 OFFCURVE",
"249 -2 CURVE",
"249 34 LINE",
"174 39 OFFCURVE",
"173 41 OFFCURVE",
"173 73 CURVE SMOOTH",
"173 395 LINE SMOOTH",
"173 525 OFFCURVE",
"178 640 OFFCURVE",
"215 640 CURVE SMOOTH",
"261 640 OFFCURVE",
"306 614 OFFCURVE",
"325 556 CURVE",
"346 551 LINE",
"390 642 LINE",
"373 678 OFFCURVE",
"319 710 OFFCURVE",
"279 710 CURVE SMOOTH",
"244 710 OFFCURVE",
"201 686 OFFCURVE",
"144 649 CURVE SMOOTH",
"105 624 OFFCURVE",
"83 568 OFFCURVE",
"83 484 CURVE SMOOTH",
"83 378 OFFCURVE",
"66 366 OFFCURVE",
"34 357 CURVE",
"34 321 LINE",
"83 317 LINE",
"83 261 OFFCURVE",
"83 170 OFFCURVE",
"83 100 CURVE"
);
},
{
closed = 1;
nodes = (
"104 313 LINE",
"343 304 LINE",
"343 378 LINE",
"104 369 LINE"
);
}
);
width = 350;
}
);
unicode = 0066;
},
{
color = 4;
glyphname = f_f;
lastChange = "2019-04-24 15:11:29 +0000";
layers = (
{
background = {
paths = (
{
closed = 1;
nodes = (
"147 0 LINE",
"127 188 OFFCURVE",
"116 441 OFFCURVE",
"116 525 CURVE SMOOTH",
"116 593 OFFCURVE",
"129 639 OFFCURVE",
"173 639 CURVE SMOOTH",
"216 639 OFFCURVE",
"267 617 OFFCURVE",
"317 555 CURVE",
"366 629 LINE",
"287 698 OFFCURVE",
"266 710 OFFCURVE",
"232 710 CURVE SMOOTH",
"194 710 OFFCURVE",
"137 690 OFFCURVE",
"101 658 CURVE SMOOTH",
"53 620 OFFCURVE",
"29 561 OFFCURVE",
"29 474 CURVE SMOOTH",
"29 428 OFFCURVE",
"17 419 OFFCURVE",
"-10 397 CURVE",
"-10 365 LINE",
"11 353 OFFCURVE",
"22 343 OFFCURVE",
"32 319 CURVE",
"34 161 OFFCURVE",
"28 99 OFFCURVE",
"28 13 CURVE SMOOTH",
"28 2 OFFCURVE",
"30 0 OFFCURVE",
"41 0 CURVE SMOOTH"
);
},
{
closed = 1;
nodes = (
"407 0 LINE",
"387 188 OFFCURVE",
"376 441 OFFCURVE",
"376 525 CURVE SMOOTH",
"376 590 OFFCURVE",
"387 615 OFFCURVE",
"407 633 CURVE SMOOTH",
"421 645 OFFCURVE",
"437 649 OFFCURVE",
"448 649 CURVE SMOOTH",
"484 649 OFFCURVE",
"510 628 OFFCURVE",
"532 587 CURVE",
"577 576 LINE",
"586 599 OFFCURVE",
"593 632 OFFCURVE",
"594 672 CURVE",
"565 700 OFFCURVE",
"534 710 OFFCURVE",
"492 710 CURVE SMOOTH",
"447 710 OFFCURVE",
"403 691 OFFCURVE",
"361 658 CURVE SMOOTH",
"313 620 OFFCURVE",
"289 561 OFFCURVE",
"289 474 CURVE SMOOTH",
"289 428 OFFCURVE",
"277 419 OFFCURVE",
"250 397 CURVE",
"250 365 LINE",
"271 353 OFFCURVE",
"282 343 OFFCURVE",
"292 319 CURVE",
"294 161 OFFCURVE",
"288 99 OFFCURVE",
"288 13 CURVE SMOOTH",
"288 2 OFFCURVE",
"290 0 OFFCURVE",
"301 0 CURVE SMOOTH"
);
}
);
};
layerId = "A23182C3-7ED8-49EC-89D2-A828F09177C3";
paths = (
{
closed = 1;
nodes = (
"141 409 LINE",
"145 505 LINE SMOOTH",
"149 605 OFFCURVE",
"189 645 OFFCURVE",
"235 645 CURVE SMOOTH",
"287 645 OFFCURVE",
"313 621 OFFCURVE",
"338 588 CURVE",
"326 554 OFFCURVE",
"315 466 OFFCURVE",
"315 409 CURVE"
);
},
{
closed = 1;
nodes = (
"314 236 OFFCURVE",
"312 121 OFFCURVE",
"303 0 CURVE",
"403 0 LINE",
"399 107 OFFCURVE",
"399 206 OFFCURVE",
"399 357 CURVE",
"519 357 LINE",
"528 408 LINE",
"398 409 LINE",
"398 475 LINE SMOOTH",
"398 601 OFFCURVE",
"415 650 OFFCURVE",
"498 650 CURVE SMOOTH",
"535 650 OFFCURVE",
"574 620 OFFCURVE",
"580 582 CURVE",
"599 577 LINE",
"638 644 LINE",
"626 685 OFFCURVE",
"570 710 OFFCURVE",
"521 710 CURVE SMOOTH",
"466 710 OFFCURVE",
"423 682 OFFCURVE",
"397 655 CURVE",
"360 688 OFFCURVE",
"316 710 OFFCURVE",
"268 710 CURVE SMOOTH",
"185 710 OFFCURVE",
"63 625 OFFCURVE",
"63 474 CURVE SMOOTH",
"63 435 OFFCURVE",
"46 402 OFFCURVE",
"24 390 CURVE",
"24 369 LINE",
"36 362 OFFCURVE",
"56 342 OFFCURVE",
"56 315 CURVE SMOOTH",
"56 240 OFFCURVE",
"53 121 OFFCURVE",
"47 0 CURVE",
"142 0 LINE",
"137 92 OFFCURVE",
"141 216 OFFCURVE",
"141 357 CURVE",
"315 357 LINE"
);
}
);
width = 605;
},
{
associatedMasterId = "A23182C3-7ED8-49EC-89D2-A828F09177C3";
background = {
paths = (
{
closed = 1;
nodes = (
"178 0 LINE",
"158 188 OFFCURVE",
"147 441 OFFCURVE",
"147 525 CURVE SMOOTH",
"147 593 OFFCURVE",
"160 639 OFFCURVE",
"204 639 CURVE SMOOTH",
"247 639 OFFCURVE",
"298 617 OFFCURVE",
"348 555 CURVE",
"397 629 LINE",
"318 698 OFFCURVE",
"297 710 OFFCURVE",
"263 710 CURVE SMOOTH",
"225 710 OFFCURVE",
"168 690 OFFCURVE",
"132 658 CURVE SMOOTH",
"84 620 OFFCURVE",
"60 561 OFFCURVE",
"60 474 CURVE SMOOTH",
"60 428 OFFCURVE",
"48 419 OFFCURVE",
"21 397 CURVE",
"21 365 LINE",
"42 353 OFFCURVE",
"53 343 OFFCURVE",
"63 319 CURVE",
"65 161 OFFCURVE",
"59 99 OFFCURVE",
"59 13 CURVE SMOOTH",
"59 2 OFFCURVE",
"61 0 OFFCURVE",
"72 0 CURVE SMOOTH"
);
},
{
closed = 1;
nodes = (
"438 0 LINE",
"418 188 OFFCURVE",
"407 441 OFFCURVE",
"407 525 CURVE SMOOTH",
"407 590 OFFCURVE",
"418 615 OFFCURVE",
"438 633 CURVE SMOOTH",
"452 645 OFFCURVE",
"468 649 OFFCURVE",
"479 649 CURVE SMOOTH",
"515 649 OFFCURVE",
"541 628 OFFCURVE",
"563 587 CURVE",
"608 576 LINE",
"617 599 OFFCURVE",
"624 632 OFFCURVE",
"625 672 CURVE",
"596 700 OFFCURVE",
"565 710 OFFCURVE",
"523 710 CURVE SMOOTH",
"478 710 OFFCURVE",
"434 691 OFFCURVE",
"392 658 CURVE SMOOTH",
"344 620 OFFCURVE",
"320 561 OFFCURVE",
"320 474 CURVE SMOOTH",
"320 428 OFFCURVE",
"308 419 OFFCURVE",
"281 397 CURVE",
"281 365 LINE",
"302 353 OFFCURVE",
"313 343 OFFCURVE",
"323 319 CURVE",
"325 161 OFFCURVE",
"319 99 OFFCURVE",
"319 13 CURVE SMOOTH",
"319 2 OFFCURVE",
"321 0 OFFCURVE",
"332 0 CURVE SMOOTH"
);
}
);
};
layerId = "CE6497EB-6003-4AB2-A2AF-E4CD94CA2A8A";
name = "Jul 9 18, 10:23";
paths = (
{
closed = 1;
nodes = (
"146 406 LINE",
"146 446 OFFCURVE",
"147 486 OFFCURVE",
"147 525 CURVE SMOOTH",
"148 605 OFFCURVE",
"207 651 OFFCURVE",
"273 651 CURVE SMOOTH",
"305 651 OFFCURVE",
"339 640 OFFCURVE",
"369 617 CURVE",
"341 578 OFFCURVE",
"325 519 OFFCURVE",
"326 412 CURVE"
);
},
{
closed = 1;
nodes = (
"320 227 OFFCURVE",
"311 82 OFFCURVE",
"301 -39 CURVE",
"427 -34 LINE",
"416 73 OFFCURVE",
"408 196 OFFCURVE",
"409 347 CURVE",
"574 347 LINE",
"583 424 LINE",
"408 415 LINE",
"409 437 OFFCURVE",
"409 470 OFFCURVE",
"411 525 CURVE SMOOTH",
"413 591 OFFCURVE",
"443 639 OFFCURVE",
"514 639 CURVE SMOOTH",
"581 639 OFFCURVE",
"627 595 OFFCURVE",
"641 566 CURVE",
"667 575 OFFCURVE",
"685 598 OFFCURVE",
"690 634 CURVE",
"669 684 OFFCURVE",
"619 710 OFFCURVE",
"560 710 CURVE SMOOTH",
"515 710 OFFCURVE",
"466 696 OFFCURVE",
"420 665 CURVE",
"377 704 OFFCURVE",
"327 721 OFFCURVE",
"279 721 CURVE SMOOTH",
"166 721 OFFCURVE",
"60 625 OFFCURVE",
"60 474 CURVE SMOOTH",
"60 438 OFFCURVE",
"53 414 OFFCURVE",
"21 397 CURVE",
"21 348 LINE",
"67 346 LINE",
"57 192 OFFCURVE",
"48 76 OFFCURVE",
"38 -45 CURVE",
"159 -45 LINE",
"149 36 OFFCURVE",
"146 162 OFFCURVE",
"146 294 CURVE SMOOTH",
"146 311 OFFCURVE",
"146 329 OFFCURVE",
"146 347 CURVE",
"326 348 LINE"
);
}
);
width = 705;
}
);
leftMetricsKey = f;
unicode = FB00;
},
{
color = 4;
glyphname = g;
lastChange = "2019-04-24 15:11:29 +0000";
layers = (
{
layerId = "A23182C3-7ED8-49EC-89D2-A828F09177C3";
paths = (
{
closed = 1;
nodes = (
"161 -60 LINE",
"125 -75 OFFCURVE",
"38 -129 OFFCURVE",
"38 -177 CURVE SMOOTH",
"38 -262 OFFCURVE",
"166 -310 OFFCURVE",
"282 -310 CURVE SMOOTH",
"421 -310 OFFCURVE",
"524 -266 OFFCURVE",
"524 -139 CURVE SMOOTH",
"524 -64 OFFCURVE",
"445 10 OFFCURVE",
"376 10 CURVE SMOOTH",
"331 10 OFFCURVE",
"274 0 OFFCURVE",
"225 0 CURVE SMOOTH",
"188 0 OFFCURVE",
"159 13 OFFCURVE",
"159 26 CURVE SMOOTH",
"159 55 OFFCURVE",
"215 89 OFFCURVE",
"282 105 CURVE SMOOTH",
"349 121 OFFCURVE",
"412 177 OFFCURVE",
"412 262 CURVE SMOOTH",
"412 312 OFFCURVE",
"389 358 OFFCURVE",
"367 382 CURVE",
"422 382 OFFCURVE",
"474 379 OFFCURVE",
"509 374 CURVE",
"509 438 LINE",
"393 430 OFFCURVE",
"344 442 OFFCURVE",
"240 442 CURVE SMOOTH",
"124 442 OFFCURVE",
"40 364 OFFCURVE",
"40 258 CURVE SMOOTH",
"40 161 OFFCURVE",
"100 113 OFFCURVE",
"176 97 CURVE",
"156 71 OFFCURVE",
"104 48 OFFCURVE",
"85 30 CURVE",
"85 8 OFFCURVE",
"113 -47 OFFCURVE",
"166 -66 CURVE",
"285 -66 LINE SMOOTH",
"408 -66 OFFCURVE",
"476 -85 OFFCURVE",
"476 -152 CURVE SMOOTH",
"476 -226 OFFCURVE",
"368 -247 OFFCURVE",
"282 -247 CURVE SMOOTH",
"186 -247 OFFCURVE",
"117 -213 OFFCURVE",
"117 -156 CURVE SMOOTH",
"117 -115 OFFCURVE",
"170 -73 OFFCURVE",
"285 -61 CURVE"
);
},
{
closed = 1;
nodes = (
"127 325 OFFCURVE",
"159 377 OFFCURVE",
"212 377 CURVE SMOOTH",
"282 377 OFFCURVE",
"326 297 OFFCURVE",
"326 234 CURVE SMOOTH",
"326 180 OFFCURVE",
"299 140 OFFCURVE",
"244 140 CURVE SMOOTH",
"193 140 OFFCURVE",
"127 197 OFFCURVE",
"127 282 CURVE SMOOTH"
);
}
);
width = 524;
},
{
associatedMasterId = "A23182C3-7ED8-49EC-89D2-A828F09177C3";
layerId = "A0E53E32-F8FF-4065-8EA1-D5A34D8E6EE9";
name = image;
paths = (
{
closed = 1;
nodes = (
"141 156 OFFCURVE",
"105 215 OFFCURVE",
"105 287 CURVE SMOOTH",
"105 345 OFFCURVE",
"138 378 OFFCURVE",
"189 378 CURVE SMOOTH",
"250 378 OFFCURVE",
"290 330 OFFCURVE",
"290 264 CURVE SMOOTH",
"290 196 OFFCURVE",
"256 156 OFFCURVE",
"205 156 CURVE SMOOTH"
);
},
{
closed = 1;
nodes = (
"234 107 OFFCURVE",
"274 119 OFFCURVE",
"305 140 CURVE SMOOTH",
"352 173 OFFCURVE",
"372 213 OFFCURVE",
"372 271 CURVE SMOOTH",
"372 335 OFFCURVE",
"328 399 OFFCURVE",
"328 399 CURVE",
"321 374 LINE",
"381 364 OFFCURVE",
"441 358 OFFCURVE",
"497 357 CURVE",
"499 389 OFFCURVE",
"497 417 OFFCURVE",
"493 438 CURVE",
"354 427 OFFCURVE",
"281 440 OFFCURVE",
"205 440 CURVE SMOOTH",
"106 440 OFFCURVE",
"19 375 OFFCURVE",
"19 264 CURVE SMOOTH",
"19 170 OFFCURVE",
"79 107 OFFCURVE",
"187 107 CURVE SMOOTH"
);
},
{
closed = 1;
nodes = (
"135 89 OFFCURVE",
"119 72 OFFCURVE",
"100 38 CURVE SMOOTH",
"98 34 OFFCURVE",
"97 31 OFFCURVE",
"99 25 CURVE SMOOTH",
"115 -35 OFFCURVE",
"152 -55 OFFCURVE",
"210 -55 CURVE SMOOTH",
"215 -55 OFFCURVE",
"286 -51 OFFCURVE",
"323 -51 CURVE SMOOTH",
"408 -51 OFFCURVE",
"466 -78 OFFCURVE",
"466 -132 CURVE SMOOTH",
"466 -187 OFFCURVE",
"371 -216 OFFCURVE",
"270 -216 CURVE SMOOTH",
"179 -216 OFFCURVE",
"124 -179 OFFCURVE",
"124 -130 CURVE SMOOTH",
"124 -72 OFFCURVE",
"185 -51 OFFCURVE",
"323 -51 CURVE",
"207 -20 LINE",
"90 -77 OFFCURVE",
"41 -108 OFFCURVE",
"41 -154 CURVE SMOOTH",
"41 -212 OFFCURVE",
"87 -282 OFFCURVE",
"252 -282 CURVE SMOOTH",
"415 -282 OFFCURVE",
"510 -225 OFFCURVE",
"510 -125 CURVE SMOOTH",
"510 -24 OFFCURVE",
"429 36 OFFCURVE",
"354 36 CURVE SMOOTH",
"291 36 OFFCURVE",
"245 25 OFFCURVE",
"207 25 CURVE SMOOTH",
"181 25 OFFCURVE",
"162 31 OFFCURVE",
"162 48 CURVE SMOOTH",
"162 79 OFFCURVE",
"251 103 OFFCURVE",
"305 140 CURVE",
"180 127 LINE"
);
}
);
width = 530;
},
{
associatedMasterId = "A23182C3-7ED8-49EC-89D2-A828F09177C3";
layerId = "ECBB1D15-FCCB-47C4-8F32-D005A366FF88";
name = "Jul 4 18, 17:29";
paths = (
{
closed = 1;
nodes = (
"306 44 OFFCURVE",
"241 33 OFFCURVE",
"213 33 CURVE SMOOTH",
"187 33 OFFCURVE",
"170 43 OFFCURVE",
"170 56 CURVE SMOOTH",
"170 77 OFFCURVE",
"250 116 OFFCURVE",
"292 137 CURVE SMOOTH",
"336 159 OFFCURVE",
"386 199 OFFCURVE",
"386 271 CURVE SMOOTH",
"386 318 OFFCURVE",
"370 357 OFFCURVE",
"350 380 CURVE",
"497 370 LINE",
"497 440 LINE",
"358 435 OFFCURVE",
"283 440 OFFCURVE",
"217 440 CURVE SMOOTH",
"107 440 OFFCURVE",
"37 367 OFFCURVE",
"37 267 CURVE SMOOTH",
"37 157 OFFCURVE",
"116 115 OFFCURVE",
"175 115 CURVE",
"138 95 OFFCURVE",
"80 50 OFFCURVE",
"80 19 CURVE SMOOTH",
"80 1 OFFCURVE",
"92 -18 OFFCURVE",
"146 -37 CURVE",
"107 -52 OFFCURVE",
"30 -91 OFFCURVE",
"30 -145 CURVE SMOOTH",
"30 -235 OFFCURVE",
"118 -270 OFFCURVE",
"218 -270 CURVE SMOOTH",
"358 -270 OFFCURVE",
"501 -205 OFFCURVE",
"501 -85 CURVE SMOOTH",
"501 15 OFFCURVE",
"429 44 OFFCURVE",
"349 44 CURVE SMOOTH"
);
},
{
closed = 1;
nodes = (
"127 327 OFFCURVE",
"151 375 OFFCURVE",
"201 375 CURVE SMOOTH",
"261 375 OFFCURVE",
"300 301 OFFCURVE",
"300 241 CURVE SMOOTH",
"300 191 OFFCURVE",
"274 160 OFFCURVE",
"232 160 CURVE SMOOTH",
"174 160 OFFCURVE",
"127 207 OFFCURVE",
"127 287 CURVE SMOOTH"
);
},
{
closed = 1;
nodes = (
"185 -205 OFFCURVE",
"120 -185 OFFCURVE",
"120 -115 CURVE SMOOTH",
"120 -75 OFFCURVE",
"156 -56 OFFCURVE",
"188 -50 CURVE SMOOTH",
"208 -46 OFFCURVE",
"261 -41 OFFCURVE",
"289 -41 CURVE SMOOTH",
"394 -41 OFFCURVE",
"446 -65 OFFCURVE",
"446 -108 CURVE SMOOTH",
"446 -167 OFFCURVE",
"357 -205 OFFCURVE",
"266 -205 CURVE SMOOTH"
);
}
);
width = 501;
}
);
unicode = 0067;
},
{
color = 4;
glyphname = h;
lastChange = "2019-04-23 11:51:23 +0000";
layers = (
{
background = {
paths = (
{
closed = 0;
nodes = (
"157 158 LINE SMOOTH",
"164 110 OFFCURVE",
"179 66 OFFCURVE",
"206 35 CURVE",
"186 -1 LINE",
"126 4 OFFCURVE",
"67 1 OFFCURVE",
"3 -7 CURVE",
"-4 6 OFFCURVE",
"-6 26 OFFCURVE",
"-3 39 CURVE",
"56 45 OFFCURVE",
"82 49 OFFCURVE",
"82 100 CURVE"
);
}
);
};
layerId = "A23182C3-7ED8-49EC-89D2-A828F09177C3";
paths = (
{
closed = 1;
nodes = (
"71 5 OFFCURVE",
"165 2 OFFCURVE",
"198 -3 CURVE",
"198 33 LINE",
"167 40 OFFCURVE",
"156 44 OFFCURVE",
"155 61 CURVE SMOOTH",
"143 260 OFFCURVE",
"148 457 OFFCURVE",
"155 636 CURVE SMOOTH",
"156 671 OFFCURVE",
"158 683 OFFCURVE",
"227 700 CURVE",
"221 740 LINE",
"152 724 OFFCURVE",
"84 712 OFFCURVE",
"15 700 CURVE",
"15 665 LINE",
"49 665 OFFCURVE",
"56 649 OFFCURVE",
"58 573 CURVE SMOOTH",
"60 511 OFFCURVE",
"72 322 OFFCURVE",
"61 93 CURVE SMOOTH",
"59 53 OFFCURVE",
"56 45 OFFCURVE",
"23 32 CURVE",
"23 -3 LINE"
);
},
{
closed = 1;
nodes = (
"423 53 OFFCURVE",
"484 142 OFFCURVE",
"484 231 CURVE SMOOTH",
"484 339 OFFCURVE",
"413 430 OFFCURVE",
"322 440 CURVE",
"126 372 LINE",
"130 347 LINE",
"284 391 OFFCURVE",
"408 322 OFFCURVE",
"408 198 CURVE SMOOTH",
"408 121 OFFCURVE",
"358 64 OFFCURVE",
"275 14 CURVE",
"293 -10 LINE"
);
}
);
width = 514;
}
);
rightMetricsKey = o;
unicode = 0068;
},
{
color = 4;
glyphname = i;
lastChange = "2019-04-24 15:11:29 +0000";
layers = (
{
background = {
components = (
{
name = a;
transform = "{1, 0, 0, 1, -239, 0}";
}
);
};
guideLines = (
{
angle = 16;
position = "{179, 440}";
},
{
angle = 20;
position = "{134, -31}";
}
);
layerId = "A23182C3-7ED8-49EC-89D2-A828F09177C3";
paths = (
{
closed = 1;
nodes = (
"20 398 LINE",
"78 413 OFFCURVE",
"131 428 OFFCURVE",
"179 444 CURVE",
"188 423 LINE",
"160 390 OFFCURVE",
"164 235 OFFCURVE",
"165 160 CURVE SMOOTH",
"166 75 OFFCURVE",
"179 65 OFFCURVE",
"235 65 CURVE",
"242 35 LINE",
"138 -10 LINE",
"108 -10 OFFCURVE",
"75 40 OFFCURVE",
"75 80 CURVE SMOOTH",
"75 160 OFFCURVE",
"81 254 OFFCURVE",
"81 304 CURVE SMOOTH",
"81 367 OFFCURVE",
"60 366 OFFCURVE",
"27 363 CURVE"
);
}
);
width = 247;
},
{
associatedMasterId = "A23182C3-7ED8-49EC-89D2-A828F09177C3";
layerId = "00EDBBB2-0B1C-4CC6-B8FD-48F0486A207E";
name = "May 9 18, 14:58";
width = 600;
},
{
associatedMasterId = "A23182C3-7ED8-49EC-89D2-A828F09177C3";
background = {
components = (
{
name = a;
transform = "{1, 0, 0, 1, -240, 0}";
}
);
};
guideLines = (
{
angle = 16;
position = "{34, 400}";
},
{
angle = 24.3765;
position = "{107, -10}";
}
);
layerId = "CE04B265-55D2-453A-9091-B5F2B5F1C7B0";
name = "Jul 3 18, 14:05";
paths = (
{
closed = 1;
nodes = (
"25 397 LINE",
"67 406 OFFCURVE",
"143 427 OFFCURVE",
"172 440 CURVE",
"191 422 LINE",
"178 396 OFFCURVE",
"168 309 OFFCURVE",
"164 240 CURVE SMOOTH",
"155 72 OFFCURVE",
"169 80 OFFCURVE",
"225 80 CURVE",
"235 48 LINE",
"192 21 OFFCURVE",
"141 -10 OFFCURVE",
"107 -10 CURVE SMOOTH",
"77 -10 OFFCURVE",
"67 13 OFFCURVE",
"67 49 CURVE SMOOTH",
"67 149 OFFCURVE",
"77 250 OFFCURVE",
"77 350 CURVE SMOOTH",
"77 363 OFFCURVE",
"72 364 OFFCURVE",
"34 357 CURVE"
);
}
);
width = 260;
}
);
unicode = 0069;
},
{
color = 4;
glyphname = i_macr;
lastChange = "2019-03-27 15:28:05 +0000";
layers = (
{
components = (
{
name = i;
transform = "{1, 0, 0, 1, 8, 0}";
}
);
layerId = "A23182C3-7ED8-49EC-89D2-A828F09177C3";
paths = (
{
closed = 1;
nodes = (
"51 425 LINE",
"59 463 OFFCURVE",
"112 467 OFFCURVE",
"191 476 CURVE",
"198 500 OFFCURVE",
"213 549 OFFCURVE",
"233 633 CURVE",
"189 647 LINE",
"192 571 OFFCURVE",
"185 566 OFFCURVE",
"71 545 CURVE",
"53 512 OFFCURVE",
"35 468 OFFCURVE",
"20 434 CURVE"
);
}
);
width = 255;
}
);
leftMetricsKey = i;
rightMetricsKey = i;
unicode = 012B;
},
{
color = 6;
glyphname = j;
lastChange = "2019-01-31 08:07:01 +0000";
layers = (
{
layerId = "A23182C3-7ED8-49EC-89D2-A828F09177C3";
paths = (
{
closed = 1;
nodes = (
"25 398 LINE",
"83 413 OFFCURVE",
"136 428 OFFCURVE",
"184 444 CURVE",
"193 423 LINE",
"165 390 OFFCURVE",
"169 145 OFFCURVE",
"170 70 CURVE SMOOTH",
"171 -5 OFFCURVE",
"92 -191 OFFCURVE",
"59 -238 CURVE",
"27 -219 LINE",
"57 -152 OFFCURVE",
"87 -62 OFFCURVE",
"86 50 CURVE SMOOTH",
"85 128 OFFCURVE",
"85 226 OFFCURVE",
"86 304 CURVE SMOOTH",
"87 367 OFFCURVE",
"65 366 OFFCURVE",
"32 363 CURVE"
);
}
);
width = 218;
}
);
unicode = 006A;
},
{
color = 4;
glyphname = k;
lastChange = "2019-04-24 15:11:29 +0000";
layers = (
{
background = {
paths = (
{
closed = 1;
nodes = (
"322 388 LINE",
"267 390 LINE",
"251 431 LINE SMOOTH",
"352 431 OFFCURVE",
"465 433 OFFCURVE",
"572 445 CURVE SMOOTH",
"573 438 OFFCURVE",
"574 432 OFFCURVE",
"574 425 CURVE",
"574 414 OFFCURVE",
"572 403 OFFCURVE",
"569 392 CURVE SMOOTH",
"442 390 LINE",
"245 225 LINE",
"206 251 LINE"
);
}
);
};
layerId = "A23182C3-7ED8-49EC-89D2-A828F09177C3";
paths = (
{
closed = 1;
nodes = (
"158 203 LINE",
"161 203 LINE",
"309 35 OFFCURVE",
"374 12 OFFCURVE",
"616 0 CURVE",
"619 28 LINE",
"482 41 OFFCURVE",
"306 140 OFFCURVE",
"244 232 CURVE",
"224 201 LINE",
"407 349 LINE SMOOTH",
"449 383 OFFCURVE",
"485 391 OFFCURVE",
"574 396 CURVE",
"574 431 LINE",
"281 427 LINE",
"281 392 LINE",
"344 392 LINE",
"158 226 LINE"
);
},
{
closed = 1;
nodes = (
"168 579 LINE SMOOTH",
"168 650 OFFCURVE",
"176 652 OFFCURVE",
"265 668 CURVE",
"265 703 LINE",
"185 699 OFFCURVE",
"82 700 OFFCURVE",
"38 702 CURVE",
"38 667 LINE",
"77 652 OFFCURVE",
"77 652 OFFCURVE",
"79 489 CURVE SMOOTH",
"81 334 OFFCURVE",
"76 201 OFFCURVE",
"74 107 CURVE SMOOTH",
"73 63 OFFCURVE",
"70 43 OFFCURVE",
"35 32 CURVE",
"35 -3 LINE",
"95 1 OFFCURVE",
"145 2 OFFCURVE",
"215 -3 CURVE",
"215 32 LINE",
"176 43 OFFCURVE",
"168 58 OFFCURVE",
"168 107 CURVE SMOOTH"
);
}
);
width = 616;
},
{
associatedMasterId = "A23182C3-7ED8-49EC-89D2-A828F09177C3";
layerId = "8338B160-D614-46E9-8C85-1DBD1C648C59";
name = "May 10 18, 14:38";
width = 600;
}
);
unicode = 006B;
},
{
color = 4;
glyphname = l;
lastChange = "2019-04-24 15:11:29 +0000";
layers = (
{
guideLines = (
{
angle = 20;
position = "{130, -27}";
}
);
layerId = "A23182C3-7ED8-49EC-89D2-A828F09177C3";
paths = (
{
closed = 1;
nodes = (
"15 685 LINE",
"206 710 LINE",
"211 675 LINE",
"163 667 OFFCURVE",
"155 663 OFFCURVE",
"154 630 CURVE SMOOTH",
"151 528 OFFCURVE",
"146 234 OFFCURVE",
"149 160 CURVE SMOOTH",
"152 75 OFFCURVE",
"169 65 OFFCURVE",
"225 65 CURVE",
"232 35 LINE",
"124 -10 LINE",
"97 -10 OFFCURVE",
"55 25 OFFCURVE",
"57 75 CURVE SMOOTH",
"60 145 OFFCURVE",
"69 471 OFFCURVE",
"67 568 CURVE SMOOTH",
"65 655 OFFCURVE",
"66 655 OFFCURVE",
"20 650 CURVE"
);
}
);
width = 242;
},
{
associatedMasterId = "A23182C3-7ED8-49EC-89D2-A828F09177C3";
layerId = "F1A4B09B-3F80-4371-8621-0E727A267799";
name = "May 9 18, 15:09";
width = 221;
},
{
associatedMasterId = "A23182C3-7ED8-49EC-89D2-A828F09177C3";
background = {
components = (
{
name = i;
transform = "{1, 0, 0, 1, 3, 0}";
}
);
};
layerId = "95E72BB4-F8D1-415D-88A8-1777E43918AB";
name = "Jun 22 18, 10:49";
paths = (
{
closed = 1;
nodes = (
"40 23 OFFCURVE",
"52 -10 OFFCURVE",
"87 -10 CURVE",
"206 35 LINE",
"206 70 LINE",
"140 70 OFFCURVE",
"136 106 OFFCURVE",
"136 134 CURVE SMOOTH",
"136 599 LINE SMOOTH",
"136 657 OFFCURVE",
"140 658 OFFCURVE",
"210 663 CURVE",
"210 709 LINE",
"149 701 OFFCURVE",
"56 695 OFFCURVE",
"5 695 CURVE",
"5 664 LINE",
"52 664 OFFCURVE",
"43 615 OFFCURVE",
"46 569 CURVE SMOOTH",
"53 456 OFFCURVE",
"40 176 OFFCURVE",
"40 68 CURVE SMOOTH"
);
}
);
width = 255;
},
{
associatedMasterId = "A23182C3-7ED8-49EC-89D2-A828F09177C3";
guideLines = (
{
angle = 24.3765;
position = "{111, -10}";
}
);
layerId = "BB1B6A2E-1DCC-420B-A9A0-F0E4D2EB8E83";
name = "Jul 4 18, 15:30";
paths = (
{
closed = 1;
nodes = (
"53 23 OFFCURVE",
"71 -10 OFFCURVE",
"111 -10 CURVE",
"244 38 LINE",
"234 78 LINE",
"229 78 LINE SMOOTH",
"176 78 OFFCURVE",
"146 87 OFFCURVE",
"146 154 CURVE SMOOTH",
"146 299 OFFCURVE",
"154 476 OFFCURVE",
"159 649 CURVE SMOOTH",
"159 659 OFFCURVE",
"170 661 OFFCURVE",
"219 669 CURVE",
"219 709 LINE",
"158 700 OFFCURVE",
"71 692 OFFCURVE",
"20 689 CURVE",
"20 653 LINE",
"67 653 OFFCURVE",
"68 645 OFFCURVE",
"68 599 CURVE SMOOTH",
"68 486 OFFCURVE",
"53 176 OFFCURVE",
"53 68 CURVE SMOOTH"
);
}
);
width = 264;
}
);
unicode = 006C;
},
{
color = 4;
glyphname = m;
lastChange = "2019-04-24 15:11:29 +0000";
layers = (
{
layerId = "A23182C3-7ED8-49EC-89D2-A828F09177C3";
paths = (
{
closed = 1;
nodes = (
"165 389 OFFCURVE",
"133 432 OFFCURVE",
"87 440 CURVE",
"25 387 LINE",
"25 365 LINE",
"70 348 OFFCURVE",
"86 337 OFFCURVE",
"87 276 CURVE SMOOTH",
"89 170 OFFCURVE",
"84 81 OFFCURVE",
"75 0 CURVE",
"176 0 LINE",
"171 93 OFFCURVE",
"172 85 OFFCURVE",
"173 359 CURVE"
);
},
{
closed = 1;
nodes = (
"426 353 LINE",
"414 396 OFFCURVE",
"377 440 OFFCURVE",
"308 440 CURVE SMOOTH",
"246 440 OFFCURVE",
"207 392 OFFCURVE",
"161 351 CURVE",
"173 310 LINE",
"187 339 OFFCURVE",
"218 365 OFFCURVE",
"263 365 CURVE SMOOTH",
"306 365 OFFCURVE",
"344 332 OFFCURVE",
"344 258 CURVE SMOOTH",
"344 138 OFFCURVE",
"340 49 OFFCURVE",
"335 0 CURVE",
"435 0 LINE",
"430 42 OFFCURVE",
"428 221 OFFCURVE",
"428 274 CURVE"
);
},
{
closed = 1;
nodes = (
"427 315 LINE",
"440 344 OFFCURVE",
"472 365 OFFCURVE",
"517 365 CURVE SMOOTH",
"577 365 OFFCURVE",
"603 322 OFFCURVE",
"603 238 CURVE SMOOTH",
"603 133 OFFCURVE",
"590 58 OFFCURVE",
"563 6 CURVE",
"567 -8 LINE",
"618 2 OFFCURVE",
"665 1 OFFCURVE",
"736 -4 CURVE",
"736 31 LINE",
"694 41 OFFCURVE",
"684 51 OFFCURVE",
"679 75 CURVE SMOOTH",
"671 114 OFFCURVE",
"683 224 OFFCURVE",
"683 307 CURVE SMOOTH",
"683 389 OFFCURVE",
"651 440 OFFCURVE",
"579 440 CURVE SMOOTH",
"504 440 OFFCURVE",
"458 398 OFFCURVE",
"410 354 CURVE"
);
}
);
width = 761;
},
{
associatedMasterId = "A23182C3-7ED8-49EC-89D2-A828F09177C3";
background = {
paths = (
{
closed = 1;
nodes = (
"340 346 OFFCURVE",
"354 286 OFFCURVE",
"354 200 CURVE SMOOTH",
"354 140 OFFCURVE",
"347 59 OFFCURVE",
"337 0 CURVE",
"376 -6 OFFCURVE",
"404 -5 OFFCURVE",
"443 1 CURVE",
"435 64 OFFCURVE",
"435 167 OFFCURVE",
"435 290 CURVE SMOOTH",
"435 386 OFFCURVE",
"388 433 OFFCURVE",
"335 433 CURVE SMOOTH",
"293 433 OFFCURVE",
"226 403 OFFCURVE",
"166 347 CURVE",
"166 320 LINE",
"163 302 LINE",
"198 311 LINE",
"209 330 OFFCURVE",
"236 346 OFFCURVE",
"277 346 CURVE SMOOTH"
);
},
{
closed = 1;
nodes = (
"139 -5 OFFCURVE",
"163 -5 OFFCURVE",
"199 0 CURVE",
"196 85 OFFCURVE",
"197 74 OFFCURVE",
"197 195 CURVE SMOOTH",
"197 287 OFFCURVE",
"202 339 OFFCURVE",
"201 369 CURVE SMOOTH",
"199 436 OFFCURVE",
"160 437 OFFCURVE",
"45 429 CURVE",
"42 414 OFFCURVE",
"42 399 OFFCURVE",
"45 385 CURVE",
"102 370 OFFCURVE",
"114 328 OFFCURVE",
"114 284 CURVE SMOOTH",
"114 248 OFFCURVE",
"114 186 OFFCURVE",
"113 157 CURVE SMOOTH",
"111 108 OFFCURVE",
"108 61 OFFCURVE",
"103 0 CURVE"
);
},
{
closed = 1;
nodes = (
"607 0 OFFCURVE",
"656 1 OFFCURVE",
"714 -5 CURVE",
"717 8 OFFCURVE",
"718 21 OFFCURVE",
"714 33 CURVE",
"681 40 OFFCURVE",
"664 60 OFFCURVE",
"664 85 CURVE SMOOTH",
"664 153 OFFCURVE",
"668 259 OFFCURVE",
"668 291 CURVE SMOOTH",
"668 372 OFFCURVE",
"643 429 OFFCURVE",
"575 435 CURVE SMOOTH",
"524 440 OFFCURVE",
"439 415 OFFCURVE",
"355 320 CURVE",
"375 319 LINE",
"375 260 LINE",
"381 277 LINE",
"381 310 OFFCURVE",
"447 351 OFFCURVE",
"502 351 CURVE SMOOTH",
"576 351 OFFCURVE",
"584 279 OFFCURVE",
"584 196 CURVE SMOOTH",
"584 109 OFFCURVE",
"574 65 OFFCURVE",
"540 14 CURVE",
"541 6 OFFCURVE",
"545 0 OFFCURVE",
"550 -6 CURVE"
);
}
);
};
layerId = "66266ABB-FADF-41CA-81A2-59281504085D";
name = "Jun 26 18, 11:43";
paths = (
{
closed = 1;
nodes = (
"320 351 OFFCURVE",
"337 291 OFFCURVE",
"337 200 CURVE SMOOTH",
"337 140 OFFCURVE",
"330 56 OFFCURVE",
"316 -3 CURVE",
"353 0 OFFCURVE",
"388 1 OFFCURVE",
"426 -2 CURVE",
"427 64 OFFCURVE",
"427 202 OFFCURVE",
"427 325 CURVE SMOOTH",
"427 391 OFFCURVE",
"388 438 OFFCURVE",
"315 438 CURVE SMOOTH",
"283 438 OFFCURVE",
"203 398 OFFCURVE",
"143 342 CURVE",
"143 307 LINE",
"172 307 LINE",
"181 333 OFFCURVE",
"216 351 OFFCURVE",
"257 351 CURVE SMOOTH"
);
},
{
closed = 1;
nodes = (
"622 3 OFFCURVE",
"682 4 OFFCURVE",
"736 -5 CURVE",
"736 39 LINE",
"666 39 OFFCURVE",
"667 48 OFFCURVE",
"671 89 CURVE SMOOTH",
"678 156 OFFCURVE",
"692 274 OFFCURVE",
"692 346 CURVE SMOOTH",
"692 397 OFFCURVE",
"643 440 OFFCURVE",
"585 440 CURVE SMOOTH",
"536 440 OFFCURVE",
"440 399 OFFCURVE",
"385 324 CURVE",
"385 265 LINE",
"391 282 LINE",
"391 315 OFFCURVE",
"457 356 OFFCURVE",
"512 356 CURVE SMOOTH",
"586 356 OFFCURVE",
"596 304 OFFCURVE",
"596 216 CURVE SMOOTH",
"596 129 OFFCURVE",
"582 55 OFFCURVE",
"548 4 CURVE",
"552 -5 LINE"
);
},
{
closed = 1;
nodes = (
"108 0 OFFCURVE",
"152 0 OFFCURVE",
"185 -3 CURVE",
"183 44 OFFCURVE",
"182 85 OFFCURVE",
"181 119 CURVE SMOOTH",
"178 207 OFFCURVE",
"179 287 OFFCURVE",
"187 344 CURVE SMOOTH",
"188 351 OFFCURVE",
"178 341 OFFCURVE",
"194 348 CURVE",
"174 384 OFFCURVE",
"124 427 OFFCURVE",
"90 440 CURVE",
"25 364 LINE",
"68 337 OFFCURVE",
"91 312 OFFCURVE",
"91 262 CURVE SMOOTH",
"91 159 OFFCURVE",
"86 82 OFFCURVE",
"75 -3 CURVE"
);
}
);
width = 751;
},
{
associatedMasterId = "A23182C3-7ED8-49EC-89D2-A828F09177C3";
layerId = "1058109A-3A09-4C81-AA4F-2927BCE70562";
name = "Jul 4 18, 15:24";
paths = (
{
closed = 1;
nodes = (
"448 0 LINE",
"442 49 OFFCURVE",
"441 274 OFFCURVE",
"441 307 CURVE SMOOTH",
"441 379 OFFCURVE",
"414 440 OFFCURVE",
"342 440 CURVE SMOOTH",
"288 440 OFFCURVE",
"207 385 OFFCURVE",
"156 342 CURVE",
"179 274 LINE",
"188 329 OFFCURVE",
"223 365 OFFCURVE",
"270 365 CURVE SMOOTH",
"313 365 OFFCURVE",
"351 332 OFFCURVE",
"351 258 CURVE SMOOTH",
"351 138 OFFCURVE",
"347 49 OFFCURVE",
"342 0 CURVE"
);
},
{
closed = 1;
nodes = (
"183 0 LINE",
"178 102 OFFCURVE",
"177 265 OFFCURVE",
"183 339 CURVE SMOOTH",
"185 363 OFFCURVE",
"128 423 OFFCURVE",
"87 440 CURVE",
"25 378 LINE",
"25 375 LINE",
"66 348 OFFCURVE",
"89 327 OFFCURVE",
"89 292 CURVE SMOOTH",
"89 179 OFFCURVE",
"86 85 OFFCURVE",
"77 0 CURVE"
);
},
{
closed = 1;
nodes = (
"650 1 OFFCURVE",
"701 0 OFFCURVE",
"746 0 CURVE",
"746 40 LINE",
"692 40 OFFCURVE",
"688 43 OFFCURVE",
"688 57 CURVE SMOOTH",
"688 106 OFFCURVE",
"707 214 OFFCURVE",
"707 297 CURVE SMOOTH",
"707 379 OFFCURVE",
"674 440 OFFCURVE",
"592 440 CURVE SMOOTH",
"528 440 OFFCURVE",
"447 382 OFFCURVE",
"399 347 CURVE",
"425 267 LINE",
"428 343 OFFCURVE",
"473 365 OFFCURVE",
"510 365 CURVE SMOOTH",
"563 365 OFFCURVE",
"611 322 OFFCURVE",
"611 238 CURVE SMOOTH",
"611 118 OFFCURVE",
"584 64 OFFCURVE",
"562 15 CURVE",
"567 -5 LINE"
);
}
);
width = 771;
},
{
associatedMasterId = "A23182C3-7ED8-49EC-89D2-A828F09177C3";
background = {
components = (
{
name = n;
transform = "{1, 0, 0, 1, 246, 0}";
}
);
};
layerId = "1EA3F214-9498-4653-B45F-BB1FBF13EEA6";
name = "Aug 25 18, 11:08";
paths = (
{
closed = 1;
nodes = (
"689 114 OFFCURVE",
"701 224 OFFCURVE",
"701 307 CURVE SMOOTH",
"701 389 OFFCURVE",
"669 440 OFFCURVE",
"587 440 CURVE SMOOTH",
"518 440 OFFCURVE",
"474 405 OFFCURVE",
"430 365 CURVE",
"415 404 OFFCURVE",
"378 440 OFFCURVE",
"310 440 CURVE SMOOTH",
"265 440 OFFCURVE",
"197 393 OFFCURVE",
"151 351 CURVE",
"173 355 LINE",
"162 382 OFFCURVE",
"116 426 OFFCURVE",
"82 440 CURVE",
"20 368 LINE",
"20 365 LINE",
"61 338 OFFCURVE",
"84 327 OFFCURVE",
"84 292 CURVE SMOOTH",
"84 179 OFFCURVE",
"81 85 OFFCURVE",
"72 0 CURVE",
"178 0 LINE",
"174 81 OFFCURVE",
"175 200 OFFCURVE",
"175 282 CURVE SMOOTH",
"175 335 OFFCURVE",
"220 365 OFFCURVE",
"265 365 CURVE SMOOTH",
"308 365 OFFCURVE",
"346 332 OFFCURVE",
"346 258 CURVE SMOOTH",
"346 138 OFFCURVE",
"342 49 OFFCURVE",
"337 0 CURVE",
"443 0 LINE",
"438 40 OFFCURVE",
"436 201 OFFCURVE",
"436 264 CURVE SMOOTH",
"436 337 OFFCURVE",
"484 365 OFFCURVE",
"525 365 CURVE SMOOTH",
"585 365 OFFCURVE",
"611 322 OFFCURVE",
"611 238 CURVE SMOOTH",
"611 133 OFFCURVE",
"595 67 OFFCURVE",
"578 16 CURVE",
"585 0 LINE",
"754 0 LINE",
"754 35 LINE",
"712 45 OFFCURVE",
"689 51 OFFCURVE",
"689 65 CURVE SMOOTH"
);
}
);
width = 769;
}
);
leftMetricsKey = n;
rightMetricsKey = n;
unicode = 006D;
},
{
color = 4;
glyphname = m_macr;
lastChange = "2019-04-24 15:11:29 +0000";
layers = (
{
components = (
{
alignment = -1;
name = m;
}
);
layerId = "A23182C3-7ED8-49EC-89D2-A828F09177C3";
paths = (
{
closed = 1;
nodes = (
"202 485 LINE",
"227 512 OFFCURVE",
"279 519 OFFCURVE",
"313 519 CURVE SMOOTH",
"348 519 OFFCURVE",
"495 515 OFFCURVE",
"531 515 CURVE",
"571 543 OFFCURVE",
"600 575 OFFCURVE",
"624 596 CURVE",
"600 615 LINE",
"588 613 OFFCURVE",
"567 586 OFFCURVE",
"536 586 CURVE SMOOTH",
"503 586 OFFCURVE",
"313 592 OFFCURVE",
"281 592 CURVE",
"252 567 OFFCURVE",
"212 538 OFFCURVE",
"181 509 CURVE"
);
}
);
width = 761;
},
{
associatedMasterId = "A23182C3-7ED8-49EC-89D2-A828F09177C3";
background = {
paths = (
{
closed = 1;
nodes = (
"302 346 OFFCURVE",
"316 286 OFFCURVE",
"316 200 CURVE SMOOTH",
"316 140 OFFCURVE",
"309 59 OFFCURVE",
"299 0 CURVE",
"338 -6 OFFCURVE",
"366 -5 OFFCURVE",
"405 1 CURVE",
"397 64 OFFCURVE",
"397 167 OFFCURVE",
"397 290 CURVE SMOOTH",
"397 386 OFFCURVE",
"350 433 OFFCURVE",
"297 433 CURVE SMOOTH",
"255 433 OFFCURVE",
"188 403 OFFCURVE",
"128 347 CURVE",
"128 320 LINE",
"125 302 LINE",
"160 311 LINE",
"171 330 OFFCURVE",
"198 346 OFFCURVE",
"239 346 CURVE SMOOTH"
);
},
{
closed = 1;
nodes = (
"101 -5 OFFCURVE",
"125 -5 OFFCURVE",
"161 0 CURVE",
"158 85 OFFCURVE",
"159 74 OFFCURVE",
"159 195 CURVE SMOOTH",
"159 287 OFFCURVE",
"164 339 OFFCURVE",
"163 369 CURVE SMOOTH",
"161 436 OFFCURVE",
"122 437 OFFCURVE",
"7 429 CURVE",
"4 414 OFFCURVE",
"4 399 OFFCURVE",
"7 385 CURVE",
"64 370 OFFCURVE",
"76 328 OFFCURVE",
"76 284 CURVE SMOOTH",
"76 248 OFFCURVE",
"76 186 OFFCURVE",
"75 157 CURVE SMOOTH",
"73 108 OFFCURVE",
"70 61 OFFCURVE",
"65 0 CURVE"
);
},
{
closed = 1;
nodes = (
"569 0 OFFCURVE",
"618 1 OFFCURVE",
"676 -5 CURVE",
"679 8 OFFCURVE",
"680 21 OFFCURVE",
"676 33 CURVE",
"643 40 OFFCURVE",
"626 60 OFFCURVE",
"626 85 CURVE SMOOTH",
"626 153 OFFCURVE",
"630 259 OFFCURVE",
"630 291 CURVE SMOOTH",
"630 372 OFFCURVE",
"605 429 OFFCURVE",
"537 435 CURVE SMOOTH",
"486 440 OFFCURVE",
"401 415 OFFCURVE",
"317 320 CURVE",
"337 319 LINE",
"337 260 LINE",
"343 277 LINE",
"343 310 OFFCURVE",
"409 351 OFFCURVE",
"464 351 CURVE SMOOTH",
"538 351 OFFCURVE",
"546 279 OFFCURVE",
"546 196 CURVE SMOOTH",
"546 109 OFFCURVE",
"536 65 OFFCURVE",
"502 14 CURVE",
"503 6 OFFCURVE",
"507 0 OFFCURVE",
"512 -6 CURVE"
);
}
);
};
layerId = "AB394AA9-63F9-4261-8626-2E421D818FCB";
name = "Aug 25 18, 11:04";
paths = (
{
closed = 1;
nodes = (
"303 351 OFFCURVE",
"320 291 OFFCURVE",
"320 200 CURVE SMOOTH",
"320 140 OFFCURVE",
"313 56 OFFCURVE",
"299 -3 CURVE",
"336 0 OFFCURVE",
"371 1 OFFCURVE",
"409 -2 CURVE",
"410 64 OFFCURVE",
"410 202 OFFCURVE",
"410 325 CURVE SMOOTH",
"410 391 OFFCURVE",
"371 438 OFFCURVE",
"298 438 CURVE SMOOTH",
"266 438 OFFCURVE",
"186 398 OFFCURVE",
"126 342 CURVE",
"126 307 LINE",
"155 307 LINE",
"164 333 OFFCURVE",
"199 351 OFFCURVE",
"240 351 CURVE SMOOTH"
);
},
{
closed = 1;
nodes = (
"591 3 OFFCURVE",
"651 4 OFFCURVE",
"705 -5 CURVE",
"705 39 LINE",
"635 39 OFFCURVE",
"636 48 OFFCURVE",
"640 89 CURVE SMOOTH",
"647 156 OFFCURVE",
"661 274 OFFCURVE",
"661 346 CURVE SMOOTH",
"661 397 OFFCURVE",
"612 440 OFFCURVE",
"554 440 CURVE SMOOTH",
"505 440 OFFCURVE",
"409 399 OFFCURVE",
"354 324 CURVE",
"354 265 LINE",
"360 282 LINE",
"360 315 OFFCURVE",
"426 356 OFFCURVE",
"481 356 CURVE SMOOTH",
"555 356 OFFCURVE",
"565 304 OFFCURVE",
"565 216 CURVE SMOOTH",
"565 129 OFFCURVE",
"551 55 OFFCURVE",
"517 4 CURVE",
"521 -5 LINE"
);
},
{
closed = 1;
nodes = (
"101 -5 OFFCURVE",
"125 -5 OFFCURVE",
"161 0 CURVE",
"158 85 OFFCURVE",
"159 74 OFFCURVE",
"159 195 CURVE SMOOTH",
"159 287 OFFCURVE",
"164 339 OFFCURVE",
"162 400 CURVE SMOOTH",
"161 436 OFFCURVE",
"122 437 OFFCURVE",
"7 429 CURVE",
"7 385 LINE",
"74 374 OFFCURVE",
"76 328 OFFCURVE",
"76 284 CURVE SMOOTH",
"76 248 OFFCURVE",
"76 186 OFFCURVE",
"75 157 CURVE SMOOTH",
"73 108 OFFCURVE",
"70 61 OFFCURVE",
"65 0 CURVE"
);
},
{
closed = 1;
nodes = (
"163 544 OFFCURVE",
"209 581 OFFCURVE",
"235 581 CURVE SMOOTH",
"281 581 OFFCURVE",
"357 584 OFFCURVE",
"375 584 CURVE",
"496 588 OFFCURVE",
"536 611 OFFCURVE",
"556 638 CURVE",
"598 616 LINE",
"584 590 OFFCURVE",
"550 540 OFFCURVE",
"523 537 CURVE SMOOTH",
"406 524 OFFCURVE",
"253 545 OFFCURVE",
"165 486 CURVE",
"137 511 LINE"
);
}
);
width = 720;
}
);
leftMetricsKey = m;
rightMetricsKey = m;
unicode = E5B8;
},
{
color = 4;
glyphname = n;
lastChange = "2019-04-24 15:11:29 +0000";
layers = (
{
guideLines = (
{
angle = 20;
position = "{168, 375}";
},
{
angle = 45;
position = "{29, 378}";
}
);
layerId = "A23182C3-7ED8-49EC-89D2-A828F09177C3";
paths = (
{
closed = 1;
nodes = (
"396 6 OFFCURVE",
"434 4 OFFCURVE",
"504 0 CURVE",
"504 35 LINE",
"475 41 OFFCURVE",
"451 49 OFFCURVE",
"447 76 CURVE SMOOTH",
"440 115 OFFCURVE",
"454 215 OFFCURVE",
"454 298 CURVE SMOOTH",
"454 378 OFFCURVE",
"429 440 OFFCURVE",
"359 440 CURVE SMOOTH",
"289 440 OFFCURVE",
"219 391 OFFCURVE",
"161 365 CURVE",
"167 304 LINE",
"185 342 OFFCURVE",
"229 365 OFFCURVE",
"271 365 CURVE SMOOTH",
"341 365 OFFCURVE",
"374 312 OFFCURVE",
"374 218 CURVE SMOOTH",
"374 147 OFFCURVE",
"371 92 OFFCURVE",
"341 9 CURVE",
"345 -6 LINE"
);
},
{
closed = 1;
nodes = (
"164 389 OFFCURVE",
"143 432 OFFCURVE",
"87 440 CURVE",
"25 387 LINE",
"25 365 LINE",
"70 348 OFFCURVE",
"86 337 OFFCURVE",
"87 276 CURVE SMOOTH",
"89 170 OFFCURVE",
"84 81 OFFCURVE",
"75 0 CURVE",
"175 0 LINE",
"170 93 OFFCURVE",
"171 85 OFFCURVE",
"172 359 CURVE"
);
}
);
width = 529;
},
{
associatedMasterId = "A23182C3-7ED8-49EC-89D2-A828F09177C3";
background = {
paths = (
{
closed = 1;
nodes = (
"397 0 OFFCURVE",
"446 1 OFFCURVE",
"504 -5 CURVE",
"507 8 OFFCURVE",
"508 21 OFFCURVE",
"504 33 CURVE",
"471 40 OFFCURVE",
"454 60 OFFCURVE",
"454 85 CURVE SMOOTH",
"454 154 OFFCURVE",
"458 262 OFFCURVE",
"458 295 CURVE SMOOTH",
"458 377 OFFCURVE",
"434 431 OFFCURVE",
"365 439 CURVE SMOOTH",
"317 444 OFFCURVE",
"225 430 OFFCURVE",
"140 334 CURVE",
"160 333 LINE",
"160 274 LINE",
"166 291 LINE",
"166 325 OFFCURVE",
"234 365 OFFCURVE",
"288 365 CURVE SMOOTH",
"366 365 OFFCURVE",
"374 282 OFFCURVE",
"374 198 CURVE SMOOTH",
"374 108 OFFCURVE",
"364 65 OFFCURVE",
"330 14 CURVE",
"331 6 OFFCURVE",
"335 0 OFFCURVE",
"340 -6 CURVE"
);
},
{
closed = 1;
nodes = (
"105 -6 OFFCURVE",
"138 -6 OFFCURVE",
"178 0 CURVE",
"168 187 OFFCURVE",
"170 215 OFFCURVE",
"177 339 CURVE SMOOTH",
"177 346 OFFCURVE",
"168 348 OFFCURVE",
"176 348 CURVE",
"164 393 OFFCURVE",
"130 439 OFFCURVE",
"69 432 CURVE",
"46 424 OFFCURVE",
"28 402 OFFCURVE",
"20 359 CURVE",
"57 342 OFFCURVE",
"86 307 OFFCURVE",
"86 238 CURVE SMOOTH",
"86 157 OFFCURVE",
"83 103 OFFCURVE",
"70 0 CURVE"
);
}
);
};
layerId = "E1B0B928-891B-420E-86F5-5712B4516C7B";
name = i;
width = 529;
},
{
associatedMasterId = "A23182C3-7ED8-49EC-89D2-A828F09177C3";
guideLines = (
{
position = "{275, 102}";
showMeasurement = 1;
},
{
position = "{290, 375}";
},
{
angle = 20;
position = "{164, 375}";
},
{
angle = 45;
position = "{25, 378}";
}
);
layerId = "8724D068-ACB0-49EE-8A2E-789A73318DB0";
name = "Jul 4 18, 15:10";
paths = (
{
closed = 1;
nodes = (
"424 1 OFFCURVE",
"471 0 OFFCURVE",
"516 0 CURVE",
"516 38 LINE",
"487 42 OFFCURVE",
"458 60 OFFCURVE",
"458 74 CURVE SMOOTH",
"458 123 OFFCURVE",
"476 264 OFFCURVE",
"476 297 CURVE SMOOTH",
"476 379 OFFCURVE",
"444 440 OFFCURVE",
"342 440 CURVE SMOOTH",
"328 440 OFFCURVE",
"224 399 OFFCURVE",
"166 374 CURVE",
"179 255 LINE",
"182 331 OFFCURVE",
"233 375 OFFCURVE",
"280 375 CURVE SMOOTH",
"343 375 OFFCURVE",
"381 322 OFFCURVE",
"381 238 CURVE SMOOTH",
"381 118 OFFCURVE",
"360 60 OFFCURVE",
"339 11 CURVE",
"346 -5 LINE"
);
},
{
closed = 1;
nodes = (
"183 0 LINE",
"178 102 OFFCURVE",
"177 265 OFFCURVE",
"183 339 CURVE SMOOTH",
"185 363 OFFCURVE",
"128 423 OFFCURVE",
"87 440 CURVE",
"25 378 LINE",
"25 375 LINE",
"66 354 OFFCURVE",
"89 327 OFFCURVE",
"89 292 CURVE SMOOTH",
"89 179 OFFCURVE",
"86 85 OFFCURVE",
"77 0 CURVE"
);
}
);
width = 541;
}
);
unicode = 006E;
},
{
color = 4;
glyphname = n_macr;
lastChange = "2019-04-23 14:12:17 +0000";
layers = (
{
layerId = "A23182C3-7ED8-49EC-89D2-A828F09177C3";
paths = (
{
closed = 1;
nodes = (
"396 6 OFFCURVE",
"434 4 OFFCURVE",
"504 0 CURVE",
"504 35 LINE",
"475 41 OFFCURVE",
"451 49 OFFCURVE",
"447 76 CURVE SMOOTH",
"440 115 OFFCURVE",
"454 215 OFFCURVE",
"454 298 CURVE SMOOTH",
"454 378 OFFCURVE",
"409 440 OFFCURVE",
"339 440 CURVE SMOOTH",
"269 440 OFFCURVE",
"247 407 OFFCURVE",
"191 351 CURVE",
"197 304 LINE",
"215 342 OFFCURVE",
"245 365 OFFCURVE",
"291 365 CURVE SMOOTH",
"341 365 OFFCURVE",
"374 312 OFFCURVE",
"374 218 CURVE SMOOTH",
"374 147 OFFCURVE",
"371 92 OFFCURVE",
"341 9 CURVE",
"345 -6 LINE"
);
},
{
closed = 1;
nodes = (
"194 389 OFFCURVE",
"173 422 OFFCURVE",
"87 440 CURVE",
"35 387 LINE",
"35 365 LINE",
"100 348 OFFCURVE",
"116 337 OFFCURVE",
"117 276 CURVE SMOOTH",
"119 170 OFFCURVE",
"114 81 OFFCURVE",
"105 0 CURVE",
"205 0 LINE",
"200 93 OFFCURVE",
"201 85 OFFCURVE",
"202 359 CURVE"
);
},
{
closed = 1;
nodes = (
"133 500 LINE",
"147 512 OFFCURVE",
"199 519 OFFCURVE",
"233 519 CURVE SMOOTH",
"268 519 OFFCURVE",
"327 515 OFFCURVE",
"363 515 CURVE",
"403 543 OFFCURVE",
"432 575 OFFCURVE",
"444 586 CURVE",
"420 605 LINE",
"409 599 OFFCURVE",
"399 586 OFFCURVE",
"368 586 CURVE SMOOTH",
"335 586 OFFCURVE",
"233 592 OFFCURVE",
"201 592 CURVE",
"172 567 OFFCURVE",
"132 538 OFFCURVE",
"112 524 CURVE"
);
}
);
width = 499;
},
{
associatedMasterId = "A23182C3-7ED8-49EC-89D2-A828F09177C3";
layerId = "CED3FB80-3181-4008-B665-C3F2FA91DF06";
name = "Aug 25 18, 11:14";
paths = (
{
closed = 1;
nodes = (
"76 544 OFFCURVE",
"122 581 OFFCURVE",
"148 581 CURVE SMOOTH",
"194 582 OFFCURVE",
"270 584 OFFCURVE",
"288 584 CURVE",
"339 588 OFFCURVE",
"379 611 OFFCURVE",
"399 638 CURVE",
"441 616 LINE",
"427 590 OFFCURVE",
"393 540 OFFCURVE",
"366 537 CURVE SMOOTH",
"250 524 OFFCURVE",
"167 545 OFFCURVE",
"78 486 CURVE",
"50 511 LINE"
);
},
{
closed = 1;
nodes = (
"402 -1 OFFCURVE",
"459 0 OFFCURVE",
"515 0 CURVE",
"515 35 LINE",
"486 41 OFFCURVE",
"450 49 OFFCURVE",
"450 66 CURVE SMOOTH",
"450 115 OFFCURVE",
"465 215 OFFCURVE",
"465 298 CURVE SMOOTH",
"465 378 OFFCURVE",
"427 440 OFFCURVE",
"347 440 CURVE SMOOTH",
"313 440 OFFCURVE",
"214 396 OFFCURVE",
"156 370 CURVE",
"168 254 LINE",
"171 330 OFFCURVE",
"217 365 OFFCURVE",
"277 365 CURVE SMOOTH",
"357 365 OFFCURVE",
"372 308 OFFCURVE",
"372 238 CURVE SMOOTH",
"372 158 OFFCURVE",
"362 83 OFFCURVE",
"339 16 CURVE",
"346 -3 LINE"
);
},
{
closed = 1;
nodes = (
"183 360 LINE SMOOTH",
"186 387 OFFCURVE",
"171 428 OFFCURVE",
"152 440 CURVE",
"20 419 LINE",
"20 395 LINE",
"62 378 OFFCURVE",
"84 357 OFFCURVE",
"84 312 CURVE SMOOTH",
"84 200 OFFCURVE",
"81 89 OFFCURVE",
"72 0 CURVE",
"178 0 LINE",
"174 81 OFFCURVE",
"175 216 OFFCURVE",
"175 298 CURVE"
);
}
);
width = 499;
}
);
unicode = E5DC;
},
{
color = 4;
glyphname = o;
lastChange = "2019-04-24 15:11:29 +0000";
layers = (
{
layerId = "A23182C3-7ED8-49EC-89D2-A828F09177C3";
paths = (
{
closed = 1;
nodes = (
"131 440 OFFCURVE",
"30 334 OFFCURVE",
"30 204 CURVE SMOOTH",
"30 94 OFFCURVE",
"104 -10 OFFCURVE",
"234 -10 CURVE SMOOTH",
"354 -10 OFFCURVE",
"452 94 OFFCURVE",
"452 224 CURVE SMOOTH",
"452 345 OFFCURVE",
"382 440 OFFCURVE",
"251 440 CURVE SMOOTH"
);
},
{
closed = 1;
nodes = (
"181 56 OFFCURVE",
"101 137 OFFCURVE",
"101 242 CURVE SMOOTH",
"101 319 OFFCURVE",
"153 372 OFFCURVE",
"223 372 CURVE SMOOTH",
"297 372 OFFCURVE",
"384 294 OFFCURVE",
"384 194 CURVE SMOOTH",
"384 110 OFFCURVE",
"337 56 OFFCURVE",
"261 56 CURVE SMOOTH"
);
}
);
width = 482;
},
{
associatedMasterId = "A23182C3-7ED8-49EC-89D2-A828F09177C3";
layerId = "5A9EB547-147E-4CB6-AB6E-FAA58ADF7F4A";
name = "Nov 27 18, 14:06";
width = 480;
}
);
unicode = 006F;
},
{
color = 4;
glyphname = o_macr;
lastChange = "2019-03-27 14:50:35 +0000";
layers = (
{
components = (
{
name = o;
}
);
layerId = "A23182C3-7ED8-49EC-89D2-A828F09177C3";
paths = (
{
closed = 1;
nodes = (
"100 458 LINE",
"188 501 OFFCURVE",
"194 496 OFFCURVE",
"286 505 CURVE",
"332 541 OFFCURVE",
"373 577 OFFCURVE",
"411 659 CURVE",
"370 677 LINE",
"343 592 OFFCURVE",
"334 589 OFFCURVE",
"216 570 CURVE",
"164 540 OFFCURVE",
"112 507 OFFCURVE",
"71 475 CURVE"
);
}
);
width = 482;
}
);
leftMetricsKey = o;
rightMetricsKey = o;
unicode = 014D;
},
{
color = 4;
glyphname = p;
lastChange = "2019-04-24 15:11:29 +0000";
layers = (
{
layerId = "A23182C3-7ED8-49EC-89D2-A828F09177C3";
paths = (
{
closed = 1;
nodes = (
"162 -119 OFFCURVE",
"157 171 OFFCURVE",
"161 361 CURVE",
"163 441 LINE",
"149 452 LINE",
"109 443 OFFCURVE",
"73 438 OFFCURVE",
"31 430 CURVE",
"31 395 LINE",
"60 387 OFFCURVE",
"71 376 OFFCURVE",
"75 319 CURVE SMOOTH",
"83 206 OFFCURVE",
"69 -175 OFFCURVE",
"67 -218 CURVE SMOOTH",
"66 -251 OFFCURVE",
"55 -258 OFFCURVE",
"25 -269 CURVE",
"25 -304 LINE",
"97 -300 OFFCURVE",
"184 -300 OFFCURVE",
"226 -304 CURVE",
"226 -274 LINE",
"174 -256 OFFCURVE",
"162 -255 OFFCURVE",
"162 -204 CURVE SMOOTH"
);
},
{
closed = 1;
nodes = (
"123 17 LINE",
"157 -2 OFFCURVE",
"208 -9 OFFCURVE",
"258 -9 CURVE SMOOTH",
"409 -9 OFFCURVE",
"491 119 OFFCURVE",
"491 235 CURVE SMOOTH",
"491 345 OFFCURVE",
"438 440 OFFCURVE",
"339 440 CURVE SMOOTH",
"287 440 OFFCURVE",
"189 391 OFFCURVE",
"123 372 CURVE",
"131 336 LINE",
"157 352 OFFCURVE",
"210 370 OFFCURVE",
"258 370 CURVE SMOOTH",
"327 370 OFFCURVE",
"410 303 OFFCURVE",
"410 186 CURVE SMOOTH",
"410 114 OFFCURVE",
"377 40 OFFCURVE",
"286 40 CURVE SMOOTH",
"210 40 OFFCURVE",
"180 71 OFFCURVE",
"147 109 CURVE"
);
}
);
width = 521;
},
{
associatedMasterId = "A23182C3-7ED8-49EC-89D2-A828F09177C3";
guideLines = (
{
angle = 16;
position = "{88, 371}";
}
);
layerId = "DE1CBA06-731E-4196-BBA1-C154F4F9A81C";
name = "Nov 27 18, 15:23";
width = 509;
}
);
leftMetricsKey = n;
rightMetricsKey = o;
unicode = 0070;
},
{
color = 4;
glyphname = p.ss01;
lastChange = "2019-03-27 15:28:05 +0000";
layers = (
{
layerId = "A23182C3-7ED8-49EC-89D2-A828F09177C3";
paths = (
{
closed = 1;
nodes = (
"142 -119 OFFCURVE",
"137 171 OFFCURVE",
"141 361 CURVE",
"143 441 LINE",
"129 452 LINE",
"89 443 OFFCURVE",
"71 438 OFFCURVE",
"39 430 CURVE",
"68 250 OFFCURVE",
"53 -82 OFFCURVE",
"48 -248 CURVE SMOOTH",
"48 -262 OFFCURVE",
"47 -263 OFFCURVE",
"26 -274 CURVE",
"25 -304 LINE",
"97 -300 OFFCURVE",
"164 -300 OFFCURVE",
"236 -304 CURVE",
"236 -274 LINE",
"143 -264 OFFCURVE",
"142 -264 OFFCURVE",
"142 -244 CURVE SMOOTH"
);
},
{
closed = 1;
nodes = (
"103 17 LINE",
"137 -2 OFFCURVE",
"188 -9 OFFCURVE",
"238 -9 CURVE SMOOTH",
"389 -9 OFFCURVE",
"471 119 OFFCURVE",
"471 235 CURVE SMOOTH",
"471 345 OFFCURVE",
"418 440 OFFCURVE",
"319 440 CURVE SMOOTH",
"267 440 OFFCURVE",
"169 391 OFFCURVE",
"103 372 CURVE",
"111 336 LINE",
"137 352 OFFCURVE",
"190 370 OFFCURVE",
"238 370 CURVE SMOOTH",
"307 370 OFFCURVE",
"390 303 OFFCURVE",
"390 186 CURVE SMOOTH",
"390 114 OFFCURVE",
"357 40 OFFCURVE",
"266 40 CURVE SMOOTH",
"190 40 OFFCURVE",
"160 71 OFFCURVE",
"127 109 CURVE"
);
}
);
width = 501;
}
);
leftMetricsKey = p;
rightMetricsKey = p;
},
{
color = 4;
glyphname = p_bardes;
lastChange = "2019-04-24 15:11:29 +0000";
layers = (
{
components = (
{
alignment = -1;
name = p;
}
);
layerId = "A23182C3-7ED8-49EC-89D2-A828F09177C3";
paths = (
{
closed = 1;
nodes = (
"119 -133 OFFCURVE",
"242 -137 OFFCURVE",
"344 -150 CURVE",
"347 -136 LINE",
"246 -106 OFFCURVE",
"123 -87 OFFCURVE",
"22 -79 CURVE",
"17 -136 LINE"
);
}
);
width = 521;
},
{
associatedMasterId = "A23182C3-7ED8-49EC-89D2-A828F09177C3";
layerId = "B0528847-2089-41B0-B555-00D447CF2C5D";
name = "Jul 9 18, 11:02";
paths = (
{
closed = 1;
nodes = (
"-22 -55 OFFCURVE",
"-23 -102 OFFCURVE",
"-10 -132 CURVE",
"102 -135 OFFCURVE",
"206 -129 OFFCURVE",
"326 -140 CURVE",
"337 -104 LINE",
"-11 -25 LINE"
);
},
{
closed = 1;
nodes = (
"82 44 OFFCURVE",
"147 -3 OFFCURVE",
"219 -3 CURVE SMOOTH",
"298 -3 OFFCURVE",
"451 101 OFFCURVE",
"451 259 CURVE SMOOTH",
"451 364 OFFCURVE",
"403 437 OFFCURVE",
"318 437 CURVE SMOOTH",
"254 437 OFFCURVE",
"160 387 OFFCURVE",
"97 340 CURVE",
"111 303 LINE",
"148 331 OFFCURVE",
"181 347 OFFCURVE",
"232 347 CURVE SMOOTH",
"323 347 OFFCURVE",
"364 297 OFFCURVE",
"364 212 CURVE SMOOTH",
"364 118 OFFCURVE",
"317 73 OFFCURVE",
"254 73 CURVE SMOOTH",
"196 73 OFFCURVE",
"148 111 OFFCURVE",
"113 160 CURVE",
"82 44 LINE"
);
},
{
closed = 1;
nodes = (
"138 -50 OFFCURVE",
"139 -2 OFFCURVE",
"139 94 CURVE SMOOTH",
"139 96 OFFCURVE",
"138 167 OFFCURVE",
"138 229 CURVE SMOOTH",
"138 291 OFFCURVE",
"139 398 OFFCURVE",
"144 411 CURVE",
"136 419 OFFCURVE",
"127 426 OFFCURVE",
"117 432 CURVE",
"63 395 OFFCURVE",
"36 378 OFFCURVE",
"-20 366 CURVE",
"-12 326 LINE",
"-3 327 OFFCURVE",
"5 328 OFFCURVE",
"10 328 CURVE SMOOTH",
"38 328 OFFCURVE",
"48 304 OFFCURVE",
"52 265 CURVE SMOOTH",
"60 187 OFFCURVE",
"60 156 OFFCURVE",
"60 133 CURVE SMOOTH",
"61 -46 OFFCURVE",
"79 -200 OFFCURVE",
"18 -241 CURVE",
"21 -263 LINE",
"82 -260 OFFCURVE",
"148 -260 OFFCURVE",
"197 -263 CURVE",
"198 -247 OFFCURVE",
"198 -245 OFFCURVE",
"194 -233 CURVE",
"148 -233 OFFCURVE",
"138 -196 OFFCURVE",
"138 -155 CURVE SMOOTH"
);
}
);
width = 492;
}
);
rightMetricsKey = p;
unicode = A750;
},
{
color = 4;
glyphname = p_flour;
lastChange = "2019-04-24 15:11:29 +0000";
layers = (
{
layerId = "A23182C3-7ED8-49EC-89D2-A828F09177C3";
paths = (
{
closed = 1;
nodes = (
"20 -261 LINE",
"123 -192 OFFCURVE",
"104 -42 OFFCURVE",
"165 -4 CURVE SMOOTH",
"197 16 LINE",
"189 50 LINE",
"165 30 OFFCURVE",
"93 -1 OFFCURVE",
"62 -48 CURVE SMOOTH",
"36 -87 OFFCURVE",
"50 -156 OFFCURVE",
"8 -220 CURVE"
);
},
{
closed = 1;
nodes = (
"277 -213 OFFCURVE",
"272 163 OFFCURVE",
"276 353 CURVE",
"278 433 LINE",
"264 444 LINE",
"224 435 OFFCURVE",
"177 423 OFFCURVE",
"106 401 CURVE",
"106 361 LINE",
"165 376 OFFCURVE",
"186 368 OFFCURVE",
"190 311 CURVE SMOOTH",
"198 198 OFFCURVE",
"184 -260 OFFCURVE",
"172 -303 CURVE",
"287 -298 LINE"
);
},
{
closed = 1;
nodes = (
"238 9 LINE",
"272 -10 OFFCURVE",
"323 -17 OFFCURVE",
"373 -17 CURVE SMOOTH",
"524 -17 OFFCURVE",
"606 111 OFFCURVE",
"606 227 CURVE SMOOTH",
"606 337 OFFCURVE",
"553 432 OFFCURVE",
"454 432 CURVE SMOOTH",
"402 432 OFFCURVE",
"304 383 OFFCURVE",
"238 364 CURVE",
"246 328 LINE",
"272 344 OFFCURVE",
"325 362 OFFCURVE",
"373 362 CURVE SMOOTH",
"442 362 OFFCURVE",
"525 295 OFFCURVE",
"525 178 CURVE SMOOTH",
"525 106 OFFCURVE",
"492 32 OFFCURVE",
"401 32 CURVE SMOOTH",
"325 32 OFFCURVE",
"295 63 OFFCURVE",
"262 101 CURVE"
);
}
);
width = 636;
},
{
associatedMasterId = "A23182C3-7ED8-49EC-89D2-A828F09177C3";
layerId = "F235C02D-85E5-4FCB-87CB-7CE924BADD0B";
name = "Aug 25 18, 09:07";
paths = (
{
closed = 1;
nodes = (
"458 -8 OFFCURVE",
"600 84 OFFCURVE",
"600 235 CURVE SMOOTH",
"600 359 OFFCURVE",
"541 437 OFFCURVE",
"451 437 CURVE SMOOTH",
"392 437 OFFCURVE",
"309 372 OFFCURVE",
"245 330 CURVE",
"267 291 LINE",
"300 323 OFFCURVE",
"338 347 OFFCURVE",
"389 347 CURVE SMOOTH",
"473 347 OFFCURVE",
"515 275 OFFCURVE",
"515 188 CURVE SMOOTH",
"515 102 OFFCURVE",
"460 54 OFFCURVE",
"398 54 CURVE SMOOTH",
"324 54 OFFCURVE",
"284 102 OFFCURVE",
"248 145 CURVE",
"217 44 LINE",
"217 44 OFFCURVE",
"271 -8 OFFCURVE",
"364 -8 CURVE SMOOTH"
);
},
{
closed = 1;
nodes = (
"278 -159 OFFCURVE",
"275 -115 OFFCURVE",
"272 94 CURVE SMOOTH",
"272 127 OFFCURVE",
"271 174 OFFCURVE",
"271 223 CURVE SMOOTH",
"271 311 OFFCURVE",
"272 403 OFFCURVE",
"277 418 CURVE",
"250 439 LINE",
"191 418 OFFCURVE",
"144 402 OFFCURVE",
"75 390 CURVE",
"84 341 LINE",
"100 343 OFFCURVE",
"113 345 OFFCURVE",
"128 345 CURVE SMOOTH",
"157 345 OFFCURVE",
"180 336 OFFCURVE",
"183 298 CURVE SMOOTH",
"188 244 OFFCURVE",
"193 184 OFFCURVE",
"193 128 CURVE SMOOTH",
"193 60 OFFCURVE",
"180 -147 OFFCURVE",
"159 -259 CURVE",
"281 -260 LINE"
);
},
{
closed = 1;
nodes = (
"23 -223 LINE",
"113 -164 OFFCURVE",
"97 3 OFFCURVE",
"150 3 CURVE SMOOTH",
"160 3 OFFCURVE",
"181 -17 OFFCURVE",
"197 -27 CURVE",
"212 -1 LINE",
"202 53 LINE",
"79 14 OFFCURVE",
"42 -41 OFFCURVE",
"31 -93 CURVE SMOOTH",
"22 -136 OFFCURVE",
"20 -181 OFFCURVE",
"0 -204 CURVE"
);
}
);
width = 630;
},
{
associatedMasterId = "A23182C3-7ED8-49EC-89D2-A828F09177C3";
layerId = "0A447246-5BDE-4644-845C-5E38FD0CB20B";
name = img;
width = 681;
}
);
rightMetricsKey = p;
unicode = A753;
},
{
color = 4;
glyphname = p_macr;
lastChange = "2019-03-27 15:00:04 +0000";
layers = (
{
layerId = "A23182C3-7ED8-49EC-89D2-A828F09177C3";
paths = (
{
closed = 1;
nodes = (
"131 497 LINE",
"176 534 OFFCURVE",
"196 540 OFFCURVE",
"279 537 CURVE",
"325 578 OFFCURVE",
"352 603 OFFCURVE",
"389 654 CURVE",
"352 666 LINE",
"330 628 OFFCURVE",
"328 617 OFFCURVE",
"213 616 CURVE",
"171 583 OFFCURVE",
"145 560 OFFCURVE",
"107 521 CURVE"
);
},
{
closed = 1;
nodes = (
"156 -128 OFFCURVE",
"151 171 OFFCURVE",
"155 361 CURVE",
"157 431 LINE",
"143 442 LINE",
"103 433 OFFCURVE",
"67 435 OFFCURVE",
"25 430 CURVE",
"25 395 LINE",
"54 387 OFFCURVE",
"65 376 OFFCURVE",
"69 319 CURVE SMOOTH",
"77 206 OFFCURVE",
"62 -181 OFFCURVE",
"61 -224 CURVE SMOOTH",
"60 -266 OFFCURVE",
"59 -264 OFFCURVE",
"36 -275 CURVE",
"36 -304 LINE",
"91 -300 OFFCURVE",
"178 -300 OFFCURVE",
"220 -304 CURVE",
"220 -274 LINE",
"158 -265 OFFCURVE",
"156 -264 OFFCURVE",
"156 -253 CURVE SMOOTH"
);
},
{
closed = 1;
nodes = (
"117 17 LINE",
"151 -2 OFFCURVE",
"202 -9 OFFCURVE",
"252 -9 CURVE SMOOTH",
"403 -9 OFFCURVE",
"485 119 OFFCURVE",
"485 235 CURVE SMOOTH",
"485 345 OFFCURVE",
"432 440 OFFCURVE",
"333 440 CURVE SMOOTH",
"281 440 OFFCURVE",
"183 391 OFFCURVE",
"117 372 CURVE",
"125 336 LINE",
"151 352 OFFCURVE",
"204 370 OFFCURVE",
"252 370 CURVE SMOOTH",
"321 370 OFFCURVE",
"404 303 OFFCURVE",
"404 186 CURVE SMOOTH",
"404 114 OFFCURVE",
"371 40 OFFCURVE",
"280 40 CURVE SMOOTH",
"204 40 OFFCURVE",
"174 71 OFFCURVE",
"141 109 CURVE"
);
}
);
width = 515;
}
);
leftMetricsKey = p;
rightMetricsKey = p;
unicode = E665;
},
{
color = 4;
glyphname = p_urrot;
lastChange = "2019-03-27 15:28:05 +0000";
layers = (
{
layerId = "A23182C3-7ED8-49EC-89D2-A828F09177C3";
paths = (
{
closed = 1;
nodes = (
"156 618 LINE",
"202 598 OFFCURVE",
"193 596 OFFCURVE",
"189 471 CURVE",
"206 462 LINE",
"229 467 OFFCURVE",
"278 494 OFFCURVE",
"320 508 CURVE",
"314 535 LINE",
"255 527 OFFCURVE",
"251 525 OFFCURVE",
"280 675 CURVE",
"265 685 LINE",
"235 672 OFFCURVE",
"198 652 OFFCURVE",
"152 641 CURVE"
);
},
{
closed = 1;
nodes = (
"163 -214 OFFCURVE",
"151 171 OFFCURVE",
"155 361 CURVE",
"157 441 LINE",
"143 452 LINE",
"103 443 OFFCURVE",
"67 438 OFFCURVE",
"25 430 CURVE",
"25 395 LINE",
"54 387 OFFCURVE",
"65 376 OFFCURVE",
"69 319 CURVE SMOOTH",
"77 206 OFFCURVE",
"63 -255 OFFCURVE",
"61 -298 CURVE",
"176 -299 LINE"
);
},
{
closed = 1;
nodes = (
"117 17 LINE",
"151 -2 OFFCURVE",
"202 -9 OFFCURVE",
"252 -9 CURVE SMOOTH",
"403 -9 OFFCURVE",
"494 99 OFFCURVE",
"494 235 CURVE SMOOTH",
"494 365 OFFCURVE",
"398 440 OFFCURVE",
"299 440 CURVE SMOOTH",
"247 440 OFFCURVE",
"183 410 OFFCURVE",
"117 372 CURVE",
"125 341 LINE",
"151 357 OFFCURVE",
"204 375 OFFCURVE",
"252 375 CURVE SMOOTH",
"341 375 OFFCURVE",
"405 304 OFFCURVE",
"405 207 CURVE SMOOTH",
"405 115 OFFCURVE",
"361 31 OFFCURVE",
"270 31 CURVE SMOOTH",
"194 31 OFFCURVE",
"174 71 OFFCURVE",
"141 109 CURVE"
);
}
);
width = 524;
}
);
leftMetricsKey = p;
rightMetricsKey = p;
},
{
color = 4;
glyphname = q;
lastChange = "2019-04-24 15:11:29 +0000";
layers = (
{
layerId = "A23182C3-7ED8-49EC-89D2-A828F09177C3";
paths = (
{
closed = 1;
nodes = (
"402 100 LINE",
"385 86 OFFCURVE",
"333 56 OFFCURVE",
"270 56 CURVE SMOOTH",
"178 56 OFFCURVE",
"116 122 OFFCURVE",
"116 230 CURVE SMOOTH",
"116 326 OFFCURVE",
"171 392 OFFCURVE",
"257 392 CURVE SMOOTH",
"347 392 OFFCURVE",
"387 336 OFFCURVE",
"388 234 CURVE SMOOTH",
"390 129 LINE",
"390 113 LINE SMOOTH",
"392 -89 OFFCURVE",
"388 -201 OFFCURVE",
"386 -225 CURVE SMOOTH",
"383 -256 OFFCURVE",
"381 -264 OFFCURVE",
"334 -268 CURVE",
"334 -303 LINE",
"376 -300 OFFCURVE",
"475 -299 OFFCURVE",
"537 -303 CURVE",
"537 -268 LINE",
"490 -262 OFFCURVE",
"487 -261 OFFCURVE",
"484 -213 CURVE SMOOTH",
"479 -122 OFFCURVE",
"475 62 OFFCURVE",
"477 244 CURVE SMOOTH",
"478 363 OFFCURVE",
"490 383 OFFCURVE",
"502 430 CURVE",
"494 440 LINE",
"468 434 OFFCURVE",
"447 432 OFFCURVE",
"417 432 CURVE SMOOTH",
"371 432 OFFCURVE",
"328 441 OFFCURVE",
"266 441 CURVE SMOOTH",
"136 441 OFFCURVE",
"30 347 OFFCURVE",
"30 197 CURVE SMOOTH",
"30 97 OFFCURVE",
"83 -10 OFFCURVE",
"223 -10 CURVE SMOOTH",
"312 -10 OFFCURVE",
"372 50 OFFCURVE",
"423 63 CURVE"
);
}
);
width = 562;
},
{
associatedMasterId = "A23182C3-7ED8-49EC-89D2-A828F09177C3";
layerId = "FE189191-6DF4-4F21-91FB-803432E0A046";
name = Image;
width = 550;
},
{
associatedMasterId = "A23182C3-7ED8-49EC-89D2-A828F09177C3";
layerId = "5DB8745C-4AD2-46EF-9856-5551D2B98497";
name = "Jun 26 18, 12:33";
paths = (
{
closed = 1;
nodes = (
"436 386 OFFCURVE",
"373 440 OFFCURVE",
"281 440 CURVE SMOOTH",
"141 440 OFFCURVE",
"20 318 OFFCURVE",
"20 178 CURVE SMOOTH",
"20 68 OFFCURVE",
"81 -9 OFFCURVE",
"201 -9 CURVE SMOOTH",
"256 -9 OFFCURVE",
"354 51 OFFCURVE",
"411 92 CURVE",
"386 124 LINE",
"361 96 OFFCURVE",
"307 70 OFFCURVE",
"259 70 CURVE SMOOTH",
"164 70 OFFCURVE",
"115 117 OFFCURVE",
"115 212 CURVE SMOOTH",
"115 310 OFFCURVE",
"173 380 OFFCURVE",
"263 380 CURVE SMOOTH",
"324 380 OFFCURVE",
"367 337 OFFCURVE",
"373 231 CURVE",
"436 386 LINE"
);
},
{
closed = 1;
nodes = (
"348 372 OFFCURVE",
"351 259 OFFCURVE",
"358 64 CURVE SMOOTH",
"361 -25 OFFCURVE",
"362 -174 OFFCURVE",
"362 -184 CURVE SMOOTH",
"362 -213 OFFCURVE",
"329 -221 OFFCURVE",
"293 -225 CURVE",
"293 -260 LINE",
"480 -260 LINE",
"480 -221 LINE",
"456 -221 OFFCURVE",
"444 -218 OFFCURVE",
"444 -193 CURVE SMOOTH",
"444 244 LINE",
"444 363 OFFCURVE",
"447 384 OFFCURVE",
"456 434 CURVE",
"449 440 LINE",
"334 415 LINE"
);
}
);
width = 515;
},
{
associatedMasterId = "A23182C3-7ED8-49EC-89D2-A828F09177C3";
layerId = "D36EFC17-A2B6-486D-8CD0-0025F963CE25";
name = "Jul 4 18, 15:57";
paths = (
{
closed = 1;
nodes = (
"353 372 OFFCURVE",
"356 259 OFFCURVE",
"363 64 CURVE",
"449 244 LINE",
"449 363 OFFCURVE",
"452 384 OFFCURVE",
"461 434 CURVE",
"454 440 LINE",
"339 415 LINE"
);
},
{
closed = 1;
nodes = (
"382 396 OFFCURVE",
"350 440 OFFCURVE",
"288 440 CURVE SMOOTH",
"138 440 OFFCURVE",
"30 313 OFFCURVE",
"30 163 CURVE SMOOTH",
"30 73 OFFCURVE",
"76 -10 OFFCURVE",
"196 -10 CURVE SMOOTH",
"232 -10 OFFCURVE",
"345 36 OFFCURVE",
"389 89 CURVE",
"363 124 LINE",
"347 97 OFFCURVE",
"308 56 OFFCURVE",
"258 56 CURVE SMOOTH",
"168 56 OFFCURVE",
"125 140 OFFCURVE",
"125 230 CURVE SMOOTH",
"125 323 OFFCURVE",
"160 375 OFFCURVE",
"242 375 CURVE SMOOTH",
"301 375 OFFCURVE",
"367 332 OFFCURVE",
"382 233 CURVE",
"397 381 LINE"
);
},
{
closed = 1;
nodes = (
"360 -92 OFFCURVE",
"361 -152 OFFCURVE",
"358 -182 CURVE SMOOTH",
"355 -213 OFFCURVE",
"344 -221 OFFCURVE",
"277 -225 CURVE",
"277 -265 LINE",
"349 -262 OFFCURVE",
"437 -256 OFFCURVE",
"499 -260 CURVE",
"509 -230 LINE",
"461 -210 OFFCURVE",
"456 -65 OFFCURVE",
"449 244 CURVE",
"360 170 LINE"
);
}
);
width = 519;
},
{
associatedMasterId = "A23182C3-7ED8-49EC-89D2-A828F09177C3";
layerId = "5BDEE958-6CCB-48FA-9624-69E699ADFAE1";
name = "Jul 4 18, 16:32";
paths = (
{
closed = 1;
nodes = (
"353 372 OFFCURVE",
"356 259 OFFCURVE",
"363 64 CURVE",
"449 244 LINE",
"449 363 OFFCURVE",
"452 384 OFFCURVE",
"461 434 CURVE",
"454 440 LINE",
"339 415 LINE"
);
},
{
closed = 1;
nodes = (
"382 396 OFFCURVE",
"350 440 OFFCURVE",
"288 440 CURVE SMOOTH",
"138 440 OFFCURVE",
"30 313 OFFCURVE",
"30 163 CURVE SMOOTH",
"30 73 OFFCURVE",
"76 -10 OFFCURVE",
"196 -10 CURVE SMOOTH",
"232 -10 OFFCURVE",
"345 36 OFFCURVE",
"389 89 CURVE",
"374 109 LINE",
"350 86 OFFCURVE",
"308 56 OFFCURVE",
"258 56 CURVE SMOOTH",
"168 56 OFFCURVE",
"125 130 OFFCURVE",
"125 220 CURVE SMOOTH",
"125 313 OFFCURVE",
"160 375 OFFCURVE",
"242 375 CURVE SMOOTH",
"301 375 OFFCURVE",
"367 332 OFFCURVE",
"382 233 CURVE",
"397 381 LINE"
);
},
{
closed = 1;
nodes = (
"360 -132 OFFCURVE",
"361 -192 OFFCURVE",
"358 -222 CURVE SMOOTH",
"355 -253 OFFCURVE",
"344 -256 OFFCURVE",
"277 -260 CURVE",
"277 -300 LINE",
"349 -297 OFFCURVE",
"447 -296 OFFCURVE",
"509 -300 CURVE",
"509 -265 LINE",
"494 -261 LINE SMOOTH",
"475 -256 OFFCURVE",
"464 -246 OFFCURVE",
"458 -200 CURVE SMOOTH",
"446 -109 OFFCURVE",
"453 62 OFFCURVE",
"449 244 CURVE",
"360 170 LINE"
);
}
);
width = 519;
},
{
associatedMasterId = "A23182C3-7ED8-49EC-89D2-A828F09177C3";
layerId = "26F4F5C7-E6BF-4B06-81C0-B0F70EE6EB70";
name = "Jul 4 18, 17:13";
paths = (
{
closed = 1;
nodes = (
"353 372 OFFCURVE",
"356 259 OFFCURVE",
"363 64 CURVE",
"449 244 LINE",
"449 363 OFFCURVE",
"452 384 OFFCURVE",
"461 434 CURVE",
"454 440 LINE",
"339 415 LINE"
);
},
{
closed = 1;
nodes = (
"382 396 OFFCURVE",
"350 440 OFFCURVE",
"288 440 CURVE SMOOTH",
"138 440 OFFCURVE",
"30 313 OFFCURVE",
"30 173 CURVE SMOOTH",
"30 63 OFFCURVE",
"97 -10 OFFCURVE",
"227 -10 CURVE",
"390 65 LINE",
"376 93 LINE",
"349 76 OFFCURVE",
"309 55 OFFCURVE",
"259 55 CURVE SMOOTH",
"189 55 OFFCURVE",
"125 120 OFFCURVE",
"125 220 CURVE SMOOTH",
"125 303 OFFCURVE",
"160 375 OFFCURVE",
"242 375 CURVE SMOOTH",
"301 375 OFFCURVE",
"367 332 OFFCURVE",
"382 233 CURVE",
"397 381 LINE"
);
},
{
closed = 1;
nodes = (
"360 -132 OFFCURVE",
"361 -195 OFFCURVE",
"358 -225 CURVE SMOOTH",
"355 -256 OFFCURVE",
"344 -259 OFFCURVE",
"277 -263 CURVE",
"277 -303 LINE",
"349 -300 OFFCURVE",
"447 -299 OFFCURVE",
"509 -303 CURVE",
"509 -268 LINE",
"494 -264 LINE SMOOTH",
"475 -259 OFFCURVE",
"464 -249 OFFCURVE",
"458 -203 CURVE SMOOTH",
"446 -112 OFFCURVE",
"453 62 OFFCURVE",
"449 244 CURVE",
"360 170 LINE"
);
}
);
width = 519;
},
{
associatedMasterId = "A23182C3-7ED8-49EC-89D2-A828F09177C3";
background = {
components = (
{
name = d;
}
);
};
layerId = "72674F39-4DB4-4814-9A44-27B24F98F7B6";
name = "Aug 24 18, 17:54";
paths = (
{
closed = 1;
nodes = (
"395 403 OFFCURVE",
"350 440 OFFCURVE",
"288 440 CURVE SMOOTH",
"158 440 OFFCURVE",
"30 320 OFFCURVE",
"30 190 CURVE SMOOTH",
"30 70 OFFCURVE",
"96 -10 OFFCURVE",
"226 -10 CURVE",
"399 63 LINE",
"383 94 LINE",
"353 79 OFFCURVE",
"317 65 OFFCURVE",
"267 65 CURVE SMOOTH",
"187 65 OFFCURVE",
"120 130 OFFCURVE",
"120 230 CURVE SMOOTH",
"120 313 OFFCURVE",
"160 365 OFFCURVE",
"222 365 CURVE SMOOTH",
"281 365 OFFCURVE",
"366 344 OFFCURVE",
"384 300 CURVE",
"410 388 LINE"
);
},
{
closed = 1;
nodes = (
"475 -259 OFFCURVE",
"459 -249 OFFCURVE",
"456 -203 CURVE SMOOTH",
"451 -112 OFFCURVE",
"447 62 OFFCURVE",
"449 244 CURVE SMOOTH",
"450 363 OFFCURVE",
"450 383 OFFCURVE",
"462 430 CURVE",
"454 440 LINE",
"339 415 LINE",
"351 379 OFFCURVE",
"357 392 OFFCURVE",
"360 258 CURVE SMOOTH",
"366 -35 OFFCURVE",
"361 -196 OFFCURVE",
"358 -225 CURVE SMOOTH",
"355 -256 OFFCURVE",
"344 -259 OFFCURVE",
"277 -263 CURVE",
"277 -303 LINE",
"349 -300 OFFCURVE",
"447 -299 OFFCURVE",
"509 -303 CURVE",
"509 -268 LINE",
"494 -264 LINE SMOOTH"
);
}
);
width = 509;
}
);
rightMetricsKey = n;
unicode = 0071;
},
{
color = 4;
glyphname = q_bardes;
lastChange = "2019-04-24 15:11:29 +0000";
layers = (
{
layerId = "A23182C3-7ED8-49EC-89D2-A828F09177C3";
paths = (
{
closed = 1;
nodes = (
"422 160 LINE",
"405 106 OFFCURVE",
"332 56 OFFCURVE",
"269 56 CURVE SMOOTH",
"177 56 OFFCURVE",
"116 122 OFFCURVE",
"116 230 CURVE SMOOTH",
"116 326 OFFCURVE",
"171 392 OFFCURVE",
"275 392 CURVE SMOOTH",
"357 392 OFFCURVE",
"407 336 OFFCURVE",
"408 234 CURVE SMOOTH",
"410 129 LINE",
"410 113 LINE SMOOTH",
"412 -89 OFFCURVE",
"408 -201 OFFCURVE",
"406 -225 CURVE SMOOTH",
"403 -256 OFFCURVE",
"401 -264 OFFCURVE",
"354 -268 CURVE",
"354 -303 LINE",
"396 -300 OFFCURVE",
"495 -299 OFFCURVE",
"557 -303 CURVE",
"557 -268 LINE",
"510 -262 OFFCURVE",
"507 -261 OFFCURVE",
"504 -213 CURVE SMOOTH",
"499 -122 OFFCURVE",
"495 62 OFFCURVE",
"497 244 CURVE SMOOTH",
"498 363 OFFCURVE",
"510 383 OFFCURVE",
"522 430 CURVE",
"514 440 LINE",
"488 434 OFFCURVE",
"467 432 OFFCURVE",
"437 432 CURVE SMOOTH",
"391 432 OFFCURVE",
"328 441 OFFCURVE",
"266 441 CURVE SMOOTH",
"136 441 OFFCURVE",
"30 347 OFFCURVE",
"30 197 CURVE SMOOTH",
"30 97 OFFCURVE",
"83 -10 OFFCURVE",
"213 -10 CURVE SMOOTH",
"342 -10 OFFCURVE",
"392 69 OFFCURVE",
"443 123 CURVE"
);
},
{
closed = 1;
nodes = (
"544 -125 LINE",
"445 -147 OFFCURVE",
"346 -174 OFFCURVE",
"230 -247 CURVE",
"235 -260 LINE",
"354 -204 OFFCURVE",
"455 -192 OFFCURVE",
"557 -181 CURVE"
);
}
);
width = 582;
},
{
associatedMasterId = "A23182C3-7ED8-49EC-89D2-A828F09177C3";
components = (
{
name = q;
}
);
layerId = "43F8B5D0-1704-4269-8B1A-5273E1E21591";
name = "Aug 25 18, 13:26";
paths = (
{
closed = 1;
nodes = (
"411 -36 LINE",
"141 -181 LINE",
"159 -217 LINE",
"376 -123 LINE",
"508 -123 LINE",
"513 -93 OFFCURVE",
"514 -63 OFFCURVE",
"511 -33 CURVE"
);
}
);
width = 533;
}
);
leftMetricsKey = q;
rightMetricsKey = q;
unicode = A757;
},
{
color = 4;
glyphname = q_ra;
lastChange = "2019-04-23 14:20:51 +0000";
layers = (
{
layerId = "A23182C3-7ED8-49EC-89D2-A828F09177C3";
paths = (
{
closed = 1;
nodes = (
"422 160 LINE",
"405 106 OFFCURVE",
"332 56 OFFCURVE",
"269 56 CURVE SMOOTH",
"177 56 OFFCURVE",
"116 122 OFFCURVE",
"116 230 CURVE SMOOTH",
"116 326 OFFCURVE",
"171 392 OFFCURVE",
"275 392 CURVE SMOOTH",
"357 392 OFFCURVE",
"407 336 OFFCURVE",
"408 234 CURVE SMOOTH",
"410 129 LINE",
"410 113 LINE SMOOTH",
"412 -89 OFFCURVE",
"408 -201 OFFCURVE",
"406 -225 CURVE SMOOTH",
"403 -256 OFFCURVE",
"401 -264 OFFCURVE",
"354 -268 CURVE",
"354 -303 LINE",
"396 -300 OFFCURVE",
"495 -299 OFFCURVE",
"557 -303 CURVE",
"557 -268 LINE",
"510 -262 OFFCURVE",
"507 -261 OFFCURVE",
"504 -213 CURVE SMOOTH",
"499 -122 OFFCURVE",
"495 62 OFFCURVE",
"497 244 CURVE SMOOTH",
"498 363 OFFCURVE",
"510 383 OFFCURVE",
"522 430 CURVE",
"514 440 LINE",
"488 434 OFFCURVE",
"467 432 OFFCURVE",
"437 432 CURVE SMOOTH",
"391 432 OFFCURVE",
"328 441 OFFCURVE",
"266 441 CURVE SMOOTH",
"136 441 OFFCURVE",
"30 347 OFFCURVE",
"30 197 CURVE SMOOTH",
"30 97 OFFCURVE",
"83 -10 OFFCURVE",
"213 -10 CURVE SMOOTH",
"342 -10 OFFCURVE",
"392 69 OFFCURVE",
"443 123 CURVE"
);
},
{
closed = 1;
nodes = (
"196 641 LINE",
"185 607 OFFCURVE",
"167 582 OFFCURVE",
"168 566 CURVE",
"171 541 OFFCURVE",
"198 503 OFFCURVE",
"241 503 CURVE SMOOTH",
"283 503 OFFCURVE",
"312 533 OFFCURVE",
"367 581 CURVE",
"317 565 LINE",
"331 546 OFFCURVE",
"355 502 OFFCURVE",
"413 502 CURVE SMOOTH",
"470 502 OFFCURVE",
"517 583 OFFCURVE",
"515 669 CURVE",
"489 665 LINE",
"485 602 OFFCURVE",
"467 573 OFFCURVE",
"424 573 CURVE SMOOTH",
"395 573 OFFCURVE",
"362 596 OFFCURVE",
"377 656 CURVE",
"352 662 LINE",
"348 606 OFFCURVE",
"320 565 OFFCURVE",
"279 565 CURVE SMOOTH",
"240 565 OFFCURVE",
"214 598 OFFCURVE",
"214 636 CURVE"
);
}
);
width = 582;
}
);
leftMetricsKey = q;
rightMetricsKey = q;
},
{
color = 4;
glyphname = q_bardes_ra;
lastChange = "2019-04-24 15:11:29 +0000";
layers = (
{
layerId = "A23182C3-7ED8-49EC-89D2-A828F09177C3";
paths = (
{
closed = 1;
nodes = (
"422 160 LINE",
"405 106 OFFCURVE",
"332 56 OFFCURVE",
"269 56 CURVE SMOOTH",
"177 56 OFFCURVE",
"116 122 OFFCURVE",
"116 230 CURVE SMOOTH",
"116 326 OFFCURVE",
"171 392 OFFCURVE",
"275 392 CURVE SMOOTH",
"357 392 OFFCURVE",
"407 336 OFFCURVE",
"408 234 CURVE SMOOTH",
"410 129 LINE",
"410 113 LINE SMOOTH",
"412 -89 OFFCURVE",
"408 -201 OFFCURVE",
"406 -225 CURVE SMOOTH",
"403 -256 OFFCURVE",
"401 -264 OFFCURVE",
"354 -268 CURVE",
"354 -303 LINE",
"396 -300 OFFCURVE",
"495 -299 OFFCURVE",
"557 -303 CURVE",
"557 -268 LINE",
"510 -262 OFFCURVE",
"507 -261 OFFCURVE",
"504 -213 CURVE SMOOTH",
"499 -122 OFFCURVE",
"495 62 OFFCURVE",
"497 244 CURVE SMOOTH",
"498 363 OFFCURVE",
"510 383 OFFCURVE",
"522 430 CURVE",
"514 440 LINE",
"488 434 OFFCURVE",
"467 432 OFFCURVE",
"437 432 CURVE SMOOTH",
"391 432 OFFCURVE",
"328 441 OFFCURVE",
"266 441 CURVE SMOOTH",
"136 441 OFFCURVE",
"30 347 OFFCURVE",
"30 197 CURVE SMOOTH",
"30 97 OFFCURVE",
"83 -10 OFFCURVE",
"213 -10 CURVE SMOOTH",
"342 -10 OFFCURVE",
"392 69 OFFCURVE",
"443 123 CURVE"
);
},
{
closed = 1;
nodes = (
"196 641 LINE",
"185 607 OFFCURVE",
"167 582 OFFCURVE",
"168 566 CURVE",
"171 541 OFFCURVE",
"198 503 OFFCURVE",
"241 503 CURVE SMOOTH",
"283 503 OFFCURVE",
"312 533 OFFCURVE",
"367 581 CURVE",
"317 565 LINE",
"331 546 OFFCURVE",
"355 502 OFFCURVE",
"413 502 CURVE SMOOTH",
"470 502 OFFCURVE",
"517 583 OFFCURVE",
"515 669 CURVE",
"490 665 LINE",
"486 602 OFFCURVE",
"467 573 OFFCURVE",
"424 573 CURVE SMOOTH",
"395 573 OFFCURVE",
"362 596 OFFCURVE",
"377 656 CURVE",
"352 662 LINE",
"348 606 OFFCURVE",
"320 565 OFFCURVE",
"279 565 CURVE SMOOTH",
"240 565 OFFCURVE",
"214 598 OFFCURVE",
"214 636 CURVE"
);
},
{
closed = 1;
nodes = (
"540 -125 LINE",
"441 -147 OFFCURVE",
"342 -174 OFFCURVE",
"226 -247 CURVE",
"231 -260 LINE",
"350 -204 OFFCURVE",
"451 -192 OFFCURVE",
"553 -181 CURVE"
);
}
);
width = 513;
},
{
associatedMasterId = "A23182C3-7ED8-49EC-89D2-A828F09177C3";
layerId = "178FE3CF-9B6A-4C5D-8B8F-E5CE620916E8";
name = "May 10 18, 16:57";
width = 514;
},
{
associatedMasterId = "A23182C3-7ED8-49EC-89D2-A828F09177C3";
background = {
paths = (
{
closed = 1;
nodes = (
"117 679 OFFCURVE",
"112 688 OFFCURVE",
"103 688 CURVE SMOOTH",
"99 688 OFFCURVE",
"94 686 OFFCURVE",
"88 682 CURVE SMOOTH",
"60 663 OFFCURVE",
"47 659 OFFCURVE",
"47 626 CURVE SMOOTH",
"47 577 OFFCURVE",
"74 510 OFFCURVE",
"120 510 CURVE SMOOTH",
"152 510 OFFCURVE",
"219 544 OFFCURVE",
"241 558 CURVE",
"262 526 OFFCURVE",
"304 513 OFFCURVE",
"334 513 CURVE SMOOTH",
"426 513 OFFCURVE",
"491 632 OFFCURVE",
"493 756 CURVE",
"463 766 LINE SMOOTH",
"459 767 OFFCURVE",
"455 768 OFFCURVE",
"451 768 CURVE SMOOTH",
"437 768 OFFCURVE",
"429 758 OFFCURVE",
"428 742 CURVE SMOOTH",
"423 663 OFFCURVE",
"391 603 OFFCURVE",
"346 603 CURVE SMOOTH",
"302 603 OFFCURVE",
"278 667 OFFCURVE",
"278 720 CURVE SMOOTH",
"278 730 OFFCURVE",
"279 740 OFFCURVE",
"281 749 CURVE",
"274 751 OFFCURVE",
"259 750 OFFCURVE",
"244 745 CURVE",
"245 655 OFFCURVE",
"233 594 OFFCURVE",
"172 594 CURVE SMOOTH",
"131 594 OFFCURVE",
"118 621 OFFCURVE",
"117 665 CURVE"
);
}
);
};
components = (
{
name = q_bardes;
}
);
layerId = "A3F495AE-A666-40B5-B2B3-BD6BDDDE1C97";
name = "Aug 25 18, 13:28";
paths = (
{
closed = 1;
nodes = (
"159 657 OFFCURVE",
"153 694 CURVE",
"114 687 OFFCURVE",
"81 673 OFFCURVE",
"81 633 CURVE SMOOTH",
"81 595 OFFCURVE",
"111 510 OFFCURVE",
"162 510 CURVE SMOOTH",
"191 510 OFFCURVE",
"260 538 OFFCURVE",
"283 560 CURVE",
"302 526 OFFCURVE",
"344 513 OFFCURVE",
"374 513 CURVE SMOOTH",
"466 513 OFFCURVE",
"531 632 OFFCURVE",
"545 756 CURVE",
"506 772 OFFCURVE",
"477 767 OFFCURVE",
"469 738 CURVE SMOOTH",
"440 633 OFFCURVE",
"433 603 OFFCURVE",
"394 603 CURVE SMOOTH",
"337 603 OFFCURVE",
"318 668 OFFCURVE",
"318 718 CURVE SMOOTH",
"318 730 OFFCURVE",
"319 740 OFFCURVE",
"321 749 CURVE",
"284 745 LINE",
"285 655 OFFCURVE",
"273 594 OFFCURVE",
"212 594 CURVE SMOOTH",
"149 594 OFFCURVE"
);
}
);
width = 604;
}
);
leftMetricsKey = q;
},
{
color = 4;
glyphname = q_strok;
lastChange = "2019-04-24 15:11:29 +0000";
layers = (
{
background = {
components = (
{
name = q.ss01;
transform = "{1, 0, 0, 1, 14, 0}";
}
);
};
layerId = "A23182C3-7ED8-49EC-89D2-A828F09177C3";
paths = (
{
closed = 1;
nodes = (
"469 -61 OFFCURVE",
"662 101 OFFCURVE",
"662 244 CURVE SMOOTH",
"662 307 OFFCURVE",
"617 365 OFFCURVE",
"575 375 CURVE",
"561 365 OFFCURVE",
"510 310 OFFCURVE",
"471 290 CURVE",
"471 258 LINE",
"545 303 OFFCURVE",
"592 267 OFFCURVE",
"592 204 CURVE SMOOTH",
"592 54 OFFCURVE",
"343 -101 OFFCURVE",
"239 -171 CURVE",
"262 -196 LINE"
);
},
{
closed = 1;
nodes = (
"422 160 LINE",
"405 106 OFFCURVE",
"332 56 OFFCURVE",
"269 56 CURVE SMOOTH",
"177 56 OFFCURVE",
"116 122 OFFCURVE",
"116 230 CURVE SMOOTH",
"116 326 OFFCURVE",
"171 392 OFFCURVE",
"275 392 CURVE SMOOTH",
"357 392 OFFCURVE",
"407 336 OFFCURVE",
"408 234 CURVE SMOOTH",
"410 129 LINE",
"410 113 LINE SMOOTH",
"412 -89 OFFCURVE",
"408 -201 OFFCURVE",
"406 -225 CURVE SMOOTH",
"403 -256 OFFCURVE",
"401 -264 OFFCURVE",
"354 -268 CURVE",
"354 -303 LINE",
"396 -300 OFFCURVE",
"495 -299 OFFCURVE",
"557 -303 CURVE",
"557 -268 LINE",
"510 -262 OFFCURVE",
"507 -261 OFFCURVE",
"504 -213 CURVE SMOOTH",
"499 -122 OFFCURVE",
"495 62 OFFCURVE",
"497 244 CURVE SMOOTH",
"498 363 OFFCURVE",
"510 383 OFFCURVE",
"522 430 CURVE",
"514 440 LINE",
"488 434 OFFCURVE",
"467 432 OFFCURVE",
"437 432 CURVE SMOOTH",
"391 432 OFFCURVE",
"328 441 OFFCURVE",
"266 441 CURVE SMOOTH",
"136 441 OFFCURVE",
"30 347 OFFCURVE",
"30 197 CURVE SMOOTH",
"30 97 OFFCURVE",
"83 -10 OFFCURVE",
"213 -10 CURVE SMOOTH",
"342 -10 OFFCURVE",
"392 69 OFFCURVE",
"443 123 CURVE"
);
}
);
width = 692;
},
{
associatedMasterId = "A23182C3-7ED8-49EC-89D2-A828F09177C3";
background = {
components = (
{
name = q.ss01;
transform = "{1, 0, 0, 1, 14, 0}";
}
);
};
components = (
{
name = q;
}
);
layerId = "E1075C73-768A-419E-BFB8-BC0C5A7BAF90";
name = "Aug 25 18, 10:56";
paths = (
{
closed = 1;
nodes = (
"286 -142 OFFCURVE",
"335 -116 OFFCURVE",
"387 -84 CURVE",
"409 -69 OFFCURVE",
"426 -73 OFFCURVE",
"446 -53 CURVE",
"562 30 OFFCURVE",
"646 148 OFFCURVE",
"646 244 CURVE SMOOTH",
"646 289 OFFCURVE",
"629 334 OFFCURVE",
"606 357 CURVE SMOOTH",
"583 379 OFFCURVE",
"566 373 OFFCURVE",
"553 364 CURVE SMOOTH",
"449 292 LINE",
"449 260 LINE",
"485 284 LINE",
"522 256 OFFCURVE",
"532 207 OFFCURVE",
"532 175 CURVE SMOOTH",
"532 119 OFFCURVE",
"500 69 OFFCURVE",
"446 19 CURVE",
"442 19 OFFCURVE",
"438 18 OFFCURVE",
"421 5 CURVE SMOOTH",
"374 -33 OFFCURVE",
"294 -83 OFFCURVE",
"201 -135 CURVE",
"222 -176 LINE"
);
}
);
width = 661;
}
);
leftMetricsKey = q;
rightMetricsKey = p;
unicode = A759;
},
{
color = 4;
glyphname = q_etfin;
lastChange = "2019-04-24 15:11:29 +0000";
layers = (
{
layerId = "A23182C3-7ED8-49EC-89D2-A828F09177C3";
paths = (
{
closed = 1;
nodes = (
"548 415 OFFCURVE",
"573 440 OFFCURVE",
"602 440 CURVE SMOOTH",
"632 440 OFFCURVE",
"650 420 OFFCURVE",
"650 390 CURVE SMOOTH",
"650 345 OFFCURVE",
"614 301 OFFCURVE",
"566 249 CURVE",
"546 264 LINE",
"564 286 OFFCURVE",
"582 323 OFFCURVE",
"582 351 CURVE SMOOTH",
"582 371 OFFCURVE",
"574 383 OFFCURVE",
"554 383 CURVE"
);
},
{
closed = 1;
nodes = (
"561 153 OFFCURVE",
"588 166 OFFCURVE",
"601 166 CURVE SMOOTH",
"619 166 OFFCURVE",
"636 142 OFFCURVE",
"636 110 CURVE SMOOTH",
"636 72 OFFCURVE",
"611 30 OFFCURVE",
"570 -10 CURVE",
"552 2 LINE",
"567 33 OFFCURVE",
"573 58 OFFCURVE",
"573 73 CURVE SMOOTH",
"573 98 OFFCURVE",
"562 119 OFFCURVE",
"545 132 CURVE"
);
},
{
closed = 1;
nodes = (
"422 160 LINE",
"405 106 OFFCURVE",
"332 56 OFFCURVE",
"269 56 CURVE SMOOTH",
"177 56 OFFCURVE",
"116 122 OFFCURVE",
"116 230 CURVE SMOOTH",
"116 326 OFFCURVE",
"171 392 OFFCURVE",
"275 392 CURVE SMOOTH",
"357 392 OFFCURVE",
"407 336 OFFCURVE",
"408 234 CURVE SMOOTH",
"410 129 LINE",
"410 113 LINE SMOOTH",
"412 -89 OFFCURVE",
"408 -201 OFFCURVE",
"406 -225 CURVE SMOOTH",
"403 -256 OFFCURVE",
"401 -264 OFFCURVE",
"354 -268 CURVE",
"354 -303 LINE",
"396 -300 OFFCURVE",
"495 -299 OFFCURVE",
"557 -303 CURVE",
"557 -268 LINE",
"510 -262 OFFCURVE",
"507 -261 OFFCURVE",
"504 -213 CURVE SMOOTH",
"499 -122 OFFCURVE",
"495 62 OFFCURVE",
"497 244 CURVE SMOOTH",
"498 363 OFFCURVE",
"510 383 OFFCURVE",
"522 430 CURVE",
"514 440 LINE",
"488 434 OFFCURVE",
"467 432 OFFCURVE",
"437 432 CURVE SMOOTH",
"391 432 OFFCURVE",
"328 441 OFFCURVE",
"266 441 CURVE SMOOTH",
"136 441 OFFCURVE",
"30 347 OFFCURVE",
"30 197 CURVE SMOOTH",
"30 97 OFFCURVE",
"83 -10 OFFCURVE",
"213 -10 CURVE SMOOTH",
"342 -10 OFFCURVE",
"392 69 OFFCURVE",
"443 123 CURVE"
);
}
);
width = 670;
},
{
associatedMasterId = "A23182C3-7ED8-49EC-89D2-A828F09177C3";
layerId = "FE189191-6DF4-4F21-91FB-803432E0A046";
name = Image;
width = 550;
},
{
associatedMasterId = "A23182C3-7ED8-49EC-89D2-A828F09177C3";
background = {
paths = (
{
closed = 1;
nodes = (
"423 386 OFFCURVE",
"360 437 OFFCURVE",
"268 437 CURVE SMOOTH",
"158 437 OFFCURVE",
"42 365 OFFCURVE",
"42 208 CURVE SMOOTH",
"42 89 OFFCURVE",
"101 21 OFFCURVE",
"198 21 CURVE SMOOTH",
"273 21 OFFCURVE",
"351 63 OFFCURVE",
"408 104 CURVE",
"394 130 LINE",
"357 104 OFFCURVE",
"324 89 OFFCURVE",
"276 89 CURVE SMOOTH",
"191 89 OFFCURVE",
"132 142 OFFCURVE",
"132 232 CURVE SMOOTH",
"132 310 OFFCURVE",
"171 380 OFFCURVE",
"250 380 CURVE SMOOTH",
"311 380 OFFCURVE",
"359 339 OFFCURVE",
"392 294 CURVE",
"423 386 LINE"
);
},
{
closed = 1;
nodes = (
"347 371 OFFCURVE",
"360 289 OFFCURVE",
"362 94 CURVE SMOOTH",
"365 5 OFFCURVE",
"366 -177 OFFCURVE",
"365 -187 CURVE SMOOTH",
"362 -216 OFFCURVE",
"349 -221 OFFCURVE",
"313 -228 CURVE",
"309 -238 OFFCURVE",
"309 -250 OFFCURVE",
"310 -260 CURVE",
"373 -262 OFFCURVE",
"436 -262 OFFCURVE",
"497 -260 CURVE",
"500 -246 OFFCURVE",
"500 -234 OFFCURVE",
"497 -221 CURVE",
"476 -208 OFFCURVE",
"461 -183 OFFCURVE",
"456 -167 CURVE SMOOTH",
"448 -138 OFFCURVE",
"441 -30 OFFCURVE",
"441 114 CURVE SMOOTH",
"441 323 OFFCURVE",
"444 386 OFFCURVE",
"453 436 CURVE",
"436 449 LINE",
"403 436 OFFCURVE",
"371 421 OFFCURVE",
"333 414 CURVE"
);
},
{
closed = 1;
nodes = (
"488 403 OFFCURVE",
"503 428 OFFCURVE",
"532 428 CURVE SMOOTH",
"564 428 OFFCURVE",
"590 408 OFFCURVE",
"590 368 CURVE SMOOTH",
"590 323 OFFCURVE",
"550 275 OFFCURVE",
"499 242 CURVE",
"487 254 LINE",
"505 276 OFFCURVE",
"522 291 OFFCURVE",
"522 319 CURVE SMOOTH",
"522 339 OFFCURVE",
"517 371 OFFCURVE",
"494 371 CURVE"
);
},
{
closed = 1;
nodes = (
"504 151 OFFCURVE",
"518 160 OFFCURVE",
"541 160 CURVE SMOOTH",
"559 160 OFFCURVE",
"576 126 OFFCURVE",
"576 104 CURVE SMOOTH",
"576 56 OFFCURVE",
"532 24 OFFCURVE",
"510 -16 CURVE",
"492 -4 LINE",
"507 27 OFFCURVE",
"513 62 OFFCURVE",
"513 87 CURVE SMOOTH",
"513 112 OFFCURVE",
"499 124 OFFCURVE",
"488 140 CURVE"
);
}
);
};
components = (
{
name = q;
transform = "{1, 0, 0, 1, -20, 0}";
}
);
layerId = "78FFB87E-ECBB-4F80-8E0E-211FB0DAB5DE";
name = "Aug 25 18, 13:36";
paths = (
{
closed = 1;
nodes = (
"488 403 OFFCURVE",
"503 428 OFFCURVE",
"532 428 CURVE SMOOTH",
"564 428 OFFCURVE",
"590 408 OFFCURVE",
"590 368 CURVE SMOOTH",
"590 323 OFFCURVE",
"550 275 OFFCURVE",
"499 242 CURVE",
"487 254 LINE",
"505 276 OFFCURVE",
"522 291 OFFCURVE",
"522 319 CURVE SMOOTH",
"522 339 OFFCURVE",
"517 371 OFFCURVE",
"494 371 CURVE"
);
},
{
closed = 1;
nodes = (
"504 151 OFFCURVE",
"518 160 OFFCURVE",
"541 160 CURVE SMOOTH",
"559 160 OFFCURVE",
"576 126 OFFCURVE",
"576 104 CURVE SMOOTH",
"576 56 OFFCURVE",
"532 24 OFFCURVE",
"510 -16 CURVE",
"492 -4 LINE",
"507 27 OFFCURVE",
"513 62 OFFCURVE",
"513 87 CURVE SMOOTH",
"513 112 OFFCURVE",
"499 124 OFFCURVE",
"488 140 CURVE"
);
}
);
width = 600;
}
);
leftMetricsKey = q;
unicode = E8BF;
},
{
color = 4;
glyphname = r;
lastChange = "2019-04-24 15:11:29 +0000";
layers = (
{
layerId = "A23182C3-7ED8-49EC-89D2-A828F09177C3";
paths = (
{
closed = 1;
nodes = (
"67 35 LINE",
"112 42 OFFCURVE",
"115 42 OFFCURVE",
"118 120 CURVE SMOOTH",
"118 125 OFFCURVE",
"118 159 OFFCURVE",
"118 232 CURVE SMOOTH",
"118 314 OFFCURVE",
"95 351 OFFCURVE",
"33 347 CURVE",
"25 370 LINE",
"63 395 OFFCURVE",
"118 425 OFFCURVE",
"146 440 CURVE",
"202 336 LINE",
"202 320 LINE",
"201 118 LINE SMOOTH",
"201 47 OFFCURVE",
"201 41 OFFCURVE",
"253 35 CURVE",
"253 0 LINE",
"194 4 OFFCURVE",
"136 4 OFFCURVE",
"67 0 CURVE"
);
},
{
closed = 1;
nodes = (
"407 384 LINE",
"330 296 LINE",
"278 320 OFFCURVE",
"252 325 OFFCURVE",
"195 301 CURVE",
"189 330 LINE",
"229 355 OFFCURVE",
"273 400 OFFCURVE",
"304 440 CURVE",
"334 421 OFFCURVE",
"362 401 OFFCURVE",
"404 396 CURVE"
);
}
);
width = 420;
},
{
associatedMasterId = "A23182C3-7ED8-49EC-89D2-A828F09177C3";
background = {
paths = (
{
closed = 0;
nodes = (
"72 147 LINE",
"75 213 OFFCURVE",
"72 268 OFFCURVE",
"68 301 CURVE",
"68 314 OFFCURVE",
"28 353 OFFCURVE",
"9 358 CURVE",
"9 367 OFFCURVE",
"10 376 OFFCURVE",
"14 385 CURVE",
"64 390 OFFCURVE",
"96 406 OFFCURVE",
"124 421 CURVE",
"133 416 OFFCURVE",
"141 409 OFFCURVE",
"146 403 CURVE",
"144 390 OFFCURVE",
"146 371 OFFCURVE",
"146 349 CURVE SMOOTH",
"146 346 OFFCURVE",
"158 344 OFFCURVE",
"158 341 CURVE SMOOTH",
"157 294 OFFCURVE",
"152 219 OFFCURVE",
"155 156 CURVE"
);
},
{
closed = 1;
nodes = (
"363 393 LINE SMOOTH",
"366 391 OFFCURVE",
"368 388 OFFCURVE",
"367 385 CURVE SMOOTH",
"356 345 OFFCURVE",
"287 302 OFFCURVE",
"262 302 CURVE SMOOTH",
"228 302 OFFCURVE",
"206 331 OFFCURVE",
"190 331 CURVE SMOOTH",
"180 331 OFFCURVE",
"168 326 OFFCURVE",
"152 320 CURVE",
"137 374 LINE",
"191 374 OFFCURVE",
"232 416 OFFCURVE",
"249 416 CURVE SMOOTH",
"280 416 OFFCURVE",
"298 362 OFFCURVE",
"350 402 CURVE"
);
},
{
closed = 0;
nodes = (
"155 156 LINE",
"157 94 OFFCURVE",
"168 43 OFFCURVE",
"200 41 CURVE",
"201 31 OFFCURVE",
"201 21 OFFCURVE",
"198 11 CURVE",
"148 9 OFFCURVE",
"106 7 OFFCURVE",
"60 -3 CURVE",
"67 50 OFFCURVE",
"71 101 OFFCURVE",
"72 147 CURVE"
);
}
);
};
layerId = "171034A9-99CB-4547-AC09-E4E221360F19";
name = "Jun 26 18, 11:30";
paths = (
{
closed = 1;
nodes = (
"58 316 LINE SMOOTH",
"58 344 OFFCURVE",
"45 379 OFFCURVE",
"15 379 CURVE",
"15 419 LINE",
"53 419 OFFCURVE",
"110 425 OFFCURVE",
"138 440 CURVE",
"148 430 LINE",
"148 349 LINE",
"148 346 OFFCURVE",
"158 344 OFFCURVE",
"158 341 CURVE SMOOTH",
"157 309 OFFCURVE",
"150 75 OFFCURVE",
"162 0 CURVE",
"58 0 LINE"
);
},
{
closed = 1;
nodes = (
"359 391 LINE",
"288 322 LINE",
"254 322 OFFCURVE",
"215 346 OFFCURVE",
"195 346 CURVE SMOOTH",
"183 346 OFFCURVE",
"162 340 OFFCURVE",
"149 333 CURVE",
"138 367 LINE",
"174 385 OFFCURVE",
"220 415 OFFCURVE",
"256 440 CURVE",
"294 440 OFFCURVE",
"317 415 OFFCURVE",
"350 412 CURVE"
);
}
);
width = 379;
}
);
leftMetricsKey = n;
unicode = 0072;
},
{
color = 4;
glyphname = r.ss01;
lastChange = "2019-01-08 14:53:43 +0000";
layers = (
{
layerId = "A23182C3-7ED8-49EC-89D2-A828F09177C3";
paths = (
{
closed = 1;
nodes = (
"31 -4 LINE",
"36 142 OFFCURVE",
"37 295 OFFCURVE",
"25 430 CURVE",
"121 430 LINE",
"123 366 LINE",
"123 350 LINE",
"123 243 OFFCURVE",
"124 107 OFFCURVE",
"126 0 CURVE"
);
},
{
closed = 1;
nodes = (
"328 394 LINE",
"231 310 LINE",
"201 330 OFFCURVE",
"173 355 OFFCURVE",
"116 331 CURVE",
"110 360 LINE",
"150 385 OFFCURVE",
"181 407 OFFCURVE",
"215 440 CURVE",
"245 421 OFFCURVE",
"283 411 OFFCURVE",
"325 406 CURVE"
);
}
);
width = 341;
}
);
leftMetricsKey = r;
rightMetricsKey = r;
},
{
color = 4;
glyphname = s;
lastChange = "2019-04-24 15:11:29 +0000";
layers = (
{
layerId = "A23182C3-7ED8-49EC-89D2-A828F09177C3";
paths = (
{
closed = 1;
nodes = (
"163 0 LINE",
"152 188 OFFCURVE",
"154 387 OFFCURVE",
"154 541 CURVE SMOOTH",
"154 614 OFFCURVE",
"191 655 OFFCURVE",
"246 655 CURVE SMOOTH",
"282 655 OFFCURVE",
"311 625 OFFCURVE",
"328 594 CURVE",
"401 601 LINE",
"406 614 LINE",
"390 673 OFFCURVE",
"345 712 OFFCURVE",
"282 712 CURVE SMOOTH",
"174 712 OFFCURVE",
"98 612 OFFCURVE",
"83 523 CURVE SMOOTH",
"66 421 OFFCURVE",
"61 406 OFFCURVE",
"35 383 CURVE",
"35 372 LINE",
"48 363 OFFCURVE",
"67 341 OFFCURVE",
"67 303 CURVE SMOOTH",
"67 166 OFFCURVE",
"70 86 OFFCURVE",
"68 0 CURVE"
);
}
);
width = 261;
},
{
associatedMasterId = "A23182C3-7ED8-49EC-89D2-A828F09177C3";
layerId = "815F62DB-B755-4358-95D3-04ACC6F005E4";
name = Image;
width = 290;
},
{
associatedMasterId = "A23182C3-7ED8-49EC-89D2-A828F09177C3";
background = {
paths = (
{
closed = 1;
nodes = (
"182 1 LINE",
"156 189 OFFCURVE",
"141 441 OFFCURVE",
"141 525 CURVE SMOOTH",
"141 590 OFFCURVE",
"156 617 OFFCURVE",
"172 633 CURVE SMOOTH",
"185 646 OFFCURVE",
"202 649 OFFCURVE",
"213 649 CURVE SMOOTH",
"249 649 OFFCURVE",
"275 628 OFFCURVE",
"275 508 CURVE",
"320 497 LINE",
"351 599 OFFCURVE",
"358 632 OFFCURVE",
"359 672 CURVE",
"330 700 OFFCURVE",
"299 710 OFFCURVE",
"257 710 CURVE SMOOTH",
"212 710 OFFCURVE",
"168 691 OFFCURVE",
"126 658 CURVE SMOOTH",
"84 625 OFFCURVE",
"54 559 OFFCURVE",
"54 474 CURVE SMOOTH",
"54 428 OFFCURVE",
"42 419 OFFCURVE",
"15 397 CURVE",
"15 365 LINE",
"31 354 OFFCURVE",
"46 349 OFFCURVE",
"57 319 CURVE",
"57 153 OFFCURVE",
"53 107 OFFCURVE",
"43 14 CURVE",
"48 -1 LINE"
);
}
);
};
layerId = "64AC86AA-6075-433E-9FBA-9191C4CC2A06";
name = "Jun 26 18, 11:58";
paths = (
{
closed = 1;
nodes = (
"155 0 LINE",
"146 188 OFFCURVE",
"144 441 OFFCURVE",
"144 525 CURVE SMOOTH",
"144 592 OFFCURVE",
"150 637 OFFCURVE",
"205 637 CURVE SMOOTH",
"222 637 OFFCURVE",
"263 642 OFFCURVE",
"274 609 CURVE",
"304 601 OFFCURVE",
"334 599 OFFCURVE",
"369 609 CURVE",
"369 612 LINE",
"352 687 OFFCURVE",
"279 710 OFFCURVE",
"237 710 CURVE SMOOTH",
"192 710 OFFCURVE",
"141 674 OFFCURVE",
"122 659 CURVE SMOOTH",
"80 626 OFFCURVE",
"54 561 OFFCURVE",
"54 474 CURVE SMOOTH",
"54 398 OFFCURVE",
"45 388 OFFCURVE",
"25 375 CURVE",
"25 335 LINE",
"57 335 LINE",
"59 177 OFFCURVE",
"55 86 OFFCURVE",
"53 0 CURVE"
);
}
);
width = 249;
}
);
leftMetricsKey = longs;
rightMetricsKey = longs;
unicode = 0073;
},
{
color = 6;
glyphname = s.ss01;
lastChange = "2019-04-23 13:01:13 +0000";
layers = (
{
layerId = "A23182C3-7ED8-49EC-89D2-A828F09177C3";
paths = (
{
closed = 1;
nodes = (
"369 47 OFFCURVE",
"289 -10 OFFCURVE",
"199 -10 CURVE SMOOTH",
"109 -10 OFFCURVE",
"58 16 OFFCURVE",
"29 24 CURVE",
"43 127 LINE",
"70 127 LINE",
"73 70 OFFCURVE",
"154 30 OFFCURVE",
"200 30 CURVE SMOOTH",
"248 30 OFFCURVE",
"281 52 OFFCURVE",
"281 92 CURVE SMOOTH",
"281 142 OFFCURVE",
"227 159 OFFCURVE",
"156 184 CURVE SMOOTH",
"58 219 OFFCURVE",
"20 242 OFFCURVE",
"20 287 CURVE SMOOTH",
"20 325 OFFCURVE",
"33 342 OFFCURVE",
"48 361 CURVE",
"71 382 OFFCURVE",
"149 426 OFFCURVE",
"183 440 CURVE",
"239 431 OFFCURVE",
"280 412 OFFCURVE",
"310 397 CURVE SMOOTH",
"336 384 OFFCURVE",
"347 383 OFFCURVE",
"369 384 CURVE",
"372 364 LINE",
"292 297 LINE",
"262 339 OFFCURVE",
"209 366 OFFCURVE",
"161 366 CURVE SMOOTH",
"121 366 OFFCURVE",
"94 357 OFFCURVE",
"94 326 CURVE SMOOTH",
"94 299 OFFCURVE",
"117 281 OFFCURVE",
"199 257 CURVE SMOOTH",
"307 226 OFFCURVE",
"369 206 OFFCURVE",
"369 127 CURVE SMOOTH"
);
}
);
width = 392;
}
);
},
{
color = 4;
glyphname = longs;
lastChange = "2019-04-23 12:07:46 +0000";
layers = (
{
layerId = "A23182C3-7ED8-49EC-89D2-A828F09177C3";
paths = (
{
closed = 1;
nodes = (
"163 0 LINE",
"152 188 OFFCURVE",
"154 387 OFFCURVE",
"154 541 CURVE SMOOTH",
"154 614 OFFCURVE",
"191 655 OFFCURVE",
"246 655 CURVE SMOOTH",
"282 655 OFFCURVE",
"311 625 OFFCURVE",
"328 594 CURVE",
"401 601 LINE",
"406 614 LINE",
"390 673 OFFCURVE",
"345 712 OFFCURVE",
"282 712 CURVE SMOOTH",
"174 712 OFFCURVE",
"98 612 OFFCURVE",
"83 523 CURVE SMOOTH",
"66 421 OFFCURVE",
"61 406 OFFCURVE",
"35 383 CURVE",
"35 372 LINE",
"48 363 OFFCURVE",
"67 341 OFFCURVE",
"67 303 CURVE SMOOTH",
"67 166 OFFCURVE",
"70 86 OFFCURVE",
"68 0 CURVE"
);
}
);
width = 261;
}
);
unicode = 017F;
},
{
color = 4;
glyphname = longs_i;
lastChange = "2019-04-23 13:01:25 +0000";
layers = (
{
components = (
{
alignment = -1;
name = i;
transform = "{1, 0, 0, 1, 200, 0}";
}
);
layerId = "A23182C3-7ED8-49EC-89D2-A828F09177C3";
paths = (
{
closed = 1;
nodes = (
"169 0 LINE",
"158 188 OFFCURVE",
"144 524 OFFCURVE",
"154 610 CURVE",
"200 637 OFFCURVE",
"283 641 OFFCURVE",
"388 623 CURVE",
"396 687 LINE",
"311 735 OFFCURVE",
"174 690 OFFCURVE",
"120 648 CURVE",
"103 546 OFFCURVE",
"61 406 OFFCURVE",
"35 383 CURVE",
"35 372 LINE",
"48 363 OFFCURVE",
"67 341 OFFCURVE",
"67 303 CURVE SMOOTH",
"67 166 OFFCURVE",
"70 86 OFFCURVE",
"68 0 CURVE"
);
}
);
width = 447;
}
);
leftMetricsKey = s;
rightMetricsKey = i;
unicode = EBA2;
},
{
color = 4;
glyphname = longs_f;
lastChange = "2019-01-08 14:53:43 +0000";
layers = (
{
components = (
{
name = longs;
}
);
layerId = "A23182C3-7ED8-49EC-89D2-A828F09177C3";
paths = (
{
closed = 1;
nodes = (
"408 0 LINE",
"401 568 LINE SMOOTH",
"400 629 OFFCURVE",
"430 658 OFFCURVE",
"469 658 CURVE SMOOTH",
"509 658 OFFCURVE",
"547 620 OFFCURVE",
"571 550 CURVE",
"592 550 LINE",
"608 658 LINE",
"587 688 OFFCURVE",
"547 712 OFFCURVE",
"487 712 CURVE SMOOTH",
"423 712 OFFCURVE",
"372 653 OFFCURVE",
"329 606 CURVE",
"318 568 OFFCURVE",
"323 517 OFFCURVE",
"323 484 CURVE SMOOTH",
"323 412 OFFCURVE",
"307 380 OFFCURVE",
"280 343 CURVE",
"280 330 LINE",
"314 315 OFFCURVE",
"320 292 OFFCURVE",
"320 263 CURVE SMOOTH",
"318 0 LINE"
);
},
{
closed = 1;
nodes = (
"337 335 LINE",
"416 337 OFFCURVE",
"495 336 OFFCURVE",
"574 330 CURVE",
"587 414 LINE",
"572 417 LINE",
"558 402 OFFCURVE",
"444 392 OFFCURVE",
"337 392 CURVE"
);
}
);
width = 593;
}
);
leftMetricsKey = longs;
rightMetricsKey = f;
},
{
color = 4;
glyphname = longs_longs;
lastChange = "2019-04-24 15:11:29 +0000";
layers = (
{
components = (
{
name = longs;
transform = "{1, 0, 0, 1, 211, 0}";
}
);
layerId = "A23182C3-7ED8-49EC-89D2-A828F09177C3";
paths = (
{
closed = 1;
nodes = (
"159 0 LINE",
"148 188 OFFCURVE",
"144 357 OFFCURVE",
"144 511 CURVE SMOOTH",
"144 584 OFFCURVE",
"171 625 OFFCURVE",
"221 625 CURVE SMOOTH",
"267 625 OFFCURVE",
"307 593 OFFCURVE",
"314 552 CURVE",
"373 607 LINE",
"345 654 OFFCURVE",
"314 682 OFFCURVE",
"257 682 CURVE SMOOTH",
"164 682 OFFCURVE",
"88 582 OFFCURVE",
"78 494 CURVE SMOOTH",
"66 391 OFFCURVE",
"61 406 OFFCURVE",
"35 383 CURVE",
"35 372 LINE",
"48 363 OFFCURVE",
"67 341 OFFCURVE",
"67 303 CURVE SMOOTH",
"67 166 OFFCURVE",
"65 86 OFFCURVE",
"63 0 CURVE"
);
}
);
width = 472;
},
{
associatedMasterId = "A23182C3-7ED8-49EC-89D2-A828F09177C3";
layerId = "DC5E04C0-18B7-44BD-B0B1-459A946638E3";
name = image;
width = 550;
}
);
leftMetricsKey = longs;
rightMetricsKey = longs;
unicode = EBA6;
},
{
color = 4;
glyphname = longs_longs_i;
lastChange = "2019-04-23 12:55:25 +0000";
layers = (
{
components = (
{
name = i;
transform = "{1, 0, 0, 1, 402, 0}";
},
{
name = longs;
transform = "{1, 0, 0, 1, 222, 0}";
}
);
layerId = "A23182C3-7ED8-49EC-89D2-A828F09177C3";
paths = (
{
closed = 1;
nodes = (
"159 0 LINE",
"148 188 OFFCURVE",
"144 357 OFFCURVE",
"144 511 CURVE SMOOTH",
"144 584 OFFCURVE",
"171 625 OFFCURVE",
"221 625 CURVE SMOOTH",
"267 625 OFFCURVE",
"307 593 OFFCURVE",
"314 552 CURVE",
"373 607 LINE",
"345 654 OFFCURVE",
"314 682 OFFCURVE",
"257 682 CURVE SMOOTH",
"164 682 OFFCURVE",
"88 582 OFFCURVE",
"78 494 CURVE SMOOTH",
"66 391 OFFCURVE",
"61 406 OFFCURVE",
"35 383 CURVE",
"35 372 LINE",
"48 363 OFFCURVE",
"67 341 OFFCURVE",
"67 303 CURVE SMOOTH",
"67 166 OFFCURVE",
"65 86 OFFCURVE",
"63 0 CURVE"
);
}
);
width = 649;
}
);
leftMetricsKey = longs;
rightMetricsKey = i;
},
{
color = 4;
glyphname = longs_t;
lastChange = "2019-04-23 13:01:25 +0000";
layers = (
{
layerId = "A23182C3-7ED8-49EC-89D2-A828F09177C3";
paths = (
{
closed = 1;
nodes = (
"159 0 LINE",
"148 188 OFFCURVE",
"144 372 OFFCURVE",
"144 526 CURVE SMOOTH",
"144 609 OFFCURVE",
"191 654 OFFCURVE",
"256 654 CURVE SMOOTH",
"362 654 OFFCURVE",
"370 542 OFFCURVE",
"367 420 CURVE",
"450 427 LINE",
"450 420 LINE",
"455 609 OFFCURVE",
"405 708 OFFCURVE",
"272 708 CURVE SMOOTH",
"164 708 OFFCURVE",
"88 612 OFFCURVE",
"78 524 CURVE SMOOTH",
"66 421 OFFCURVE",
"61 406 OFFCURVE",
"35 383 CURVE",
"35 372 LINE",
"48 363 OFFCURVE",
"67 341 OFFCURVE",
"67 303 CURVE SMOOTH",
"67 166 OFFCURVE",
"65 86 OFFCURVE",
"63 0 CURVE"
);
},
{
closed = 1;
nodes = (
"438 361 OFFCURVE",
"450 427 OFFCURVE",
"450 477 CURVE",
"442 483 LINE",
"411 460 OFFCURVE",
"377 427 OFFCURVE",
"372 427 CURVE SMOOTH",
"337 424 LINE",
"336 421 LINE",
"359 357 LINE",
"358 308 OFFCURVE",
"361 198 OFFCURVE",
"362 112 CURVE SMOOTH",
"364 17 OFFCURVE",
"387 -10 OFFCURVE",
"443 -10 CURVE SMOOTH",
"514 -10 OFFCURVE",
"579 39 OFFCURVE",
"624 72 CURVE",
"616 90 LINE",
"580 76 OFFCURVE",
"536 65 OFFCURVE",
"508 65 CURVE SMOOTH",
"458 65 OFFCURVE",
"446 97 OFFCURVE",
"444 161 CURVE SMOOTH"
);
},
{
closed = 1;
nodes = (
"419 365 LINE",
"490 369 OFFCURVE",
"563 369 OFFCURVE",
"638 365 CURVE",
"639 433 LINE",
"596 428 OFFCURVE",
"492 429 OFFCURVE",
"419 429 CURVE"
);
}
);
width = 645;
}
);
leftMetricsKey = s;
rightMetricsKey = t;
unicode = FB05;
},
{
color = 4;
glyphname = t;
lastChange = "2019-04-24 15:11:29 +0000";
layers = (
{
guideLines = (
{
angle = 24.3765;
position = "{358, 34}";
}
);
layerId = "A23182C3-7ED8-49EC-89D2-A828F09177C3";
paths = (
{
closed = 1;
nodes = (
"127 361 OFFCURVE",
"141 432 OFFCURVE",
"156 475 CURVE",
"139 483 LINE",
"108 460 OFFCURVE",
"66 427 OFFCURVE",
"61 427 CURVE SMOOTH",
"26 424 LINE",
"25 421 LINE",
"48 357 LINE",
"47 308 OFFCURVE",
"45 198 OFFCURVE",
"45 112 CURVE SMOOTH",
"45 17 OFFCURVE",
"68 -10 OFFCURVE",
"144 -10 CURVE SMOOTH",
"195 -10 OFFCURVE",
"282 30 OFFCURVE",
"329 63 CURVE",
"321 81 LINE",
"283 70 OFFCURVE",
"235 65 OFFCURVE",
"199 65 CURVE SMOOTH",
"149 65 OFFCURVE",
"127 97 OFFCURVE",
"127 161 CURVE SMOOTH"
);
},
{
closed = 1;
nodes = (
"108 365 LINE",
"179 369 OFFCURVE",
"252 369 OFFCURVE",
"327 365 CURVE",
"328 429 LINE",
"108 429 LINE"
);
}
);
width = 335;
},
{
associatedMasterId = "A23182C3-7ED8-49EC-89D2-A828F09177C3";
layerId = "58D9F921-8F89-4FC3-AE2F-195D38BE1E76";
name = image;
width = 360;
},
{
associatedMasterId = "A23182C3-7ED8-49EC-89D2-A828F09177C3";
background = {
paths = (
{
closed = 1;
nodes = (
"122 381 OFFCURVE",
"137 435 OFFCURVE",
"149 468 CURVE",
"135 481 LINE",
"93 453 OFFCURVE",
"54 432 OFFCURVE",
"15 420 CURVE",
"29 355 LINE",
"41 355 LINE",
"34 293 OFFCURVE",
"25 198 OFFCURVE",
"25 132 CURVE SMOOTH",
"25 17 OFFCURVE",
"77 -9 OFFCURVE",
"139 -9 CURVE SMOOTH",
"200 -9 OFFCURVE",
"281 33 OFFCURVE",
"327 66 CURVE",
"312 90 LINE",
"292 79 OFFCURVE",
"245 70 OFFCURVE",
"219 70 CURVE SMOOTH",
"149 70 OFFCURVE",
"122 117 OFFCURVE",
"122 211 CURVE SMOOTH"
);
},
{
closed = 1;
nodes = (
"93 360 LINE",
"322 360 LINE",
"330 435 LINE",
"93 425 LINE"
);
}
);
};
layerId = "BFBAAD4A-582A-465C-A42A-A9416F135452";
name = "Jun 26 18, 12:05";
paths = (
{
closed = 1;
nodes = (
"122 381 OFFCURVE",
"137 439 OFFCURVE",
"149 472 CURVE",
"135 485 LINE",
"93 457 OFFCURVE",
"54 436 OFFCURVE",
"15 424 CURVE",
"37 346 LINE",
"34 297 OFFCURVE",
"25 198 OFFCURVE",
"25 132 CURVE SMOOTH",
"25 17 OFFCURVE",
"77 -9 OFFCURVE",
"139 -9 CURVE SMOOTH",
"200 -9 OFFCURVE",
"281 33 OFFCURVE",
"327 66 CURVE",
"312 90 LINE",
"292 79 OFFCURVE",
"245 70 OFFCURVE",
"219 70 CURVE SMOOTH",
"149 70 OFFCURVE",
"122 117 OFFCURVE",
"122 211 CURVE SMOOTH"
);
},
{
closed = 1;
nodes = (
"93 360 LINE",
"322 360 LINE",
"330 435 LINE",
"93 429 LINE"
);
}
);
width = 330;
}
);
unicode = 0074;
},
{
color = 4;
glyphname = t_acute;
lastChange = "2019-04-24 15:11:29 +0000";
layers = (
{
layerId = "A23182C3-7ED8-49EC-89D2-A828F09177C3";
paths = (
{
closed = 1;
nodes = (
"344 608 OFFCURVE",
"357 617 OFFCURVE",
"387 662 CURVE",
"422 657 LINE",
"398 621 OFFCURVE",
"376 573 OFFCURVE",
"355 530 CURVE",
"280 526 OFFCURVE",
"225 512 OFFCURVE",
"202 478 CURVE",
"181 493 LINE",
"240 586 LINE"
);
},
{
closed = 1;
nodes = (
"127 361 OFFCURVE",
"141 432 OFFCURVE",
"156 475 CURVE",
"139 483 LINE",
"108 460 OFFCURVE",
"66 427 OFFCURVE",
"61 427 CURVE SMOOTH",
"26 424 LINE",
"25 421 LINE",
"48 357 LINE",
"47 308 OFFCURVE",
"45 198 OFFCURVE",
"45 112 CURVE SMOOTH",
"45 17 OFFCURVE",
"98 -10 OFFCURVE",
"174 -10 CURVE SMOOTH",
"245 -10 OFFCURVE",
"334 53 OFFCURVE",
"381 96 CURVE",
"371 111 LINE",
"333 90 OFFCURVE",
"254 65 OFFCURVE",
"218 65 CURVE SMOOTH",
"149 65 OFFCURVE",
"127 97 OFFCURVE",
"127 161 CURVE SMOOTH"
);
},
{
closed = 1;
nodes = (
"108 365 LINE",
"179 369 OFFCURVE",
"292 369 OFFCURVE",
"367 365 CURVE",
"368 429 LINE",
"108 429 LINE"
);
}
);
width = 448;
},
{
associatedMasterId = "A23182C3-7ED8-49EC-89D2-A828F09177C3";
components = (
{
name = t;
}
);
layerId = "83E916BA-BD3C-48FB-89F7-E2F7BDC2C3A5";
name = "Aug 22 18, 21:19";
paths = (
{
closed = 1;
nodes = (
"334 577 OFFCURVE",
"341 577 OFFCURVE",
"344 577 CURVE SMOOTH",
"375 577 OFFCURVE",
"387 600 OFFCURVE",
"387 628 CURVE SMOOTH",
"387 642 OFFCURVE",
"384 658 OFFCURVE",
"375 674 CURVE",
"404 691 LINE",
"471 609 OFFCURVE",
"434 482 OFFCURVE",
"348 482 CURVE SMOOTH",
"313 482 OFFCURVE",
"286 506 OFFCURVE",
"286 534 CURVE SMOOTH",
"286 551 OFFCURVE",
"296 571 OFFCURVE",
"319 587 CURVE"
);
}
);
width = 438;
}
);
leftMetricsKey = t;
unicode = E6E2;
},
{
color = 4;
glyphname = u;
lastChange = "2019-04-24 15:11:29 +0000";
layers = (
{
associatedMasterId = "A23182C3-7ED8-49EC-89D2-A828F09177C3";
background = {
components = (
{
name = i;
transform = "{1, 0, 0, 1, 300, 0}";
}
);
};
layerId = "2F3DC6D0-ACA8-41EF-A4BA-D9E2B8FC0E52";
name = "Jun 26 18, 13:04";
width = 555;
},
{
guideLines = (
{
angle = 20;
position = "{403, -35}";
}
);
layerId = "A23182C3-7ED8-49EC-89D2-A828F09177C3";
paths = (
{
closed = 1;
nodes = (
"43 52 OFFCURVE",
"66 -10 OFFCURVE",
"160 -10 CURVE SMOOTH",
"216 -10 OFFCURVE",
"313 65 OFFCURVE",
"385 121 CURVE",
"367 146 LINE",
"349 126 OFFCURVE",
"270 65 OFFCURVE",
"200 65 CURVE SMOOTH",
"146 65 OFFCURVE",
"123 94 OFFCURVE",
"123 171 CURVE SMOOTH",
"123 270 OFFCURVE",
"133 373 OFFCURVE",
"160 419 CURVE",
"154 432 LINE",
"125 429 OFFCURVE",
"65 429 OFFCURVE",
"4 429 CURVE",
"4 394 LINE",
"38 387 OFFCURVE",
"55 369 OFFCURVE",
"55 310 CURVE SMOOTH",
"55 273 OFFCURVE",
"43 203 OFFCURVE",
"43 132 CURVE SMOOTH"
);
},
{
closed = 1;
nodes = (
"320 392 OFFCURVE",
"345 389 OFFCURVE",
"345 356 CURVE SMOOTH",
"345 276 OFFCURVE",
"335 152 OFFCURVE",
"335 92 CURVE SMOOTH",
"335 52 OFFCURVE",
"358 12 OFFCURVE",
"388 -10 CURVE",
"489 35 LINE",
"482 65 LINE",
"426 65 OFFCURVE",
"422 95 OFFCURVE",
"422 180 CURVE SMOOTH",
"422 269 OFFCURVE",
"424 375 OFFCURVE",
"446 412 CURVE",
"436 433 LINE",
"398 430 OFFCURVE",
"357 430 OFFCURVE",
"297 430 CURVE",
"297 395 LINE"
);
}
);
width = 494;
},
{
associatedMasterId = "A23182C3-7ED8-49EC-89D2-A828F09177C3";
background = {
components = (
{
name = i;
transform = "{1, 0, 0, 1, 300, 0}";
}
);
};
layerId = "602AA073-48DF-4169-8AF2-7BC89A7E0EC9";
name = "Jun 26 18, 13:05";
paths = (
{
closed = 1;
nodes = (
"44 27 OFFCURVE",
"93 -10 OFFCURVE",
"160 -10 CURVE SMOOTH",
"170 -10 OFFCURVE",
"317 44 OFFCURVE",
"369 88 CURVE",
"352 130 LINE",
"333 100 OFFCURVE",
"265 70 OFFCURVE",
"207 70 CURVE SMOOTH",
"140 70 OFFCURVE",
"138 122 OFFCURVE",
"138 219 CURVE SMOOTH",
"138 291 OFFCURVE",
"160 374 OFFCURVE",
"183 420 CURVE",
"173 440 LINE",
"141 436 OFFCURVE",
"63 432 OFFCURVE",
"25 430 CURVE",
"25 390 LINE",
"56 383 OFFCURVE",
"63 378 OFFCURVE",
"61 352 CURVE SMOOTH",
"57 295 OFFCURVE",
"44 164 OFFCURVE",
"44 124 CURVE SMOOTH"
);
},
{
closed = 1;
nodes = (
"455 432 LINE",
"414 428 OFFCURVE",
"359 430 OFFCURVE",
"323 430 CURVE",
"320 411 LINE",
"334 393 OFFCURVE",
"344 362 OFFCURVE",
"344 338 CURVE SMOOTH",
"344 142 LINE",
"344 101 OFFCURVE",
"345 62 OFFCURVE",
"345 60 CURVE SMOOTH",
"345 29 OFFCURVE",
"360 -10 OFFCURVE",
"386 -10 CURVE",
"495 30 LINE",
"495 70 LINE",
"445 70 OFFCURVE",
"433 72 OFFCURVE",
"433 175 CURVE SMOOTH",
"433 219 OFFCURVE",
"420 350 OFFCURVE",
"460 418 CURVE"
);
}
);
width = 555;
},
{
associatedMasterId = "A23182C3-7ED8-49EC-89D2-A828F09177C3";
background = {
components = (
{
name = i;
transform = "{1, 0, 0, 1, 268, 0}";
}
);
};
guideLines = (
{
angle = 24.3765;
position = "{503, 48}";
},
{
angle = 24.7371;
position = "{175, -11}";
}
);
layerId = "C7E361C2-0956-4882-AD8D-A4512ACFFE17";
name = "Jul 4 18, 14:53";
paths = (
{
closed = 1;
nodes = (
"39 34 OFFCURVE",
"85 -10 OFFCURVE",
"165 -10 CURVE SMOOTH",
"215 -10 OFFCURVE",
"313 41 OFFCURVE",
"369 78 CURVE",
"350 112 LINE",
"330 88 OFFCURVE",
"270 71 OFFCURVE",
"222 71 CURVE SMOOTH",
"155 71 OFFCURVE",
"133 92 OFFCURVE",
"133 159 CURVE SMOOTH",
"133 261 OFFCURVE",
"155 374 OFFCURVE",
"178 420 CURVE",
"168 440 LINE",
"136 436 OFFCURVE",
"58 430 OFFCURVE",
"20 430 CURVE",
"20 390 LINE",
"51 383 OFFCURVE",
"56 378 OFFCURVE",
"56 352 CURVE SMOOTH",
"56 315 OFFCURVE",
"39 224 OFFCURVE",
"39 124 CURVE SMOOTH"
);
},
{
closed = 1;
nodes = (
"452 440 LINE",
"411 434 OFFCURVE",
"351 430 OFFCURVE",
"315 430 CURVE",
"315 390 LINE",
"329 390 OFFCURVE",
"339 382 OFFCURVE",
"339 328 CURVE SMOOTH",
"339 142 LINE",
"339 101 OFFCURVE",
"338 92 OFFCURVE",
"338 90 CURVE SMOOTH",
"338 59 OFFCURVE",
"333 -10 OFFCURVE",
"375 -10 CURVE SMOOTH",
"398 -10 OFFCURVE",
"468 24 OFFCURVE",
"503 48 CURVE",
"493 80 LINE",
"443 80 OFFCURVE",
"430 72 OFFCURVE",
"430 175 CURVE SMOOTH",
"430 219 OFFCURVE",
"422 352 OFFCURVE",
"462 420 CURVE"
);
}
);
width = 520;
}
);
rightMetricsKey = i;
unicode = 0075;
},
{
color = 4;
glyphname = u_macr;
lastChange = "2019-03-27 15:27:46 +0000";
layers = (
{
components = (
{
name = u;
}
);
layerId = "A23182C3-7ED8-49EC-89D2-A828F09177C3";
paths = (
{
closed = 1;
nodes = (
"95 479 LINE",
"142 537 OFFCURVE",
"168 542 OFFCURVE",
"280 554 CURVE",
"314 594 OFFCURVE",
"345 641 OFFCURVE",
"362 694 CURVE",
"329 707 LINE",
"307 632 OFFCURVE",
"305 625 OFFCURVE",
"148 614 CURVE",
"129 580 OFFCURVE",
"98 545 OFFCURVE",
"63 489 CURVE"
);
}
);
width = 494;
},
{
associatedMasterId = "A23182C3-7ED8-49EC-89D2-A828F09177C3";
background = {
paths = (
{
closed = 1;
nodes = (
"150 482 LINE",
"155 499 OFFCURVE",
"169 516 OFFCURVE",
"199 516 CURVE SMOOTH",
"228 516 OFFCURVE",
"244 516 OFFCURVE",
"259 516 CURVE SMOOTH",
"358 516 OFFCURVE",
"391 579 OFFCURVE",
"391 670 CURVE",
"358 677 LINE",
"354 611 OFFCURVE",
"334 608 OFFCURVE",
"289 602 CURVE SMOOTH",
"225 593 LINE SMOOTH",
"198 589 OFFCURVE",
"150 579 OFFCURVE",
"120 497 CURVE"
);
}
);
};
components = (
{
name = u;
}
);
layerId = "36008B9D-2404-4CCC-B5C2-38052F6A1467";
name = "Jul 9 18, 10:55";
paths = (
{
closed = 1;
nodes = (
"133 478 LINE",
"158 516 OFFCURVE",
"184 520 OFFCURVE",
"217 520 CURVE SMOOTH",
"340 520 OFFCURVE",
"390 536 OFFCURVE",
"419 694 CURVE",
"383 705 LINE",
"369 656 OFFCURVE",
"354 621 OFFCURVE",
"308 613 CURVE SMOOTH",
"275 607 OFFCURVE",
"234 602 OFFCURVE",
"204 595 CURVE SMOOTH",
"159 584 OFFCURVE",
"130 558 OFFCURVE",
"107 502 CURVE"
);
}
);
width = 499;
}
);
leftMetricsKey = u;
rightMetricsKey = u;
unicode = 016B;
},
{
color = 4;
glyphname = v;
lastChange = "2019-01-08 14:53:43 +0000";
layers = (
{
layerId = "A23182C3-7ED8-49EC-89D2-A828F09177C3";
paths = (
{
closed = 1;
nodes = (
"378 398 LINE",
"418 389 OFFCURVE",
"429 375 OFFCURVE",
"398 308 CURVE SMOOTH",
"285 61 LINE",
"311 82 LINE",
"188 325 LINE SMOOTH",
"176 349 OFFCURVE",
"155 393 OFFCURVE",
"238 399 CURVE",
"238 433 LINE",
"147 430 OFFCURVE",
"80 429 OFFCURVE",
"5 433 CURVE",
"5 399 LINE",
"47 393 OFFCURVE",
"61 374 OFFCURVE",
"88 323 CURVE SMOOTH",
"260 -5 LINE",
"299 -5 LINE",
"313 37 OFFCURVE",
"329 65 OFFCURVE",
"362 127 CURVE SMOOTH",
"446 286 OFFCURVE",
"477 380 OFFCURVE",
"555 399 CURVE",
"555 433 LINE",
"487 429 OFFCURVE",
"428 429 OFFCURVE",
"378 433 CURVE"
);
}
);
width = 560;
},
{
associatedMasterId = "A23182C3-7ED8-49EC-89D2-A828F09177C3";
layerId = "AFD4BF42-4277-4EA3-B059-30371D483316";
name = "Jun 28 18, 10:11";
paths = (
{
closed = 1;
nodes = (
"464 409 LINE",
"480 388 OFFCURVE",
"479 346 OFFCURVE",
"465 323 CURVE SMOOTH",
"423 255 OFFCURVE",
"368 165 OFFCURVE",
"302 69 CURVE",
"334 92 LINE",
"199 319 LINE SMOOTH",
"185 343 OFFCURVE",
"171 383 OFFCURVE",
"186 404 CURVE",
"183 430 LINE",
"126 428 OFFCURVE",
"59 431 OFFCURVE",
"16 436 CURVE",
"15 419 OFFCURVE",
"15 402 OFFCURVE",
"16 385 CURVE",
"45 378 OFFCURVE",
"66 352 OFFCURVE",
"86 317 CURVE SMOOTH",
"270 1 LINE",
"319 1 LINE",
"494 262 OFFCURVE",
"537 375 OFFCURVE",
"616 393 CURVE",
"615 434 LINE",
"560 433 OFFCURVE",
"514 429 OFFCURVE",
"464 432 CURVE"
);
}
);
width = 619;
}
);
unicode = 0076;
},
{
color = 6;
glyphname = w;
lastChange = "2019-01-31 08:07:01 +0000";
layers = (
{
layerId = "A23182C3-7ED8-49EC-89D2-A828F09177C3";
paths = (
{
closed = 1;
nodes = (
"369 398 LINE",
"419 389 OFFCURVE",
"425 378 OFFCURVE",
"391 308 CURVE SMOOTH",
"273 62 LINE",
"297 82 LINE",
"189 325 LINE SMOOTH",
"178 349 OFFCURVE",
"160 393 OFFCURVE",
"243 399 CURVE",
"243 433 LINE",
"152 430 OFFCURVE",
"85 429 OFFCURVE",
"10 433 CURVE",
"10 399 LINE",
"52 393 OFFCURVE",
"68 375 OFFCURVE",
"93 323 CURVE SMOOTH",
"250 -5 LINE",
"289 -5 LINE",
"303 37 OFFCURVE",
"313 63 OFFCURVE",
"345 127 CURVE SMOOTH",
"424 286 OFFCURVE",
"464 390 OFFCURVE",
"542 399 CURVE",
"542 433 LINE",
"484 429 OFFCURVE",
"429 429 OFFCURVE",
"369 433 CURVE"
);
},
{
closed = 1;
nodes = (
"401 272 LINE",
"516 -5 LINE",
"555 -5 LINE",
"569 37 OFFCURVE",
"582 64 OFFCURVE",
"614 128 CURVE SMOOTH",
"706 313 OFFCURVE",
"725 380 OFFCURVE",
"803 399 CURVE",
"803 433 LINE",
"735 429 OFFCURVE",
"686 429 OFFCURVE",
"636 433 CURVE",
"636 398 LINE",
"676 389 OFFCURVE",
"686 376 OFFCURVE",
"655 308 CURVE SMOOTH",
"542 61 LINE",
"569 80 LINE",
"456 351 LINE"
);
}
);
width = 813;
}
);
unicode = 0077;
},
{
color = 4;
glyphname = x;
lastChange = "2019-04-24 15:11:29 +0000";
layers = (
{
layerId = "A23182C3-7ED8-49EC-89D2-A828F09177C3";
paths = (
{
closed = 1;
nodes = (
"317 80 OFFCURVE",
"397 -10 OFFCURVE",
"424 -10 CURVE SMOOTH",
"444 -10 OFFCURVE",
"538 14 OFFCURVE",
"567 35 CURVE",
"555 62 LINE",
"536 56 OFFCURVE",
"530 52 OFFCURVE",
"510 52 CURVE SMOOTH",
"440 52 OFFCURVE",
"390 139 OFFCURVE",
"308 254 CURVE SMOOTH",
"256 326 OFFCURVE",
"198 426 OFFCURVE",
"167 430 CURVE SMOOTH",
"133 434 OFFCURVE",
"46 411 OFFCURVE",
"5 399 CURVE",
"11 365 LINE",
"29 369 OFFCURVE",
"51 371 OFFCURVE",
"64 371 CURVE SMOOTH",
"133 371 OFFCURVE",
"182 272 OFFCURVE",
"246 181 CURVE SMOOTH"
);
},
{
closed = 1;
nodes = (
"130 -10 OFFCURVE",
"220 80 OFFCURVE",
"287 158 CURVE",
"260 188 LINE",
"202 115 OFFCURVE",
"143 65 OFFCURVE",
"91 65 CURVE SMOOTH",
"62 65 OFFCURVE",
"47 71 OFFCURVE",
"32 95 CURVE",
"13 90 LINE",
"5 2 LINE",
"19 -6 OFFCURVE",
"35 -10 OFFCURVE",
"64 -10 CURVE SMOOTH"
);
},
{
closed = 1;
nodes = (
"387 296 LINE SMOOTH",
"446 377 OFFCURVE",
"446 386 OFFCURVE",
"543 397 CURVE SMOOTH",
"561 399 LINE",
"561 433 LINE",
"490 428 OFFCURVE",
"418 429 OFFCURVE",
"375 433 CURVE",
"368 413 LINE",
"379 392 OFFCURVE",
"372 352 OFFCURVE",
"338 303 CURVE SMOOTH",
"293 238 LINE",
"325 211 LINE"
);
}
);
width = 572;
},
{
associatedMasterId = "A23182C3-7ED8-49EC-89D2-A828F09177C3";
layerId = "6C4CDBCA-1D1A-4141-BDD9-5A8ABFF3A669";
name = image;
width = 600;
},
{
associatedMasterId = "A23182C3-7ED8-49EC-89D2-A828F09177C3";
layerId = "F8F61E2D-5374-4F30-8870-065C5E29080D";
name = "Jun 27 18, 17:43";
paths = (
{
closed = 1;
nodes = (
"349 80 OFFCURVE",
"403 -10 OFFCURVE",
"450 -10 CURVE SMOOTH",
"480 -10 OFFCURVE",
"549 15 OFFCURVE",
"584 33 CURVE",
"574 63 LINE",
"555 58 OFFCURVE",
"543 55 OFFCURVE",
"523 55 CURVE SMOOTH",
"471 55 OFFCURVE",
"414 139 OFFCURVE",
"324 254 CURVE SMOOTH",
"271 325 OFFCURVE",
"220 434 OFFCURVE",
"146 434 CURVE SMOOTH",
"111 434 OFFCURVE",
"62 405 OFFCURVE",
"30 385 CURVE",
"39 354 LINE",
"57 360 OFFCURVE",
"66 362 OFFCURVE",
"99 362 CURVE SMOOTH",
"158 362 OFFCURVE",
"214 272 OFFCURVE",
"278 181 CURVE SMOOTH"
);
},
{
closed = 1;
nodes = (
"155 -10 OFFCURVE",
"250 72 OFFCURVE",
"307 163 CURVE",
"285 188 LINE",
"227 115 OFFCURVE",
"168 65 OFFCURVE",
"116 65 CURVE SMOOTH",
"87 65 OFFCURVE",
"65 75 OFFCURVE",
"47 92 CURVE",
"38 90 LINE",
"30 2 LINE",
"44 -6 OFFCURVE",
"60 -10 OFFCURVE",
"89 -10 CURVE SMOOTH"
);
},
{
closed = 1;
nodes = (
"442 346 LINE SMOOTH",
"469 381 OFFCURVE",
"511 394 OFFCURVE",
"548 394 CURVE SMOOTH",
"566 394 LINE",
"566 434 LINE",
"495 429 OFFCURVE",
"426 429 OFFCURVE",
"363 434 CURVE",
"360 418 LINE",
"392 410 OFFCURVE",
"411 370 OFFCURVE",
"387 336 CURVE SMOOTH",
"318 238 LINE",
"340 211 LINE"
);
}
);
width = 620;
}
);
unicode = 0078;
},
{
color = 4;
glyphname = y;
lastChange = "2019-04-24 15:11:29 +0000";
layers = (
{
layerId = "A23182C3-7ED8-49EC-89D2-A828F09177C3";
paths = (
{
closed = 1;
nodes = (
"5 398 LINE",
"41 388 OFFCURVE",
"48 382 OFFCURVE",
"78 308 CURVE SMOOTH",
"180 56 LINE",
"40 -197 LINE",
"73 -217 LINE",
"313 141 LINE SMOOTH",
"437 327 OFFCURVE",
"487 389 OFFCURVE",
"516 398 CURVE",
"516 433 LINE",
"468 429 OFFCURVE",
"361 429 OFFCURVE",
"283 433 CURVE",
"283 399 LINE",
"344 394 OFFCURVE",
"366 378 OFFCURVE",
"350 351 CURVE SMOOTH",
"200 89 LINE",
"218 69 LINE",
"127 335 LINE SMOOTH",
"113 376 OFFCURVE",
"119 392 OFFCURVE",
"181 398 CURVE",
"181 433 LINE",
"126 429 OFFCURVE",
"70 428 OFFCURVE",
"5 433 CURVE"
);
}
);
width = 521;
},
{
associatedMasterId = "A23182C3-7ED8-49EC-89D2-A828F09177C3";
layerId = "A935B9B6-4281-4FD3-8378-69E34E0EEDF3";
name = image;
width = 590;
},
{
associatedMasterId = "A23182C3-7ED8-49EC-89D2-A828F09177C3";
layerId = "892121BA-6869-4071-A2A6-57F8384D2821";
name = "Jun 28 18, 10:02";
paths = (
{
closed = 1;
nodes = (
"10 393 LINE",
"58 393 OFFCURVE",
"73 378 OFFCURVE",
"91 338 CURVE SMOOTH",
"216 57 LINE",
"52 -202 LINE",
"95 -227 LINE",
"452 291 LINE SMOOTH",
"476 326 OFFCURVE",
"520 387 OFFCURVE",
"541 404 CURVE",
"541 435 LINE",
"493 429 OFFCURVE",
"396 431 OFFCURVE",
"318 433 CURVE",
"318 393 LINE",
"379 393 OFFCURVE",
"409 385 OFFCURVE",
"388 351 CURVE SMOOTH",
"227 83 LINE",
"260 90 LINE",
"149 356 LINE SMOOTH",
"136 387 OFFCURVE",
"139 393 OFFCURVE",
"221 393 CURVE",
"221 433 LINE",
"156 430 OFFCURVE",
"75 429 OFFCURVE",
"10 433 CURVE"
);
}
);
width = 541;
}
);
unicode = 0079;
},
{
color = 4;
glyphname = z;
lastChange = "2019-04-24 15:11:29 +0000";
layers = (
{
layerId = "A23182C3-7ED8-49EC-89D2-A828F09177C3";
paths = (
{
closed = 1;
nodes = (
"409 74 OFFCURVE",
"250 64 OFFCURVE",
"64 64 CURVE",
"63 29 LINE",
"403 342 OFFCURVE",
"469 396 OFFCURVE",
"519 430 CURVE",
"497 453 LINE",
"471 433 OFFCURVE",
"421 438 OFFCURVE",
"353 438 CURVE SMOOTH",
"276 438 OFFCURVE",
"218 440 OFFCURVE",
"110 440 CURVE SMOOTH",
"101 440 OFFCURVE",
"58 397 OFFCURVE",
"14 365 CURVE",
"35 343 LINE",
"47 356 OFFCURVE",
"151 365 OFFCURVE",
"246 365 CURVE SMOOTH",
"383 365 LINE",
"383 376 LINE",
"0 32 LINE",
"0 -3 LINE",
"117 2 OFFCURVE",
"294 3 OFFCURVE",
"417 -3 CURVE",
"516 105 LINE",
"498 120 LINE"
);
}
);
width = 509;
},
{
associatedMasterId = "A23182C3-7ED8-49EC-89D2-A828F09177C3";
layerId = "36B77E14-E415-4034-B364-4F274737CF8D";
name = "May 14 18, 15:01";
paths = (
{
closed = 1;
nodes = (
"201 87 OFFCURVE",
"93 77 CURVE",
"100 33 LINE",
"403 306 LINE SMOOTH",
"445 344 OFFCURVE",
"489 360 OFFCURVE",
"528 377 CURVE",
"516 453 LINE",
"362 393 OFFCURVE",
"304 401 OFFCURVE",
"152 416 CURVE SMOOTH",
"119 419 OFFCURVE",
"112 417 OFFCURVE",
"102 409 CURVE",
"6 332 LINE",
"27 310 LINE",
"48 325 OFFCURVE",
"73 333 OFFCURVE",
"108 332 CURVE SMOOTH",
"252 328 OFFCURVE",
"329 324 OFFCURVE",
"388 340 CURVE",
"401 376 LINE",
"11 26 LINE",
"18 -7 LINE",
"95 4 OFFCURVE",
"362 9 OFFCURVE",
"417 -3 CURVE",
"442 30 OFFCURVE",
"482 68 OFFCURVE",
"518 99 CURVE",
"495 131 LINE",
"395 67 OFFCURVE"
);
}
);
width = 534;
},
{
associatedMasterId = "A23182C3-7ED8-49EC-89D2-A828F09177C3";
layerId = "24084D78-8022-4A73-9B19-A8F9D9C086A4";
name = i;
width = 580;
}
);
unicode = 007A;
},
{
color = 5;
glyphname = gamma;
lastChange = "2019-04-24 15:11:29 +0000";
layers = (
{
layerId = "A23182C3-7ED8-49EC-89D2-A828F09177C3";
paths = (
{
closed = 1;
nodes = (
"121 364 OFFCURVE",
"122 102 OFFCURVE",
"125 0 CURVE",
"30 0 LINE",
"40 139 OFFCURVE",
"50 341 OFFCURVE",
"55 527 CURVE",
"249 552 LINE SMOOTH",
"359 566 OFFCURVE",
"421 578 OFFCURVE",
"474 638 CURVE",
"497 625 LINE",
"482 591 OFFCURVE",
"404 493 OFFCURVE",
"386 484 CURVE SMOOTH",
"331 456 OFFCURVE",
"223 452 OFFCURVE",
"125 443 CURVE"
);
}
);
width = 497;
},
{
associatedMasterId = "A23182C3-7ED8-49EC-89D2-A828F09177C3";
layerId = "F756DE16-25A4-488F-AE63-C5F12FA39997";
name = I;
width = 600;
},
{
associatedMasterId = "A23182C3-7ED8-49EC-89D2-A828F09177C3";
layerId = "B1A6D657-68E1-4EF2-B05F-2821826EC332";
name = "Jul 8 18, 17:20";
paths = (
{
closed = 1;
nodes = (
"157 354 OFFCURVE",
"161 102 OFFCURVE",
"167 0 CURVE",
"64 0 LINE",
"64 99 OFFCURVE",
"89 514 OFFCURVE",
"89 521 CURVE",
"175 531 OFFCURVE",
"232 532 OFFCURVE",
"324 553 CURVE SMOOTH",
"393 569 OFFCURVE",
"442 591 OFFCURVE",
"495 651 CURVE",
"531 625 LINE",
"523 571 OFFCURVE",
"478 505 OFFCURVE",
"410 474 CURVE SMOOTH",
"354 448 OFFCURVE",
"255 442 OFFCURVE",
"157 433 CURVE"
);
}
);
width = 561;
}
);
unicode = 03B3;
},
{
color = 5;
glyphname = mu;
lastChange = "2019-04-24 15:11:29 +0000";
layers = (
{
layerId = "A23182C3-7ED8-49EC-89D2-A828F09177C3";
paths = (
{
closed = 1;
nodes = (
"133 -247 LINE",
"125 -1 OFFCURVE",
"123 160 OFFCURVE",
"130 291 CURVE SMOOTH",
"134 369 OFFCURVE",
"141 400 OFFCURVE",
"159 416 CURVE",
"150 440 LINE",
"30 430 LINE",
"40 189 OFFCURVE",
"40 133 OFFCURVE",
"33 -247 CURVE"
);
},
{
closed = 1;
nodes = (
"343 42 OFFCURVE",
"394 133 OFFCURVE",
"394 430 CURVE",
"297 430 LINE",
"309 223 OFFCURVE",
"296 53 OFFCURVE",
"105 44 CURVE",
"105 -9 LINE"
);
}
);
width = 424;
},
{
associatedMasterId = "A23182C3-7ED8-49EC-89D2-A828F09177C3";
layerId = "C11C69C1-4F7E-49BF-9362-A427DA83941C";
name = I;
width = 600;
},
{
associatedMasterId = "A23182C3-7ED8-49EC-89D2-A828F09177C3";
layerId = "1F7B7D62-ED9C-4D60-8C21-C44946E19E71";
name = "Jul 8 18, 17:22";
paths = (
{
closed = 1;
nodes = (
"229 -217 LINE",
"224 -62 OFFCURVE",
"226 57 OFFCURVE",
"227 175 CURVE SMOOTH",
"227 229 OFFCURVE",
"228 282 OFFCURVE",
"228 338 CURVE SMOOTH",
"228 362 OFFCURVE",
"237 382 OFFCURVE",
"251 397 CURVE",
"242 429 LINE",
"139 417 LINE",
"150 176 OFFCURVE",
"150 163 OFFCURVE",
"142 -217 CURVE"
);
},
{
closed = 1;
nodes = (
"316 14 OFFCURVE",
"386 58 OFFCURVE",
"426 111 CURVE SMOOTH",
"477 180 OFFCURVE",
"488 241 OFFCURVE",
"488 423 CURVE",
"395 423 LINE",
"404 335 OFFCURVE",
"395 206 OFFCURVE",
"361 153 CURVE SMOOTH",
"332 107 OFFCURVE",
"266 68 OFFCURVE",
"209 65 CURVE",
"209 -9 LINE"
);
}
);
width = 600;
}
);
unicode = 03BC;
},
{
color = 5;
glyphname = upsilon;
lastChange = "2019-04-24 15:11:29 +0000";
layers = (
{
layerId = "A23182C3-7ED8-49EC-89D2-A828F09177C3";
paths = (
{
closed = 1;
nodes = (
"164 218 OFFCURVE",
"62 386 OFFCURVE",
"10 395 CURVE",
"10 430 LINE",
"116 430 LINE",
"179 378 OFFCURVE",
"258 190 OFFCURVE",
"286 85 CURVE",
"268 104 LINE",
"288 126 OFFCURVE",
"352 282 OFFCURVE",
"447 430 CURVE",
"516 430 LINE",
"516 405 LINE",
"493 391 OFFCURVE",
"455 343 OFFCURVE",
"422 284 CURVE SMOOTH",
"255 -10 LINE",
"222 -10 LINE"
);
}
);
width = 526;
},
{
associatedMasterId = "A23182C3-7ED8-49EC-89D2-A828F09177C3";
layerId = "7491BCDC-63BF-4AFA-A058-BBAF7F13A7DE";
name = I;
width = 600;
},
{
associatedMasterId = "A23182C3-7ED8-49EC-89D2-A828F09177C3";
background = {
paths = (
{
closed = 1;
nodes = (
"161 214 OFFCURVE",
"138 287 OFFCURVE",
"103 330 CURVE SMOOTH",
"94 341 OFFCURVE",
"81 350 OFFCURVE",
"54 350 CURVE",
"46 399 LINE",
"84 410 OFFCURVE",
"125 413 OFFCURVE",
"171 409 CURVE",
"211 346 OFFCURVE",
"246 249 OFFCURVE",
"273 135 CURVE",
"327 208 OFFCURVE",
"432 389 OFFCURVE",
"455 410 CURVE SMOOTH",
"473 427 OFFCURVE",
"505 433 OFFCURVE",
"550 430 CURVE",
"553 380 LINE",
"523 373 OFFCURVE",
"505 355 OFFCURVE",
"479 320 CURVE SMOOTH",
"401 217 OFFCURVE",
"304 72 OFFCURVE",
"245 0 CURVE",
"211 10 LINE"
);
}
);
};
layerId = "350FAA48-FB4D-4B95-8627-F2281779809C";
name = "Jul 8 18, 17:33";
paths = (
{
closed = 1;
nodes = (
"159 213 OFFCURVE",
"136 286 OFFCURVE",
"101 329 CURVE SMOOTH",
"92 340 OFFCURVE",
"80 348 OFFCURVE",
"52 348 CURVE",
"44 400 LINE",
"83 412 OFFCURVE",
"125 415 OFFCURVE",
"172 411 CURVE",
"212 349 OFFCURVE",
"247 252 OFFCURVE",
"274 140 CURVE",
"299 175 OFFCURVE",
"335 232 OFFCURVE",
"369 285 CURVE SMOOTH",
"407 345 OFFCURVE",
"441 400 OFFCURVE",
"454 411 CURVE",
"472 429 OFFCURVE",
"505 435 OFFCURVE",
"552 432 CURVE",
"555 378 LINE",
"525 372 OFFCURVE",
"507 354 OFFCURVE",
"481 319 CURVE SMOOTH",
"446 274 OFFCURVE",
"409 220 OFFCURVE",
"372 169 CURVE SMOOTH",
"324 102 OFFCURVE",
"279 38 OFFCURVE",
"246 -2 CURVE",
"209 8 LINE"
);
}
);
width = 600;
}
);
unicode = 03C5;
},
